#N canvas 806 321 748 685 10;
#X obj 300 311 outlet;
#X obj 311 78 inlet;
#X obj 63 230 pack f \$1;
#X text 121 4 routes on/offs per box/cluster of 4 lights - needs DMX
channel as arguments;
#X text 242 341 controller mappings;
#X text 140 361 controller 1;
#X text 130 411 note 1 : 5 \, 6 \, 7 \, 8;
#X text 130 430 note 2 : 8 \, 10 \, 11 \, 12;
#X text 130 393 note 0 : 1 \, 2 \, 3 \, 4;
#X text 102 457 3 boxes/notes/sensors per controller;
#X text 137 479 18 boxes/notes/sensors total;
#X obj 245 238 pack f \$2;
#X obj 409 238 pack f \$3;
#X obj 559 244 pack f \$4;
#X obj 63 159 light_two;
#X obj 431 81 inlet;
#X text 309 56 all notes;
#X text 433 59 long notes;
#X obj 245 164 light_one;
#X text 559 65 lfo;
#X obj 567 82 inlet;
#X obj 409 167 light_one;
#X obj 559 173 light_two;
#X connect 1 0 14 0;
#X connect 1 0 18 0;
#X connect 1 0 21 0;
#X connect 1 0 22 0;
#X connect 2 0 0 0;
#X connect 11 0 0 0;
#X connect 12 0 0 0;
#X connect 13 0 0 0;
#X connect 14 0 2 0;
#X connect 15 0 14 1;
#X connect 15 0 18 1;
#X connect 15 0 21 1;
#X connect 15 0 22 1;
#X connect 18 0 11 0;
#X connect 20 0 18 2;
#X connect 20 0 14 2;
#X connect 20 0 21 2;
#X connect 20 0 22 2;
#X connect 21 0 12 0;
#X connect 22 0 13 0;
