#N canvas 0 22 1091 564 10;
#X obj 100 282 outlet~;
#X obj 209 282 outlet~;
#X obj 313 282 outlet~;
#X obj 422 282 outlet~;
#X obj 532 282 outlet~;
#X obj 641 282 outlet~;
#X obj 745 282 outlet~;
#X obj 854 282 outlet~;
#X obj 100 257 catch~ main_ch_1;
#X obj 209 257 catch~ main_ch_2;
#X obj 313 257 catch~ main_ch_3;
#X obj 422 257 catch~ main_ch_4;
#X obj 532 257 catch~ main_ch_5;
#X obj 641 257 catch~ main_ch_6;
#X obj 745 257 catch~ main_ch_7;
#X obj 854 257 catch~ main_ch_8;
#X obj 959 281 outlet~;
#X obj 959 256 catch~ main_ch_9;
#X connect 8 0 0 0;
#X connect 9 0 1 0;
#X connect 10 0 2 0;
#X connect 11 0 3 0;
#X connect 12 0 4 0;
#X connect 13 0 5 0;
#X connect 14 0 6 0;
#X connect 15 0 7 0;
#X connect 17 0 16 0;
