#N canvas 338 23 1091 564 10;
#X obj 100 230 inlet~;
#X obj 209 230 inlet~;
#X obj 313 230 inlet~;
#X obj 422 230 inlet~;
#X obj 532 230 inlet~;
#X obj 641 230 inlet~;
#X obj 745 230 inlet~;
#X obj 854 230 inlet~;
#X obj 100 257 throw~ main_ch_1;
#X obj 209 257 throw~ main_ch_2;
#X obj 313 257 throw~ main_ch_3;
#X obj 422 257 throw~ main_ch_4;
#X obj 532 257 throw~ main_ch_5;
#X obj 641 257 throw~ main_ch_6;
#X obj 745 257 throw~ main_ch_7;
#X obj 854 257 throw~ main_ch_8;
#X obj 960 229 inlet~;
#X obj 960 256 throw~ main_ch_9;
#X connect 0 0 8 0;
#X connect 1 0 9 0;
#X connect 2 0 10 0;
#X connect 3 0 11 0;
#X connect 4 0 12 0;
#X connect 5 0 13 0;
#X connect 6 0 14 0;
#X connect 7 0 15 0;
#X connect 16 0 17 0;
