#N canvas 0 22 618 329 10;
#X obj 51 251 outlet~;
#X obj 100 251 outlet~;
#X obj 149 251 outlet~;
#X obj 198 251 outlet~;
#X obj 247 251 outlet~;
#X obj 296 251 outlet~;
#X obj 345 251 outlet~;
#X obj 394 251 outlet~;
#X obj 443 252 outlet~;
#X obj 63 83 inlet~;
#X obj 112 83 inlet~;
#X obj 161 83 inlet~;
#X obj 210 83 inlet~;
#X obj 259 83 inlet~;
#X obj 308 83 inlet~;
#X obj 357 83 inlet~;
#X obj 406 83 inlet~;
#X obj 455 84 inlet~;
#X obj 96 126 rev3~ 100 90 3000 20;
#X obj 109 148 rev3~ 100 90 3000 20;
#X obj 134 170 rev3~ 100 90 3000 20;
#X obj 147 192 rev3~ 100 90 3000 20;
#X obj 225 125 rev3~ 100 90 3000 20;
#X obj 238 147 rev3~ 100 90 3000 20;
#X obj 263 169 rev3~ 100 90 3000 20;
#X obj 276 191 rev3~ 100 90 3000 20;
#X obj 285 213 rev3~ 100 90 3000 20;
#X connect 9 0 18 0;
#X connect 10 0 19 0;
#X connect 11 0 20 0;
#X connect 12 0 21 0;
#X connect 13 0 22 0;
#X connect 14 0 23 0;
#X connect 15 0 24 0;
#X connect 16 0 25 0;
#X connect 17 0 26 0;
#X connect 18 0 0 0;
#X connect 19 0 1 0;
#X connect 20 0 2 0;
#X connect 21 0 3 0;
#X connect 22 0 4 0;
#X connect 23 0 5 0;
#X connect 24 0 6 0;
#X connect 25 0 7 0;
#X connect 26 0 8 0;
