#N canvas 0 22 1091 564 10;
#X obj 100 257 channel_limiter~;
#X obj 100 230 inlet~;
#X obj 100 282 outlet~;
#X obj 209 257 channel_limiter~;
#X obj 209 230 inlet~;
#X obj 209 282 outlet~;
#X obj 313 257 channel_limiter~;
#X obj 313 230 inlet~;
#X obj 313 282 outlet~;
#X obj 422 257 channel_limiter~;
#X obj 422 230 inlet~;
#X obj 422 282 outlet~;
#X obj 532 257 channel_limiter~;
#X obj 532 230 inlet~;
#X obj 532 282 outlet~;
#X obj 641 257 channel_limiter~;
#X obj 641 230 inlet~;
#X obj 641 282 outlet~;
#X obj 745 257 channel_limiter~;
#X obj 745 230 inlet~;
#X obj 745 282 outlet~;
#X obj 854 257 channel_limiter~;
#X obj 854 230 inlet~;
#X obj 854 282 outlet~;
#X obj 959 256 channel_limiter~;
#X obj 959 229 inlet~;
#X obj 959 281 outlet~;
#X connect 0 0 2 0;
#X connect 1 0 0 0;
#X connect 3 0 5 0;
#X connect 4 0 3 0;
#X connect 6 0 8 0;
#X connect 7 0 6 0;
#X connect 9 0 11 0;
#X connect 10 0 9 0;
#X connect 12 0 14 0;
#X connect 13 0 12 0;
#X connect 15 0 17 0;
#X connect 16 0 15 0;
#X connect 18 0 20 0;
#X connect 19 0 18 0;
#X connect 21 0 23 0;
#X connect 22 0 21 0;
#X connect 24 0 26 0;
#X connect 25 0 24 0;
