#N canvas 0 22 799 724 10;
#N canvas 715 226 450 300 body 0;
#X obj 150 39 inlet~;
#X obj 162 212 outlet~;
#X obj 73 141 bp~ 60 10;
#X obj 165 115 bp~ 100 10;
#X obj 270 125 bp~ 160 10;
#X obj 244 34 inlet;
#X obj 282 34 inlet;
#X obj 320 34 inlet;
#X connect 0 0 2 0;
#X connect 0 0 3 0;
#X connect 0 0 4 0;
#X connect 2 0 1 0;
#X connect 3 0 1 0;
#X connect 4 0 1 0;
#X connect 5 0 2 1;
#X connect 6 0 3 1;
#X connect 7 0 4 1;
#X restore 252 580 pd body filter;
#X obj 277 519 mtof;
#X obj 311 519 mtof;
#X obj 344 519 mtof;
#X obj 342 549 nozip-ctrl;
#X obj 272 550 nozip-ctrl;
#X obj 411 550 nozip-ctrl;
#X obj 283 438 loadbang;
#X obj 230 639 outlet~;
#X obj 228 376 inlet~;
#X obj 278 485 f \$1;
#X obj 309 485 f \$2;
#X obj 341 485 f \$3;
#X connect 0 0 8 0;
#X connect 1 0 5 0;
#X connect 2 0 4 0;
#X connect 3 0 6 0;
#X connect 4 0 0 2;
#X connect 5 0 0 1;
#X connect 6 0 0 3;
#X connect 7 0 10 0;
#X connect 7 0 11 0;
#X connect 7 0 12 0;
#X connect 9 0 0 0;
#X connect 10 0 1 0;
#X connect 11 0 2 0;
#X connect 12 0 3 0;
