#N canvas -4 439 500 556 10;
#X obj 119 77 hsl 128 15 0 127 0 0 empty empty empty -2 -8 0 10 -262144
-1 -1 5500 1;
#X floatatom 116 98 5 0 0 0 - - -, f 5;
#X obj 116 120 / 127;
#X floatatom 117 321 5 0 0 0 - - -, f 5;
#X obj 116 240 + 1;
#X obj 117 299 * 127;
#X floatatom 141 172 5 0 0 0 - - -, f 5;
#X obj 116 193 cos;
#X obj 116 215 * -1;
#X floatatom 149 266 5 0 0 0 - - -, f 5;
#X obj 116 146 * 1.57;
#X text 150 213 invert;
#X text 163 146 multiply by 1/2 pi cause we only want half the cycle
;
#X obj 116 47 inlet;
#X obj 117 349 outlet;
#X connect 0 0 1 0;
#X connect 1 0 2 0;
#X connect 2 0 10 0;
#X connect 3 0 14 0;
#X connect 4 0 9 0;
#X connect 4 0 5 0;
#X connect 5 0 3 0;
#X connect 7 0 8 0;
#X connect 8 0 4 0;
#X connect 10 0 6 0;
#X connect 10 0 7 0;
#X connect 13 0 0 0;
