#N canvas 167 66 973 422 10;
#N canvas 0 22 792 605 turn_on_all_lights 0;
#X obj 246 211 f;
#X obj 289 211 + 1;
#X floatatom 246 348 5 0 0 0 - - -, f 5;
#X obj 214 150 tgl 15 0 empty empty empty 17 7 0 10 -262144 -1 -1 0
1;
#X obj 240 88 bng 15 250 50 0 empty empty empty 17 7 0 10 -262144 -1
-1;
#X obj 240 108 t b b;
#X msg 304 163 1;
#X msg 269 268 0;
#X msg 240 131 1;
#X obj 247 407 outlet;
#X obj 229 40 inlet;
#X text 359 16 sets all dmx channels to 0;
#X msg 247 368 \$1 255;
#X obj 240 172 metro 10;
#X obj 268 242 sel \$1;
#X text 360 68 gets a bang and sends out ctrl 0 messages through all
\$1 channels;
#X obj 400 49 inlet;
#X obj 247 321 mod \$1;
#X connect 0 0 1 0;
#X connect 0 0 17 0;
#X connect 1 0 0 1;
#X connect 2 0 12 0;
#X connect 3 0 13 0;
#X connect 4 0 5 0;
#X connect 5 0 8 0;
#X connect 5 1 6 0;
#X connect 6 0 1 1;
#X connect 7 0 3 0;
#X connect 8 0 3 0;
#X connect 10 0 4 0;
#X connect 12 0 9 0;
#X connect 13 0 0 0;
#X connect 14 0 7 0;
#X connect 16 0 14 1;
#X connect 16 0 17 1;
#X connect 17 0 2 0;
#X connect 17 0 14 0;
#X restore 130 64 pd turn_on_all_lights;
#X obj 114 119 bng 30 250 50 0 15 empty all_on 35 15 0 10 -257985 -1
-1;
#N canvas 589 104 792 605 turn_off_all_lights 0;
#X obj 246 211 f;
#X obj 289 211 + 1;
#X floatatom 246 348 5 0 0 0 - - -, f 5;
#X obj 214 150 tgl 15 0 empty empty empty 17 7 0 10 -262144 -1 -1 0
1;
#X obj 240 88 bng 15 250 50 0 empty empty empty 17 7 0 10 -262144 -1
-1;
#X obj 240 108 t b b;
#X msg 304 163 1;
#X msg 269 268 0;
#X msg 240 131 1;
#X obj 247 407 outlet;
#X obj 229 40 inlet;
#X text 359 16 sets all dmx channels to 0;
#X text 358 114 properly formated for ctlout;
#X msg 247 368 \$1 0;
#X obj 240 172 metro 10;
#X obj 317 42 inlet;
#X text 360 68 gets a bang and sends out ctrl 0 messages through all
\$1 channels;
#X obj 268 242 sel \$1;
#X obj 247 321 mod \$1;
#X connect 0 0 1 0;
#X connect 0 0 18 0;
#X connect 1 0 0 1;
#X connect 2 0 13 0;
#X connect 3 0 14 0;
#X connect 4 0 5 0;
#X connect 5 0 8 0;
#X connect 5 1 6 0;
#X connect 6 0 1 1;
#X connect 7 0 3 0;
#X connect 8 0 3 0;
#X connect 10 0 4 0;
#X connect 13 0 9 0;
#X connect 14 0 0 0;
#X connect 15 0 17 1;
#X connect 15 0 18 1;
#X connect 17 0 7 0;
#X connect 18 0 2 0;
#X connect 18 0 17 0;
#X restore -42 223 pd turn_off_all_lights;
#X obj 113 165 bng 30 250 50 0 empty empty all_off 35 15 0 10 -99865
-1 -1;
#X msg -31 51 \$2 \$1;
#X obj -31 77 tabwrite \$0-lights;
#X floatatom -44 -52 5 0 0 0 - - -, f 5;
#X msg -44 -30 all \$1;
#X obj 627 264 u_tabdump \$0-lights;
#X obj 8 -100 inlet;
#X obj 627 336 uDMX;
#X text 691 237 framerate;
#X msg 661 313 0;
#X obj 661 291 loadbang;
#X obj 255 109 tgl 30 0 empty empty draw_frames -30 40 0 10 -260097
-1 -1 1 1;
#X text 599 368 requires uDMX external;
#X obj 8 -70 unpack f f;
#X obj 66 -36 * 1;
#X obj 18 -11 pack f f;
#X obj 205 181 vsl 25 110 0 1 0 0 empty empty max_brightness 0 -9 0
10 -260097 -1 -1 10900 1;
#X obj 270 47 loadbang;
#X msg 270 72 1;
#X text 133 24 512 smoothing instances;
#X obj 162 -8 table \$0-lights \$1;
#X text 277 -89 fills a table with \$1 values for reading back full
DMX frames;
#X obj 115 -93 loadbang;
#X obj 115 -66 f \$1;
#X msg 175 -94 bang;
#X obj -31 23 clone \$1 DMX_smoother;
#X obj 627 238 metro 50;
#X connect 0 0 28 0;
#X connect 1 0 0 0;
#X connect 2 0 28 0;
#X connect 3 0 2 0;
#X connect 4 0 5 0;
#X connect 6 0 7 0;
#X connect 7 0 28 0;
#X connect 8 0 10 0;
#X connect 9 0 16 0;
#X connect 12 0 10 1;
#X connect 13 0 12 0;
#X connect 14 0 29 0;
#X connect 16 0 18 0;
#X connect 16 1 17 0;
#X connect 17 0 18 1;
#X connect 18 0 28 0;
#X connect 19 0 17 1;
#X connect 20 0 21 0;
#X connect 21 0 19 0;
#X connect 25 0 26 0;
#X connect 26 0 5 1;
#X connect 26 0 0 1;
#X connect 27 0 26 0;
#X connect 28 0 4 0;
#X connect 29 0 8 0;
#X coords 0 -1 1 1 200 200 1 100 100;
