#N canvas 0 22 450 300 10;
#X obj 147 170 pluck;
#X obj 143 236 dac~ 1;
#X text 187 236 for testing all audio;
#X obj 147 199 *~ 0.8;
#X obj 150 57 notein;
#X obj 149 91 pack f f;
#X msg 147 123 \$1 \$2;
#X connect 0 0 3 0;
#X connect 3 0 1 0;
#X connect 4 0 5 0;
#X connect 4 1 5 1;
#X connect 5 0 6 0;
#X connect 6 0 0 0;
