#N canvas 207 87 1565 938 10;
#X obj 10 510 inlet;
#X obj 130 510 r \$0-read;
#X obj 130 540 faust-control \$0;
#X obj 130 570 s \$0-write;
#X obj 10 570 r \$0-in;
#X obj 10 600 Flute~;
#X obj 10 630 s \$0-out;
#X obj 70 660 outlet~;
#X obj 130 660 outlet~;
#X obj 10 660 outlet;
#X obj 10 30 nbx 5 14 20 20000 0 0 \$0-Flute/Basic-Parameters/freq
\$0-Flute/Basic-Parameters/freq freq 0 -6 0 10 -262144 -1 -1 65.4064
256;
#X obj 85 30 nbx 5 14 0 1 0 0 \$0-Flute/Basic-Parameters/gain \$0-Flute/Basic-Parameters/gain
gain 0 -6 0 10 -262144 -1 -1 1 256;
#X obj 10 60 hsl 128 15 0 2 0 0 \$0-Flute/Envelopes-and-Vibrato/Global-Envelope-Parameters/Glob-Env-Attack
\$0-Flute/Envelopes-and-Vibrato/Global-Envelope-Parameters/Glob-Env-Attack
Glob-Env-Attack -2 -6 0 10 -262144 -1 -1 6350 1;
#X obj 160 60 nbx 5 14 0 2 0 0 \$0-Flute/Envelopes-and-Vibrato/Global-Envelope-Parameters/Glob-Env-Attack
\$0-Flute/Envelopes-and-Vibrato/Global-Envelope-Parameters/Glob-Env-Attack
empty 0 -6 0 10 -262144 -1 -1 1 256;
#X obj 10 90 hsl 128 15 0 2 0 0 \$0-Flute/Envelopes-and-Vibrato/Global-Envelope-Parameters/Glob-Env-Release
\$0-Flute/Envelopes-and-Vibrato/Global-Envelope-Parameters/Glob-Env-Release
Glob-Env-Release -2 -6 0 10 -262144 -1 -1 12700 1;
#X obj 160 90 nbx 5 14 0 2 0 0 \$0-Flute/Envelopes-and-Vibrato/Global-Envelope-Parameters/Glob-Env-Release
\$0-Flute/Envelopes-and-Vibrato/Global-Envelope-Parameters/Glob-Env-Release
empty 0 -6 0 10 -262144 -1 -1 2 256;
#X obj 235 60 hsl 128 15 0 2 0 0 \$0-Flute/Envelopes-and-Vibrato/Pressure-Envelope-Parameters/Press-Env-Attack
\$0-Flute/Envelopes-and-Vibrato/Pressure-Envelope-Parameters/Press-Env-Attack
Press-Env-Attack -2 -6 0 10 -262144 -1 -1 5715 1;
#X obj 385 60 nbx 5 14 0 2 0 0 \$0-Flute/Envelopes-and-Vibrato/Pressure-Envelope-Parameters/Press-Env-Attack
\$0-Flute/Envelopes-and-Vibrato/Pressure-Envelope-Parameters/Press-Env-Attack
empty 0 -6 0 10 -262144 -1 -1 0.9 256;
#X obj 235 90 hsl 128 15 0 2 0 0 \$0-Flute/Envelopes-and-Vibrato/Pressure-Envelope-Parameters/Press-Env-Decay
\$0-Flute/Envelopes-and-Vibrato/Pressure-Envelope-Parameters/Press-Env-Decay
Press-Env-Decay -2 -6 0 10 -262144 -1 -1 1270 1;
#X obj 385 90 nbx 5 14 0 2 0 0 \$0-Flute/Envelopes-and-Vibrato/Pressure-Envelope-Parameters/Press-Env-Decay
\$0-Flute/Envelopes-and-Vibrato/Pressure-Envelope-Parameters/Press-Env-Decay
empty 0 -6 0 10 -262144 -1 -1 0.2 256;
#X obj 235 120 hsl 128 15 0 2 0 0 \$0-Flute/Envelopes-and-Vibrato/Pressure-Envelope-Parameters/Press-Env-Release
\$0-Flute/Envelopes-and-Vibrato/Pressure-Envelope-Parameters/Press-Env-Release
Press-Env-Release -2 -6 0 10 -262144 -1 -1 6350 1;
#X obj 385 120 nbx 5 14 0 2 0 0 \$0-Flute/Envelopes-and-Vibrato/Pressure-Envelope-Parameters/Press-Env-Release
\$0-Flute/Envelopes-and-Vibrato/Pressure-Envelope-Parameters/Press-Env-Release
empty 0 -6 0 10 -262144 -1 -1 1 256;
#X obj 235 150 tgl 15 0 \$0-Flute/Envelopes-and-Vibrato/Pressure-Envelope-Parameters/Pressure-Env
\$0-Flute/Envelopes-and-Vibrato/Pressure-Envelope-Parameters/Pressure-Env
Pressure-Env 0 -6 0 10 -262144 -1 -1 1 1;
#X obj 460 60 hsl 128 15 0 2 0 0 \$0-Flute/Envelopes-and-Vibrato/Vibrato-Parameters/Vibrato-Attack
\$0-Flute/Envelopes-and-Vibrato/Vibrato-Parameters/Vibrato-Attack Vibrato-Attack
-2 -6 0 10 -262144 -1 -1 10160 1;
#X obj 610 60 nbx 5 14 0 2 0 0 \$0-Flute/Envelopes-and-Vibrato/Vibrato-Parameters/Vibrato-Attack
\$0-Flute/Envelopes-and-Vibrato/Vibrato-Parameters/Vibrato-Attack empty
0 -6 0 10 -262144 -1 -1 1.6 256;
#X obj 460 90 hsl 128 15 0 2 0 0 \$0-Flute/Envelopes-and-Vibrato/Vibrato-Parameters/Vibrato-Begin
\$0-Flute/Envelopes-and-Vibrato/Vibrato-Parameters/Vibrato-Begin Vibrato-Begin
-2 -6 0 10 -262144 -1 -1 12700 1;
#X obj 610 90 nbx 5 14 0 2 0 0 \$0-Flute/Envelopes-and-Vibrato/Vibrato-Parameters/Vibrato-Begin
\$0-Flute/Envelopes-and-Vibrato/Vibrato-Parameters/Vibrato-Begin empty
0 -6 0 10 -262144 -1 -1 2 256;
#X obj 460 120 hsl 128 15 1 15 0 0 \$0-Flute/Envelopes-and-Vibrato/Vibrato-Parameters/Vibrato-Freq
\$0-Flute/Envelopes-and-Vibrato/Vibrato-Parameters/Vibrato-Freq Vibrato-Freq
-2 -6 0 10 -262144 -1 -1 0 1;
#X obj 610 120 nbx 5 14 1 15 0 0 \$0-Flute/Envelopes-and-Vibrato/Vibrato-Parameters/Vibrato-Freq
\$0-Flute/Envelopes-and-Vibrato/Vibrato-Parameters/Vibrato-Freq empty
0 -6 0 10 -262144 -1 -1 1 256;
#X obj 460 150 hsl 128 15 0 1 0 0 \$0-Flute/Envelopes-and-Vibrato/Vibrato-Parameters/Vibrato-Gain
\$0-Flute/Envelopes-and-Vibrato/Vibrato-Parameters/Vibrato-Gain Vibrato-Gain
-2 -6 0 10 -262144 -1 -1 292 1;
#X obj 610 150 nbx 5 14 0 1 0 0 \$0-Flute/Envelopes-and-Vibrato/Vibrato-Parameters/Vibrato-Gain
\$0-Flute/Envelopes-and-Vibrato/Vibrato-Parameters/Vibrato-Gain empty
0 -6 0 10 -262144 -1 -1 0.023 256;
#X obj 460 180 hsl 128 15 0 2 0 0 \$0-Flute/Envelopes-and-Vibrato/Vibrato-Parameters/Vibrato-Release
\$0-Flute/Envelopes-and-Vibrato/Vibrato-Parameters/Vibrato-Release
Vibrato-Release -2 -6 0 10 -262144 -1 -1 4769 1;
#X obj 610 180 nbx 5 14 0 2 0 0 \$0-Flute/Envelopes-and-Vibrato/Vibrato-Parameters/Vibrato-Release
\$0-Flute/Envelopes-and-Vibrato/Vibrato-Parameters/Vibrato-Release
empty 0 -6 0 10 -262144 -1 -1 0.751 256;
#X obj 10 210 hsl 128 15 20 1000 0 0 \$0-Flute/Physical-and-Nonlinearity/Nonlinear-Filter-Parameters/Modulation-Frequ
\$0-Flute/Physical-and-Nonlinearity/Nonlinear-Filter-Parameters/Modulation-Frequ
Modulation-Frequency -2 -6 0 10 -262144 -1 -1 0 1;
#X obj 160 210 nbx 5 14 20 1000 0 0 \$0-Flute/Physical-and-Nonlinearity/Nonlinear-Filter-Parameters/Modulation-Frequ
\$0-Flute/Physical-and-Nonlinearity/Nonlinear-Filter-Parameters/Modulation-Frequ
empty 0 -6 0 10 -262144 -1 -1 20 256;
#X obj 10 240 nbx 5 14 0 4 0 0 \$0-Flute/Physical-and-Nonlinearity/Nonlinear-Filter-Parameters/Modulation-Type
\$0-Flute/Physical-and-Nonlinearity/Nonlinear-Filter-Parameters/Modulation-Type
Modulation-Type 0 -6 0 10 -262144 -1 -1 0 256;
#X obj 10 270 hsl 128 15 0 1 0 0 \$0-Flute/Physical-and-Nonlinearity/Nonlinear-Filter-Parameters/Nonlinearity
\$0-Flute/Physical-and-Nonlinearity/Nonlinear-Filter-Parameters/Nonlinearity
Nonlinearity -2 -6 0 10 -262144 -1 -1 889 1;
#X obj 160 270 nbx 5 14 0 1 0 0 \$0-Flute/Physical-and-Nonlinearity/Nonlinear-Filter-Parameters/Nonlinearity
\$0-Flute/Physical-and-Nonlinearity/Nonlinear-Filter-Parameters/Nonlinearity
empty 0 -6 0 10 -262144 -1 -1 0.07 256;
#X obj 10 300 hsl 128 15 0 2 0 0 \$0-Flute/Physical-and-Nonlinearity/Nonlinear-Filter-Parameters/Nonlinearity-Att
\$0-Flute/Physical-and-Nonlinearity/Nonlinear-Filter-Parameters/Nonlinearity-Att
Nonlinearity-Attack -2 -6 0 10 -262144 -1 -1 0 1;
#X obj 160 300 nbx 5 14 0 2 0 0 \$0-Flute/Physical-and-Nonlinearity/Nonlinear-Filter-Parameters/Nonlinearity-Att
\$0-Flute/Physical-and-Nonlinearity/Nonlinear-Filter-Parameters/Nonlinearity-Att
empty 0 -6 0 10 -262144 -1 -1 0 256;
#X obj 235 210 hsl 128 15 0 1 0 0 \$0-Flute/Physical-and-Nonlinearity/Physical-Parameters/Noise-Gain
\$0-Flute/Physical-and-Nonlinearity/Physical-Parameters/Noise-Gain
Noise-Gain -2 -6 0 10 -262144 -1 -1 5188 1;
#X obj 385 210 nbx 5 14 0 1 0 0 \$0-Flute/Physical-and-Nonlinearity/Physical-Parameters/Noise-Gain
\$0-Flute/Physical-and-Nonlinearity/Physical-Parameters/Noise-Gain
empty 0 -6 0 10 -262144 -1 -1 0.408504 256;
#X obj 235 240 hsl 128 15 0 1.5 0 0 \$0-Flute/Physical-and-Nonlinearity/Physical-Parameters/Pressure
\$0-Flute/Physical-and-Nonlinearity/Physical-Parameters/Pressure Pressure
-2 -6 0 10 -262144 -1 -1 6338 1;
#X obj 385 240 nbx 5 14 0 1.5 0 0 \$0-Flute/Physical-and-Nonlinearity/Physical-Parameters/Pressure
\$0-Flute/Physical-and-Nonlinearity/Physical-Parameters/Pressure empty
0 -6 0 10 -262144 -1 -1 0.748583 256;
#X obj 10 330 hsl 128 15 0 1 0 0 \$0-Flute/Reverb/reverbGain \$0-Flute/Reverb/reverbGain
reverbGain -2 -6 0 10 -262144 -1 -1 1892 1;
#X obj 160 330 nbx 5 14 0 1 0 0 \$0-Flute/Reverb/reverbGain \$0-Flute/Reverb/reverbGain
empty 0 -6 0 10 -262144 -1 -1 0.149 256;
#X obj 10 360 hsl 128 15 0.01 2 0 0 \$0-Flute/Reverb/roomSize \$0-Flute/Reverb/roomSize
roomSize -2 -6 0 10 -262144 -1 -1 8928 1;
#X obj 160 360 nbx 5 14 0.01 2 0 0 \$0-Flute/Reverb/roomSize \$0-Flute/Reverb/roomSize
empty 0 -6 0 10 -262144 -1 -1 1.409 256;
#X obj 10 390 hsl 128 15 0 1 0 0 \$0-Flute/Spat/pan-angle \$0-Flute/Spat/pan-angle
pan-angle -2 -6 0 10 -262144 -1 -1 597 1;
#X obj 160 390 nbx 5 14 0 1 0 0 \$0-Flute/Spat/pan-angle \$0-Flute/Spat/pan-angle
empty 0 -6 0 10 -262144 -1 -1 0.047 256;
#X obj 10 420 hsl 128 15 0 1 0 0 \$0-Flute/Spat/spatial-width \$0-Flute/Spat/spatial-width
spatial-width -2 -6 0 10 -262144 -1 -1 8941 1;
#X obj 160 420 nbx 5 14 0 1 0 0 \$0-Flute/Spat/spatial-width \$0-Flute/Spat/spatial-width
empty 0 -6 0 10 -262144 -1 -1 0.704 256;
#X obj 647 3 bng 15 250 50 1 \$0-init \$0-ignore empty 0 -6 0 10 -262144
-1 -1;
#X obj 667 3 tgl 15 1 \$0-active \$0-active empty 0 -6 0 10 -262144
-1 -1 1 1;
#X obj 715 10 r \$0-init;
#X obj 1419 10 s \$0-in;
#X obj 1771 10 s \$0-read;
#X obj 2123 10 r \$0-write;
#X msg 715 30 1;
#X obj 715 50 s \$0-active;
#X obj 1419 30 r \$0-active;
#X msg 1419 50 active \$1;
#X obj 2123 30 route active;
#X obj 2123 50 s \$0-active;
#X msg 715 70 440;
#X obj 715 90 s \$0-Flute/Basic-Parameters/freq;
#X obj 1419 70 r \$0-Flute/Basic-Parameters/freq;
#X msg 1419 90 /Flute/Basic-Parameters/freq \$1;
#X obj 2123 70 route /Flute/Basic-Parameters/freq;
#X obj 2123 90 s \$0-Flute/Basic-Parameters/freq;
#X msg 715 110 1;
#X obj 751 141 s \$0-Flute/Basic-Parameters/gain;
#X obj 1469 112 r \$0-Flute/Basic-Parameters/gain;
#X msg 1456 132 /Flute/Basic-Parameters/gain \$1;
#X obj 2123 110 route /Flute/Basic-Parameters/gain;
#X obj 2123 130 s \$0-Flute/Basic-Parameters/gain;
#X obj 1883 186 route /Flute/Basic-Parameters/gate;
#X obj 760 205 s \$0-Flute/Envelopes-and-Vibrato/Global-Envelope-Parameters/Glob-Env-Attack
;
#X obj 1422 151 r \$0-Flute/Envelopes-and-Vibrato/Global-Envelope-Parameters/Glob-Env-Attack
;
#X msg 1419 210 /Flute/Envelopes-and-Vibrato/Global-Envelope-Parameters/Glob-Env-Attack
\$1;
#X obj 2120 155 route /Flute/Envelopes-and-Vibrato/Global-Envelope-Parameters/Glob-Env-Attack
;
#X obj 2140 212 s \$0-Flute/Envelopes-and-Vibrato/Global-Envelope-Parameters/Glob-Env-Attack
;
#X obj 782 257 s \$0-Flute/Envelopes-and-Vibrato/Global-Envelope-Parameters/Glob-Env-Release
;
#X obj 1419 230 r \$0-Flute/Envelopes-and-Vibrato/Global-Envelope-Parameters/Glob-Env-Release
;
#X msg 1419 250 /Flute/Envelopes-and-Vibrato/Global-Envelope-Parameters/Glob-Env-Release
\$1;
#X obj 1862 283 route /Flute/Envelopes-and-Vibrato/Global-Envelope-Parameters/Glob-Env-Release
;
#X obj 1832 386 s \$0-Flute/Envelopes-and-Vibrato/Global-Envelope-Parameters/Glob-Env-Release
;
#X obj 815 302 s \$0-Flute/Envelopes-and-Vibrato/Pressure-Envelope-Parameters/Press-Env-Attack
;
#X obj 1419 270 r \$0-Flute/Envelopes-and-Vibrato/Pressure-Envelope-Parameters/Press-Env-Attack
;
#X msg 1419 290 /Flute/Envelopes-and-Vibrato/Pressure-Envelope-Parameters/Press-Env-Attack
\$1;
#X obj 2229 257 route /Flute/Envelopes-and-Vibrato/Pressure-Envelope-Parameters/Press-Env-Attack
;
#X obj 2123 290 s \$0-Flute/Envelopes-and-Vibrato/Pressure-Envelope-Parameters/Press-Env-Attack
;
#X msg 715 310 0.2;
#X obj 787 340 s \$0-Flute/Envelopes-and-Vibrato/Pressure-Envelope-Parameters/Press-Env-Decay
;
#X obj 1419 310 r \$0-Flute/Envelopes-and-Vibrato/Pressure-Envelope-Parameters/Press-Env-Decay
;
#X msg 1419 330 /Flute/Envelopes-and-Vibrato/Pressure-Envelope-Parameters/Press-Env-Decay
\$1;
#X obj 2123 310 route /Flute/Envelopes-and-Vibrato/Pressure-Envelope-Parameters/Press-Env-Decay
;
#X obj 2123 330 s \$0-Flute/Envelopes-and-Vibrato/Pressure-Envelope-Parameters/Press-Env-Decay
;
#X msg 715 350 1;
#X obj 796 376 s \$0-Flute/Envelopes-and-Vibrato/Pressure-Envelope-Parameters/Press-Env-Release
;
#X obj 1419 350 r \$0-Flute/Envelopes-and-Vibrato/Pressure-Envelope-Parameters/Press-Env-Release
;
#X msg 1419 370 /Flute/Envelopes-and-Vibrato/Pressure-Envelope-Parameters/Press-Env-Release
\$1;
#X obj 2123 350 route /Flute/Envelopes-and-Vibrato/Pressure-Envelope-Parameters/Press-Env-Release
;
#X obj 2123 370 s \$0-Flute/Envelopes-and-Vibrato/Pressure-Envelope-Parameters/Press-Env-Release
;
#X obj 847 416 s \$0-Flute/Envelopes-and-Vibrato/Pressure-Envelope-Parameters/Pressure-Env
;
#X obj 1419 390 r \$0-Flute/Envelopes-and-Vibrato/Pressure-Envelope-Parameters/Pressure-Env
;
#X msg 1419 410 /Flute/Envelopes-and-Vibrato/Pressure-Envelope-Parameters/Pressure-Env
\$1;
#X obj 2123 390 route /Flute/Envelopes-and-Vibrato/Pressure-Envelope-Parameters/Pressure-Env
;
#X obj 2123 410 s \$0-Flute/Envelopes-and-Vibrato/Pressure-Envelope-Parameters/Pressure-Env
;
#X obj 742 450 s \$0-Flute/Envelopes-and-Vibrato/Vibrato-Parameters/Vibrato-Attack
;
#X obj 1419 430 r \$0-Flute/Envelopes-and-Vibrato/Vibrato-Parameters/Vibrato-Attack
;
#X msg 1419 450 /Flute/Envelopes-and-Vibrato/Vibrato-Parameters/Vibrato-Attack
\$1;
#X obj 2123 430 route /Flute/Envelopes-and-Vibrato/Vibrato-Parameters/Vibrato-Attack
;
#X obj 2123 450 s \$0-Flute/Envelopes-and-Vibrato/Vibrato-Parameters/Vibrato-Attack
;
#X obj 784 483 s \$0-Flute/Envelopes-and-Vibrato/Vibrato-Parameters/Vibrato-Begin
;
#X obj 1419 470 r \$0-Flute/Envelopes-and-Vibrato/Vibrato-Parameters/Vibrato-Begin
;
#X msg 1419 490 /Flute/Envelopes-and-Vibrato/Vibrato-Parameters/Vibrato-Begin
\$1;
#X obj 2123 470 route /Flute/Envelopes-and-Vibrato/Vibrato-Parameters/Vibrato-Begin
;
#X obj 2123 490 s \$0-Flute/Envelopes-and-Vibrato/Vibrato-Parameters/Vibrato-Begin
;
#X obj 776 524 s \$0-Flute/Envelopes-and-Vibrato/Vibrato-Parameters/Vibrato-Freq
;
#X obj 1419 510 r \$0-Flute/Envelopes-and-Vibrato/Vibrato-Parameters/Vibrato-Freq
;
#X msg 1419 530 /Flute/Envelopes-and-Vibrato/Vibrato-Parameters/Vibrato-Freq
\$1;
#X obj 2123 510 route /Flute/Envelopes-and-Vibrato/Vibrato-Parameters/Vibrato-Freq
;
#X obj 2123 530 s \$0-Flute/Envelopes-and-Vibrato/Vibrato-Parameters/Vibrato-Freq
;
#X obj 768 564 s \$0-Flute/Envelopes-and-Vibrato/Vibrato-Parameters/Vibrato-Gain
;
#X obj 1426 537 r \$0-Flute/Envelopes-and-Vibrato/Vibrato-Parameters/Vibrato-Gain
;
#X msg 1419 570 /Flute/Envelopes-and-Vibrato/Vibrato-Parameters/Vibrato-Gain
\$1;
#X obj 2123 550 route /Flute/Envelopes-and-Vibrato/Vibrato-Parameters/Vibrato-Gain
;
#X obj 2123 570 s \$0-Flute/Envelopes-and-Vibrato/Vibrato-Parameters/Vibrato-Gain
;
#X obj 758 612 s \$0-Flute/Envelopes-and-Vibrato/Vibrato-Parameters/Vibrato-Release
;
#X obj 1419 590 r \$0-Flute/Envelopes-and-Vibrato/Vibrato-Parameters/Vibrato-Release
;
#X msg 1419 610 /Flute/Envelopes-and-Vibrato/Vibrato-Parameters/Vibrato-Release
\$1;
#X obj 2123 590 route /Flute/Envelopes-and-Vibrato/Vibrato-Parameters/Vibrato-Release
;
#X obj 2123 610 s \$0-Flute/Envelopes-and-Vibrato/Vibrato-Parameters/Vibrato-Release
;
#X msg 715 630 220;
#X obj 768 651 s \$0-Flute/Physical-and-Nonlinearity/Nonlinear-Filter-Parameters/Modulation-Frequency
;
#X obj 1419 630 r \$0-Flute/Physical-and-Nonlinearity/Nonlinear-Filter-Parameters/Modulation-Frequency
;
#X msg 1419 650 /Flute/Physical-and-Nonlinearity/Nonlinear-Filter-Parameters/Modulation-Frequency
\$1;
#X obj 2123 630 route /Flute/Physical-and-Nonlinearity/Nonlinear-Filter-Parameters/Modulation-Frequency
;
#X obj 2123 650 s \$0-Flute/Physical-and-Nonlinearity/Nonlinear-Filter-Parameters/Modulation-Frequency
;
#X msg 715 670 0;
#X obj 759 688 s \$0-Flute/Physical-and-Nonlinearity/Nonlinear-Filter-Parameters/Modulation-Type
;
#X obj 1419 670 r \$0-Flute/Physical-and-Nonlinearity/Nonlinear-Filter-Parameters/Modulation-Type
;
#X msg 1419 690 /Flute/Physical-and-Nonlinearity/Nonlinear-Filter-Parameters/Modulation-Type
\$1;
#X obj 2123 670 route /Flute/Physical-and-Nonlinearity/Nonlinear-Filter-Parameters/Modulation-Type
;
#X obj 2123 690 s \$0-Flute/Physical-and-Nonlinearity/Nonlinear-Filter-Parameters/Modulation-Type
;
#X obj 756 732 s \$0-Flute/Physical-and-Nonlinearity/Nonlinear-Filter-Parameters/Nonlinearity
;
#X obj 1419 710 r \$0-Flute/Physical-and-Nonlinearity/Nonlinear-Filter-Parameters/Nonlinearity
;
#X msg 1419 730 /Flute/Physical-and-Nonlinearity/Nonlinear-Filter-Parameters/Nonlinearity
\$1;
#X obj 2123 710 route /Flute/Physical-and-Nonlinearity/Nonlinear-Filter-Parameters/Nonlinearity
;
#X obj 2123 730 s \$0-Flute/Physical-and-Nonlinearity/Nonlinear-Filter-Parameters/Nonlinearity
;
#X obj 956 756 s \$0-Flute/Physical-and-Nonlinearity/Nonlinear-Filter-Parameters/Nonlinearity-Attack
;
#X obj 1419 750 r \$0-Flute/Physical-and-Nonlinearity/Nonlinear-Filter-Parameters/Nonlinearity-Attack
;
#X msg 1419 770 /Flute/Physical-and-Nonlinearity/Nonlinear-Filter-Parameters/Nonlinearity-Attack
\$1;
#X obj 2123 750 route /Flute/Physical-and-Nonlinearity/Nonlinear-Filter-Parameters/Nonlinearity-Attack
;
#X obj 2123 770 s \$0-Flute/Physical-and-Nonlinearity/Nonlinear-Filter-Parameters/Nonlinearity-Attack
;
#X obj 787 798 s \$0-Flute/Physical-and-Nonlinearity/Physical-Parameters/Noise-Gain
;
#X obj 1419 790 r \$0-Flute/Physical-and-Nonlinearity/Physical-Parameters/Noise-Gain
;
#X msg 1419 810 /Flute/Physical-and-Nonlinearity/Physical-Parameters/Noise-Gain
\$1;
#X obj 2123 790 route /Flute/Physical-and-Nonlinearity/Physical-Parameters/Noise-Gain
;
#X obj 2123 810 s \$0-Flute/Physical-and-Nonlinearity/Physical-Parameters/Noise-Gain
;
#X obj 783 850 s \$0-Flute/Physical-and-Nonlinearity/Physical-Parameters/Pressure
;
#X obj 1419 830 r \$0-Flute/Physical-and-Nonlinearity/Physical-Parameters/Pressure
;
#X msg 1419 850 /Flute/Physical-and-Nonlinearity/Physical-Parameters/Pressure
\$1;
#X obj 2123 830 route /Flute/Physical-and-Nonlinearity/Physical-Parameters/Pressure
;
#X obj 2123 850 s \$0-Flute/Physical-and-Nonlinearity/Physical-Parameters/Pressure
;
#X obj 715 890 s \$0-Flute/Reverb/reverbGain;
#X obj 1419 870 r \$0-Flute/Reverb/reverbGain;
#X msg 1419 890 /Flute/Reverb/reverbGain \$1;
#X obj 2123 870 route /Flute/Reverb/reverbGain;
#X obj 2123 890 s \$0-Flute/Reverb/reverbGain;
#X obj 715 930 s \$0-Flute/Reverb/roomSize;
#X obj 1419 910 r \$0-Flute/Reverb/roomSize;
#X msg 1419 930 /Flute/Reverb/roomSize \$1;
#X obj 2123 910 route /Flute/Reverb/roomSize;
#X obj 2123 930 s \$0-Flute/Reverb/roomSize;
#X obj 715 970 s \$0-Flute/Spat/pan-angle;
#X obj 1419 950 r \$0-Flute/Spat/pan-angle;
#X msg 1419 970 /Flute/Spat/pan-angle \$1;
#X obj 2123 950 route /Flute/Spat/pan-angle;
#X obj 2123 970 s \$0-Flute/Spat/pan-angle;
#X obj 715 1010 s \$0-Flute/Spat/spatial-width;
#X obj 1419 990 r \$0-Flute/Spat/spatial-width;
#X msg 1419 1010 /Flute/Spat/spatial-width \$1;
#X obj 2123 990 route /Flute/Spat/spatial-width;
#X obj 2123 1010 s \$0-Flute/Spat/spatial-width;
#X text 0 460 Generated Mon Jun 6 07:00:41 2016 by faust2pd v2.9. See
http://faust.grame.fr and http://purelang.bitbucket.org.;
#X obj 1887 224 s \$0-Flute/Basic-Parameters/gate;
#X obj 232 19 tgl 15 0 \$0-Flute/Basic-Parameters/gate \$0-Flute/Basic-Parameters/gate
gate 17 7 0 10 -262144 -1 -1 0 1;
#X obj 788 176 s \$0-Flute/Basic-Parameters/gate;
#X msg 688 148 0;
#X msg 1175 142 /Flute/Basic-Parameters/gate \$1;
#X obj 1177 95 r \$0-Flute/Basic-Parameters/gate;
#X msg 715 390 1;
#X msg 715 230 2;
#X msg 713 870 0.149;
#X msg 693 908 1.409;
#X msg 715 950 0.047;
#X msg 715 990 0.704;
#X msg 715 710 0.07;
#X msg 715 750 0.314;
#X msg 715 270 0.9;
#X msg 715 430 1.6;
#X msg 715 550 0.023;
#X msg 715 590 0.751;
#X msg 715 470 2;
#X msg 715 510 1;
#X msg 715 190 1;
#X msg 715 790 0.377;
#X msg 715 830 0.748;
#X connect 0 0 2 0;
#X connect 0 0 9 0;
#X connect 1 0 2 0;
#X connect 2 0 3 0;
#X connect 4 0 5 0;
#X connect 5 0 6 0;
#X connect 5 1 7 0;
#X connect 5 2 8 0;
#X connect 54 0 64 0;
#X connect 54 0 70 0;
#X connect 54 0 190 0;
#X connect 54 0 207 0;
#X connect 54 0 194 0;
#X connect 54 0 201 0;
#X connect 54 0 92 0;
#X connect 54 0 98 0;
#X connect 54 0 193 0;
#X connect 54 0 202 0;
#X connect 54 0 205 0;
#X connect 54 0 206 0;
#X connect 54 0 203 0;
#X connect 54 0 204 0;
#X connect 54 0 134 0;
#X connect 54 0 140 0;
#X connect 54 0 199 0;
#X connect 54 0 200 0;
#X connect 54 0 208 0;
#X connect 54 0 209 0;
#X connect 54 0 195 0;
#X connect 54 0 196 0;
#X connect 54 0 197 0;
#X connect 54 0 198 0;
#X connect 57 0 62 0;
#X connect 58 0 59 0;
#X connect 60 0 61 0;
#X connect 61 0 55 0;
#X connect 62 0 63 0;
#X connect 62 1 68 0;
#X connect 64 0 65 0;
#X connect 66 0 67 0;
#X connect 67 0 55 0;
#X connect 68 0 69 0;
#X connect 68 1 74 0;
#X connect 70 0 71 0;
#X connect 72 0 73 0;
#X connect 73 0 55 0;
#X connect 74 0 75 0;
#X connect 74 1 76 0;
#X connect 76 0 187 0;
#X connect 76 1 80 0;
#X connect 78 0 79 0;
#X connect 79 0 55 0;
#X connect 80 0 81 0;
#X connect 80 1 85 0;
#X connect 83 0 84 0;
#X connect 84 0 55 0;
#X connect 85 0 86 0;
#X connect 85 1 90 0;
#X connect 88 0 89 0;
#X connect 89 0 55 0;
#X connect 90 0 91 0;
#X connect 90 1 96 0;
#X connect 92 0 93 0;
#X connect 94 0 95 0;
#X connect 95 0 55 0;
#X connect 96 0 97 0;
#X connect 96 1 102 0;
#X connect 98 0 99 0;
#X connect 100 0 101 0;
#X connect 101 0 55 0;
#X connect 102 0 103 0;
#X connect 102 1 107 0;
#X connect 105 0 106 0;
#X connect 106 0 55 0;
#X connect 107 0 108 0;
#X connect 107 1 112 0;
#X connect 110 0 111 0;
#X connect 111 0 55 0;
#X connect 112 0 113 0;
#X connect 112 1 117 0;
#X connect 115 0 116 0;
#X connect 116 0 55 0;
#X connect 117 0 118 0;
#X connect 117 1 122 0;
#X connect 120 0 121 0;
#X connect 121 0 55 0;
#X connect 122 0 123 0;
#X connect 122 1 127 0;
#X connect 125 0 126 0;
#X connect 126 0 55 0;
#X connect 127 0 128 0;
#X connect 127 1 132 0;
#X connect 130 0 131 0;
#X connect 131 0 55 0;
#X connect 132 0 133 0;
#X connect 132 1 138 0;
#X connect 134 0 135 0;
#X connect 136 0 137 0;
#X connect 137 0 55 0;
#X connect 138 0 139 0;
#X connect 138 1 144 0;
#X connect 140 0 141 0;
#X connect 142 0 143 0;
#X connect 143 0 55 0;
#X connect 144 0 145 0;
#X connect 144 1 149 0;
#X connect 147 0 148 0;
#X connect 148 0 55 0;
#X connect 149 0 150 0;
#X connect 149 1 154 0;
#X connect 152 0 153 0;
#X connect 153 0 55 0;
#X connect 154 0 155 0;
#X connect 154 1 159 0;
#X connect 157 0 158 0;
#X connect 158 0 55 0;
#X connect 159 0 160 0;
#X connect 159 1 164 0;
#X connect 162 0 163 0;
#X connect 163 0 55 0;
#X connect 164 0 165 0;
#X connect 164 1 169 0;
#X connect 167 0 168 0;
#X connect 168 0 55 0;
#X connect 169 0 170 0;
#X connect 169 1 174 0;
#X connect 172 0 173 0;
#X connect 173 0 55 0;
#X connect 174 0 175 0;
#X connect 174 1 179 0;
#X connect 177 0 178 0;
#X connect 178 0 55 0;
#X connect 179 0 180 0;
#X connect 179 1 184 0;
#X connect 182 0 183 0;
#X connect 183 0 55 0;
#X connect 184 0 185 0;
#X connect 190 0 189 0;
#X connect 191 0 55 0;
#X connect 192 0 191 0;
#X connect 193 0 104 0;
#X connect 194 0 82 0;
#X connect 195 0 166 0;
#X connect 196 0 171 0;
#X connect 197 0 176 0;
#X connect 198 0 181 0;
#X connect 199 0 146 0;
#X connect 200 0 151 0;
#X connect 201 0 87 0;
#X connect 202 0 109 0;
#X connect 203 0 124 0;
#X connect 204 0 129 0;
#X connect 205 0 114 0;
#X connect 206 0 119 0;
#X connect 207 0 77 0;
#X connect 208 0 156 0;
#X connect 209 0 161 0;
#X coords 0 -1 1 1 685 440 1 0 0;
