#N canvas 704 86 961 504 10;
#X obj 110 98 noise~;
#X obj 110 146 *~;
#X obj 166 29 t b b;
#X obj 164 120 line 1;
#X obj 110 210 *~ 0.2;
#X obj 262 6 t b b;
#X obj 189 -31 inlet;
#X msg 189 -9 bang;
#X obj 110 246 outlet~;
#X obj 379 220 mtof;
#X obj 379 248 * 24;
#X msg 225 127 24;
#X msg 474 126 41;
#X msg 725 126 43;
#X msg 351 128 45;
#X msg 268 128 53;
#X msg 308 127 64;
#X msg 391 126 55;
#X msg 434 127 65;
#X msg 517 127 57;
#X msg 559 126 67;
#X msg 602 127 48;
#X msg 642 126 59;
#X msg 685 127 69;
#X msg 768 127 60;
#X msg 808 126 71;
#X msg 851 127 52;
#X msg 889 125 62;
#X msg 930 124 72;
#X obj 532 59 sel 0 1 2 3 4 5 6 7 8 9 10 11 12 13 14 15 16 17;
#X obj 289 52 random 18;
#X obj 110 178 bp~ 4000 \$2;
#X obj 212 56 delay 1;
#X msg 212 76 0 1;
#X msg 163 53 1 1;
#X connect 0 0 1 0;
#X connect 1 0 31 0;
#X connect 2 0 34 0;
#X connect 2 1 32 0;
#X connect 3 0 1 1;
#X connect 4 0 8 0;
#X connect 5 0 2 0;
#X connect 5 1 30 0;
#X connect 6 0 7 0;
#X connect 7 0 5 0;
#X connect 9 0 10 0;
#X connect 10 0 31 1;
#X connect 11 0 9 0;
#X connect 12 0 9 0;
#X connect 13 0 9 0;
#X connect 14 0 9 0;
#X connect 15 0 9 0;
#X connect 16 0 9 0;
#X connect 17 0 9 0;
#X connect 18 0 9 0;
#X connect 19 0 9 0;
#X connect 20 0 9 0;
#X connect 21 0 9 0;
#X connect 22 0 9 0;
#X connect 23 0 9 0;
#X connect 24 0 9 0;
#X connect 25 0 9 0;
#X connect 26 0 9 0;
#X connect 27 0 9 0;
#X connect 28 0 9 0;
#X connect 29 1 15 0;
#X connect 29 2 16 0;
#X connect 29 4 17 0;
#X connect 29 5 18 0;
#X connect 29 7 19 0;
#X connect 29 8 20 0;
#X connect 29 10 22 0;
#X connect 29 11 23 0;
#X connect 29 13 24 0;
#X connect 29 14 25 0;
#X connect 29 15 26 0;
#X connect 29 16 27 0;
#X connect 29 17 28 0;
#X connect 30 0 29 0;
#X connect 31 0 4 0;
#X connect 32 0 33 0;
#X connect 33 0 3 0;
#X connect 34 0 3 0;
