#N canvas 0 22 1396 579 10;
#X obj 142 373 *~;
#X obj 167 373 *~;
#X obj 192 373 *~;
#X obj 219 373 *~;
#X obj 245 373 *~;
#X obj 272 373 *~;
#X obj 297 373 *~;
#X obj 322 373 *~;
#X obj 188 430 dac~ 1 2 3 4 5 6 7 8 9;
#X obj 347 373 *~;
#X obj 90 121 inlet~;
#X obj 751 115 sel 0 1 2 3 4 5 6 7 8 9 10 11 12 13 14 15 16 17;
#X text 793 91 per instance audio routing;
#X obj 810 327 unpack f f f f f f f f f;
#X obj 759 404 line;
#X obj 791 404 line;
#X obj 823 404 line;
#X obj 855 404 line;
#X obj 887 403 line;
#X obj 919 403 line;
#X obj 951 403 line;
#X obj 983 403 line;
#X obj 1015 403 line;
#X msg 693 373 \$1 200;
#X msg 741 373 \$1 200;
#X msg 788 373 \$1 200;
#X msg 836 373 \$1 200;
#X msg 883 373 \$1 200;
#X msg 931 373 \$1 200;
#X msg 978 373 \$1 200;
#X msg 1026 373 \$1 200;
#X msg 1072 372 \$1 200;
#X msg 585 200 1 0 0 0 0 0 0 0 0;
#X obj 737 51 inlet;
#X msg 564 178 0.7 0 0 0 0 0 0 0 0.7;
#X msg 602 223 0.7 0.7 0 0 0 0 0 0 0;
#X msg 630 246 0 1 0 0 0 0 0 0 0;
#X msg 703 178 0 0.7 0.7 0 0 0 0 0 0;
#X msg 719 201 0 0 1 0 0 0 0 0 0;
#X msg 749 224 0 0 0.7 0.7 0 0 0 0 0;
#X msg 761 247 0 0 0 1 0 0 0 0 0;
#X msg 840 176 0 0 0 0.7 0.7 0 0 0 0;
#X msg 870 197 0 0 0 0 1 0 0 0 0;
#X msg 888 220 0 0 0 0 0.7 0.7 0 0 0;
#X msg 906 245 0 0 0 0 0 1 0 0 0;
#X msg 986 174 0 0 0 0 0 0.7 0.7 0 0;
#X msg 1011 195 0 0 0 0 0 0 1 0 0;
#X msg 1043 221 0 0 0 0 0 0 0.7 0.7 0;
#X msg 1059 244 0 0 0 0 0 0 0 1 0;
#X msg 1154 177 0 0 0 0 0 0 0 0.7 0.7;
#X msg 1171 199 0 0 0 0 0 0 0 0 1;
#X floatatom 650 116 5 0 0 0 - - -, f 5;
#X obj 632 432 s \$0-out-1;
#X obj 702 432 s \$0-out-2;
#X obj 772 432 s \$0-out-3;
#X obj 840 432 s \$0-out-4;
#X obj 908 432 s \$0-out-5;
#X obj 977 432 s \$0-out-6;
#X obj 1044 432 s \$0-out-7;
#X obj 1112 432 s \$0-out-8;
#X obj 1181 432 s \$0-out-9;
#X obj 25 292 r \$0-out-1;
#X obj 92 292 r \$0-out-2;
#X obj 159 293 r \$0-out-3;
#X obj 228 293 r \$0-out-4;
#X obj 294 293 r \$0-out-5;
#X obj 362 293 r \$0-out-6;
#X obj 431 293 r \$0-out-7;
#X obj 498 293 r \$0-out-8;
#X obj 565 293 r \$0-out-9;
#X connect 0 0 8 0;
#X connect 1 0 8 1;
#X connect 2 0 8 2;
#X connect 3 0 8 3;
#X connect 4 0 8 4;
#X connect 5 0 8 5;
#X connect 6 0 8 6;
#X connect 7 0 8 7;
#X connect 9 0 8 8;
#X connect 10 0 0 0;
#X connect 10 0 1 0;
#X connect 10 0 2 0;
#X connect 10 0 3 0;
#X connect 10 0 4 0;
#X connect 10 0 5 0;
#X connect 10 0 6 0;
#X connect 10 0 7 0;
#X connect 10 0 9 0;
#X connect 11 0 34 0;
#X connect 11 1 32 0;
#X connect 11 2 35 0;
#X connect 11 3 36 0;
#X connect 11 4 37 0;
#X connect 11 5 38 0;
#X connect 11 6 39 0;
#X connect 11 7 40 0;
#X connect 11 8 41 0;
#X connect 11 9 42 0;
#X connect 11 10 43 0;
#X connect 11 11 44 0;
#X connect 11 12 45 0;
#X connect 11 13 46 0;
#X connect 11 14 47 0;
#X connect 11 15 48 0;
#X connect 11 16 49 0;
#X connect 11 17 50 0;
#X connect 13 0 23 0;
#X connect 13 1 24 0;
#X connect 13 2 25 0;
#X connect 13 3 26 0;
#X connect 13 4 27 0;
#X connect 13 5 28 0;
#X connect 13 6 29 0;
#X connect 13 7 30 0;
#X connect 13 8 31 0;
#X connect 14 0 52 0;
#X connect 15 0 53 0;
#X connect 16 0 54 0;
#X connect 17 0 55 0;
#X connect 18 0 56 0;
#X connect 19 0 57 0;
#X connect 20 0 58 0;
#X connect 21 0 59 0;
#X connect 22 0 60 0;
#X connect 23 0 14 0;
#X connect 24 0 15 0;
#X connect 25 0 16 0;
#X connect 26 0 17 0;
#X connect 27 0 18 0;
#X connect 28 0 19 0;
#X connect 29 0 20 0;
#X connect 30 0 21 0;
#X connect 31 0 22 0;
#X connect 32 0 13 0;
#X connect 33 0 11 0;
#X connect 33 0 51 0;
#X connect 34 0 13 0;
#X connect 35 0 13 0;
#X connect 36 0 13 0;
#X connect 37 0 13 0;
#X connect 38 0 13 0;
#X connect 39 0 13 0;
#X connect 40 0 13 0;
#X connect 41 0 13 0;
#X connect 42 0 13 0;
#X connect 43 0 13 0;
#X connect 44 0 13 0;
#X connect 45 0 13 0;
#X connect 46 0 13 0;
#X connect 47 0 13 0;
#X connect 48 0 13 0;
#X connect 49 0 13 0;
#X connect 50 0 13 0;
#X connect 61 0 0 1;
#X connect 62 0 1 1;
#X connect 63 0 2 1;
#X connect 64 0 3 1;
#X connect 65 0 4 1;
#X connect 66 0 5 1;
#X connect 67 0 6 1;
#X connect 68 0 7 1;
#X connect 69 0 9 1;
