#N canvas 323 369 1023 657 10;
#X obj 631 224 pack f 50;
#X obj 631 244 line~;
#X obj 631 155 mtof;
#X msg 631 178 1000 \$1;
#X obj 631 200 /;
#X obj 578 47 vsl 15 128 0 127 0 0 empty empty empty 0 -9 0 10 -262144
-1 -1 2400 1;
#X floatatom 579 188 5 0 0 0 - - -, f 5;
#X obj 78 86 line~;
#X obj 335 325 outlet~;
#X obj 247 145 lop~ 1000;
#X floatatom 401 69 5 0 0 0 - - -, f 5;
#X obj 401 90 t b f;
#X obj 404 48 hsl 128 15 0 10 0 0 empty empty empty -2 -8 0 10 -262144
-1 -1 12700 1;
#X obj 47 1 inlet trigger;
#X obj 159 19 inlet env;
#X obj 401 17 inlet excitation;
#X obj 578 9 inlet pitch;
#X msg 56 51 0.5 \, 0 2;
#X obj 60 166 *~;
#X obj 19 112 noise~;
#X obj 140 128 *~ 0.8;
#X obj 168 185 delwrite~ \$0-kstrong 100;
#X obj 256 11 vd~ \$0-kstrong 10;
#X obj 52 28 sel 127;
#X obj 241 35 *~ 0.5;
#X obj 253 84 +~;
#X obj 284 60 *~ 0.5;
#X obj 284 34 z~ 1;
#X obj 247 118 *~ 0.99;
#X obj 401 112 * 4;
#X connect 0 0 1 0;
#X connect 1 0 22 0;
#X connect 2 0 3 0;
#X connect 2 0 29 0;
#X connect 3 0 4 0;
#X connect 4 0 0 0;
#X connect 5 0 2 0;
#X connect 5 0 6 0;
#X connect 7 0 18 1;
#X connect 9 0 21 0;
#X connect 9 0 8 0;
#X connect 10 0 11 0;
#X connect 11 0 29 0;
#X connect 11 1 29 1;
#X connect 12 0 10 0;
#X connect 13 0 23 0;
#X connect 14 0 7 0;
#X connect 15 0 12 0;
#X connect 16 0 5 0;
#X connect 17 0 7 0;
#X connect 18 0 20 0;
#X connect 19 0 18 0;
#X connect 20 0 21 0;
#X connect 22 0 24 0;
#X connect 22 0 27 0;
#X connect 23 0 17 0;
#X connect 24 0 25 0;
#X connect 25 0 28 0;
#X connect 26 0 25 1;
#X connect 27 0 26 0;
#X connect 28 0 9 0;
#X connect 29 0 9 1;
