#N canvas 613 23 997 565 10;
#X obj 407 -1 vsl 15 128 0 10 0 0 empty empty empty 0 -9 0 10 -262144
-1 -1 11430 1;
#X text 432 30 string excitation;
#X obj 408 -73 r ctlin;
#X obj 407 -52 route 9;
#X obj 407 -27 jrange 0 127 0 20;
#X obj 335 148 karplus_strong~;
#X obj 275 49 r notein;
#X obj 318 111 tgl 15 0 empty empty empty 17 7 0 10 -262144 -1 -1 0
1;
#X obj 337 190 outlet~;
#X obj 444 521 s \$0-note;
#X obj 455 84 r \$0-note;
#X floatatom 463 131 5 0 0 0 - - -, f 5;
#X obj 318 87 route \$1;
#X obj 326 -55 loadbang;
#X floatatom 362 40 5 0 0 0 - - -, f 5;
#X obj 484 202 outlet;
#X msg 338 -25 9;
#X obj 439 392 tuning_table \$1;
#X connect 0 0 5 2;
#X connect 0 0 14 0;
#X connect 2 0 3 0;
#X connect 3 0 4 0;
#X connect 4 0 0 0;
#X connect 5 0 8 0;
#X connect 6 0 12 0;
#X connect 7 0 5 0;
#X connect 10 0 5 3;
#X connect 10 0 11 0;
#X connect 12 0 7 0;
#X connect 12 0 15 0;
#X connect 13 0 16 0;
#X connect 16 0 0 0;
#X connect 17 0 9 0;
