#N canvas 464 221 1023 657 10;
#X obj 565 54 vsl 15 128 0 10000 0 0 empty empty empty 0 -9 0 10 -262144
-1 -1 0 1;
#X floatatom 565 193 5 0 0 0 - - -, f 5;
#X obj 636 54 vsl 15 128 0.5 50 1 0 empty empty empty 0 -9 0 10 -262144
-1 -1 0 1;
#X floatatom 636 192 5 0 0 0 - - -, f 5;
#X obj 541 212 pack f 50;
#X obj 616 212 pack f 50;
#X obj 616 232 line~;
#X obj 750 157 mtof;
#X msg 750 180 1000 \$1;
#X obj 750 202 /;
#X obj 697 49 vsl 15 128 0 127 0 0 empty empty empty 0 -9 0 10 -262144
-1 -1 6400 1;
#X floatatom 698 190 5 0 0 0 - - -, f 5;
#X obj 541 233 line;
#X obj 850 297 block~ 4;
#X obj 78 86 line~;
#X obj 268 66 *~ 0.999;
#X obj 335 325 outlet~;
#X obj 247 145 lop~ 1000;
#X floatatom 373 90 5 0 0 0 - - -, f 5;
#X obj 373 111 t b f;
#X obj 373 133 * 3;
#X obj 376 69 hsl 128 15 0 10 0 0 empty empty empty -2 -8 0 10 -262144
-1 -1 7761 1;
#X text 321 52 cutoff freq as multiple of fundamental;
#X obj 781 28 loadbang;
#X obj 47 1 inlet trigger;
#X obj 159 19 inlet env;
#X obj 423 20 inlet excitation;
#X obj 713 5 inlet pitch;
#X msg 56 51 0.5 \, 0 2;
#X obj 60 166 *~;
#X obj 19 112 noise~;
#X obj 65 195 *~ 0.8;
#X floatatom 789 87 5 0 0 0 - - -, f 5;
#X obj 784 53 f \$1;
#X obj 168 185 delwrite~ \$0-kstrong 100;
#X obj 294 34 vd~ \$0-kstrong 10;
#X obj 52 28 sel 127;
#X connect 0 0 1 0;
#X connect 0 0 4 0;
#X connect 2 0 3 0;
#X connect 2 0 5 0;
#X connect 4 0 12 0;
#X connect 5 0 6 0;
#X connect 6 0 35 0;
#X connect 7 0 8 0;
#X connect 7 0 20 0;
#X connect 8 0 9 0;
#X connect 9 0 5 0;
#X connect 10 0 7 0;
#X connect 10 0 11 0;
#X connect 12 0 17 1;
#X connect 14 0 29 1;
#X connect 14 0 34 0;
#X connect 15 0 17 0;
#X connect 17 0 34 0;
#X connect 18 0 19 0;
#X connect 19 0 20 0;
#X connect 19 1 20 1;
#X connect 20 0 17 1;
#X connect 21 0 18 0;
#X connect 23 0 33 0;
#X connect 24 0 36 0;
#X connect 25 0 14 0;
#X connect 26 0 21 0;
#X connect 27 0 10 0;
#X connect 28 0 14 0;
#X connect 29 0 31 0;
#X connect 30 0 29 0;
#X connect 31 0 34 0;
#X connect 33 0 10 0;
#X connect 33 0 32 0;
#X connect 35 0 15 0;
#X connect 35 0 16 0;
#X connect 36 0 28 0;
