#N canvas 613 23 997 565 10;
#X obj 407 -1 vsl 15 128 0 10 0 0 empty empty empty 0 -9 0 10 -262144
-1 -1 11430 1;
#X text 432 30 string excitation;
#X obj 408 -73 r ctlin;
#X obj 407 -52 route 9;
#X obj 407 -27 jrange 0 127 0 20;
#X obj 335 148 karplus_strong~;
#X obj 275 49 r notein;
#X obj 318 111 tgl 15 0 empty empty empty 17 7 0 10 -262144 -1 -1 0
1;
#X obj 337 190 outlet~;
#X obj 98 378 == 0;
#X obj 98 352 f \$1;
#X obj 141 352 f \$1;
#X obj 181 352 f \$1;
#X obj 224 352 f \$1;
#X obj 264 352 f \$1;
#X obj 307 352 f \$1;
#X obj 347 352 f \$1;
#X obj 390 352 f \$1;
#X obj 431 353 f \$1;
#X obj 474 353 f \$1;
#X obj 514 353 f \$1;
#X obj 557 353 f \$1;
#X obj 597 353 f \$1;
#X obj 640 353 f \$1;
#X obj 680 353 f \$1;
#X obj 723 354 f \$1;
#X obj 762 354 f \$1;
#X text 410 303 tuning logic;
#X obj 141 378 == 1;
#X obj 181 378 == 2;
#X obj 224 378 == 3;
#X obj 264 378 == 4;
#X obj 307 378 == 5;
#X obj 347 378 == 6;
#X obj 390 378 == 7;
#X obj 431 379 == 8;
#X obj 474 379 == 9;
#X obj 514 379 == 10;
#X obj 557 379 == 11;
#X obj 597 379 == 12;
#X obj 640 379 == 13;
#X obj 680 379 == 14;
#X obj 723 380 == 15;
#X obj 762 380 == 16;
#X obj 801 354 f \$1;
#X obj 801 380 == 17;
#X obj 159 283 loadbang;
#X msg 159 307 bang;
#X obj 98 402 sel 1;
#X obj 141 402 sel 1;
#X obj 181 402 sel 1;
#X obj 224 402 sel 1;
#X obj 264 401 sel 1;
#X obj 307 401 sel 1;
#X obj 347 401 sel 1;
#X obj 390 401 sel 1;
#X obj 432 401 sel 1;
#X obj 475 401 sel 1;
#X obj 515 401 sel 1;
#X obj 558 401 sel 1;
#X obj 598 401 sel 1;
#X obj 641 401 sel 1;
#X obj 681 401 sel 1;
#X obj 724 401 sel 1;
#X obj 762 401 sel 1;
#X obj 802 401 sel 1;
#X obj 444 521 s \$0-note;
#X obj 455 84 r \$0-note;
#X floatatom 463 131 5 0 0 0 - - -, f 5;
#X msg 98 424 24;
#X msg 347 423 41;
#X msg 598 423 43;
#X text 593 529 c3(24):1 f3(41):7 g3(43):13;
#X msg 224 425 45;
#X text 629 512 notes (indexed from 1);
#X obj 318 87 route \$1;
#X text 533 549 a3(45):4 c4(48):10 e4(52):16 f4(53):2 G4(55):5 a4(57):8
\, b4(59):11 c5(60):14 d5(62):17 \, e5(64):3 f5(65):6 g5(67):9 a5(69):12
b5(71):15 c6(72):18;
#X msg 141 425 53;
#X msg 181 424 64;
#X msg 264 423 55;
#X msg 307 424 65;
#X msg 390 424 57;
#X msg 432 423 67;
#X msg 475 424 48;
#X msg 515 423 59;
#X msg 558 424 69;
#X msg 641 424 60;
#X msg 681 423 71;
#X msg 724 424 52;
#X msg 762 422 62;
#X msg 803 421 72;
#X obj 326 -55 loadbang;
#X floatatom 362 40 5 0 0 0 - - -, f 5;
#X obj 484 202 outlet;
#X msg 338 -25 9;
#X connect 0 0 5 2;
#X connect 0 0 92 0;
#X connect 2 0 3 0;
#X connect 3 0 4 0;
#X connect 4 0 0 0;
#X connect 5 0 8 0;
#X connect 6 0 75 0;
#X connect 7 0 5 0;
#X connect 9 0 48 0;
#X connect 10 0 9 0;
#X connect 11 0 28 0;
#X connect 12 0 29 0;
#X connect 13 0 30 0;
#X connect 14 0 31 0;
#X connect 15 0 32 0;
#X connect 16 0 33 0;
#X connect 17 0 34 0;
#X connect 18 0 35 0;
#X connect 19 0 36 0;
#X connect 20 0 37 0;
#X connect 21 0 38 0;
#X connect 22 0 39 0;
#X connect 23 0 40 0;
#X connect 24 0 41 0;
#X connect 25 0 42 0;
#X connect 26 0 43 0;
#X connect 28 0 49 0;
#X connect 29 0 50 0;
#X connect 30 0 51 0;
#X connect 31 0 52 0;
#X connect 32 0 53 0;
#X connect 33 0 54 0;
#X connect 34 0 55 0;
#X connect 35 0 56 0;
#X connect 36 0 57 0;
#X connect 37 0 58 0;
#X connect 38 0 59 0;
#X connect 39 0 60 0;
#X connect 40 0 61 0;
#X connect 41 0 62 0;
#X connect 42 0 63 0;
#X connect 43 0 64 0;
#X connect 44 0 45 0;
#X connect 45 0 65 0;
#X connect 46 0 47 0;
#X connect 47 0 10 0;
#X connect 47 0 11 0;
#X connect 47 0 12 0;
#X connect 47 0 13 0;
#X connect 47 0 14 0;
#X connect 47 0 15 0;
#X connect 47 0 16 0;
#X connect 47 0 17 0;
#X connect 47 0 18 0;
#X connect 47 0 19 0;
#X connect 47 0 20 0;
#X connect 47 0 21 0;
#X connect 47 0 22 0;
#X connect 47 0 23 0;
#X connect 47 0 24 0;
#X connect 47 0 25 0;
#X connect 47 0 26 0;
#X connect 47 0 44 0;
#X connect 48 0 69 0;
#X connect 49 0 77 0;
#X connect 50 0 78 0;
#X connect 51 0 73 0;
#X connect 52 0 79 0;
#X connect 53 0 80 0;
#X connect 54 0 70 0;
#X connect 55 0 81 0;
#X connect 56 0 82 0;
#X connect 57 0 83 0;
#X connect 58 0 84 0;
#X connect 59 0 85 0;
#X connect 60 0 71 0;
#X connect 61 0 86 0;
#X connect 62 0 87 0;
#X connect 63 0 88 0;
#X connect 64 0 89 0;
#X connect 65 0 90 0;
#X connect 67 0 5 3;
#X connect 67 0 68 0;
#X connect 69 0 66 0;
#X connect 70 0 66 0;
#X connect 71 0 66 0;
#X connect 73 0 66 0;
#X connect 75 0 7 0;
#X connect 75 0 93 0;
#X connect 77 0 66 0;
#X connect 78 0 66 0;
#X connect 79 0 66 0;
#X connect 80 0 66 0;
#X connect 81 0 66 0;
#X connect 82 0 66 0;
#X connect 83 0 66 0;
#X connect 84 0 66 0;
#X connect 85 0 66 0;
#X connect 86 0 66 0;
#X connect 87 0 66 0;
#X connect 88 0 66 0;
#X connect 89 0 66 0;
#X connect 90 0 66 0;
#X connect 91 0 94 0;
#X connect 94 0 0 0;
