#N canvas 385 330 1411 690 10;
#X obj 407 -1 vsl 15 128 0 10 0 0 empty empty empty 0 -9 0 10 -262144
-1 -1 11430 1;
#X text 432 30 string excitation;
#X obj 408 -73 r ctlin;
#X obj 407 -52 route 9;
#X obj 407 -27 jrange 0 127 0 20;
#X obj 275 49 r notein;
#X obj 318 111 tgl 15 0 empty empty empty 17 7 0 10 -262144 -1 -1 0
1;
#X obj 276 198 outlet~;
#X obj 552 125 s \$0-note;
#X obj 455 84 r \$0-note;
#X floatatom 463 131 5 0 0 0 - - -, f 5;
#X obj 318 87 route \$1;
#X obj 326 -55 loadbang;
#X floatatom 362 40 5 0 0 0 - - -, f 5;
#X obj 484 202 outlet;
#X msg 338 -25 9;
#X obj 553 78 tuning_table \$1;
#X obj 347 188 *~ 1;
#X obj 347 212 *~ 1;
#X obj 750 38 f \$1;
#X obj 750 15 loadbang;
#X obj 335 148 karplus_strong~;
#X obj 315 290 lop~ 50;
#X obj 372 290 lop~ 50;
#X obj 371 260 pluck_resonators~;
#X obj 379 342 instance_audio_switcher;
#X obj 375 317 *~ 1;
#X obj 327 316 *~ 0.3;
#X obj 639 276 f \$1;
#X obj 639 301 sel 8;
#X msg 664 328 0.7;
#X msg 634 328 0.2;
#X obj 626 251 loadbang;
#X obj 340 374 *~ 0.8;
#X obj 365 428 outlet~;
#X connect 0 0 13 0;
#X connect 0 0 21 2;
#X connect 2 0 3 0;
#X connect 3 0 4 0;
#X connect 4 0 0 0;
#X connect 5 0 11 0;
#X connect 6 0 21 0;
#X connect 9 0 10 0;
#X connect 9 0 21 3;
#X connect 11 0 6 0;
#X connect 11 0 14 0;
#X connect 12 0 15 0;
#X connect 15 0 0 0;
#X connect 16 0 8 0;
#X connect 17 0 18 0;
#X connect 18 0 22 0;
#X connect 18 0 24 0;
#X connect 19 0 25 1;
#X connect 20 0 19 0;
#X connect 21 0 7 0;
#X connect 21 0 17 0;
#X connect 22 0 27 0;
#X connect 23 0 26 0;
#X connect 24 0 23 0;
#X connect 26 0 25 0;
#X connect 26 0 33 0;
#X connect 27 0 25 0;
#X connect 27 0 33 0;
#X connect 28 0 29 0;
#X connect 29 0 31 0;
#X connect 29 0 30 0;
#X connect 30 0 26 1;
#X connect 31 0 27 1;
#X connect 32 0 28 0;
#X connect 33 0 34 0;
