#N canvas 236 209 1485 803 10;
#X obj 534 231 hsl 128 15 0 255 0 0 empty empty empty -2 -8 0 10 -262144
-1 -1 0 1;
#X msg 531 271 43 \$1;
#X obj 736 202 hsl 128 15 0 255 0 0 empty empty empty -2 -8 0 10 -262144
-1 -1 0 1;
#X msg 733 242 43 \$1;
#X msg 712 271 42 \$1;
#X msg 720 306 3 \$1;
#X msg 770 306 7 \$1;
#X msg 762 271 25 \$1;
#X obj 481 473 route 56 57 58 59 60 61 62 63;
#X msg 516 656 43 \$1;
#X obj 515 597 line;
#X obj 514 524 sel 127 0;
#X msg 476 562 225 10;
#X msg 527 560 0 1000;
#X text 427 421 single light test;
#X text 462 300 sends envelopes from midi notes;
#X text 333 356 there are only 18 sensors - so clusters of 4 lights
need to be grouped together with one sound/note;
#X obj 691 637 outlet;
#X text 737 638 output to uDMX external;
#X obj 340 226 inlet;
#X obj 486 325 clone 127 note-in-clone;
#X obj 760 359 DMX_frames_no-clone 144;
#X connect 0 0 1 0;
#X connect 1 0 21 0;
#X connect 2 0 3 0;
#X connect 2 0 4 0;
#X connect 2 0 7 0;
#X connect 2 0 5 0;
#X connect 2 0 6 0;
#X connect 8 0 11 0;
#X connect 8 1 11 0;
#X connect 8 2 11 0;
#X connect 8 3 11 0;
#X connect 8 4 11 0;
#X connect 8 5 11 0;
#X connect 8 6 11 0;
#X connect 8 7 11 0;
#X connect 9 0 21 0;
#X connect 10 0 9 0;
#X connect 11 0 12 0;
#X connect 11 1 13 0;
#X connect 12 0 10 0;
#X connect 13 0 10 0;
#X connect 19 0 8 0;
#X connect 19 0 20 0;
#X connect 20 0 21 0;
#X connect 21 0 17 0;
