#N canvas 489 259 1485 803 10;
#X obj 534 231 hsl 128 15 0 255 0 0 empty empty empty -2 -8 0 10 -262144
-1 -1 0 1;
#X msg 531 271 43 \$1;
#X msg 733 242 43 \$1;
#X msg 720 306 3 \$1;
#X msg 297 675 43 \$1;
#X obj 294 625 line;
#X obj 293 552 sel 127 0;
#X text 206 449 single light test;
#X text 462 300 sends envelopes from midi notes;
#X text 333 356 there are only 18 sensors - so clusters of 4 lights
need to be grouped together with one sound/note;
#X obj 722 578 outlet;
#X text 768 579 output to uDMX external;
#X obj 340 226 inlet;
#X obj 723 356 dmx_frame_driver;
#X obj 260 501 route 0 1 2 3 4 5 6 7 8 9;
#X obj 294 651 int;
#X msg 306 588 0 2500;
#X msg 236 587 225 200;
#X obj 452 392 note-to-lights;
#X obj 455 118 clone 127 note-in-clone;
#X obj 527 457 print;
#X msg 712 271 1 \$1;
#X msg 762 271 2 \$1;
#X msg 770 306 4 \$1;
#X obj 722 160 line;
#X msg 675 130 225 200;
#X msg 745 131 0 200;
#X obj 722 184 int;
#X obj 687 68 route 0;
#X obj 695 93 sel 127 0;
#X connect 0 0 1 0;
#X connect 1 0 13 0;
#X connect 2 0 13 0;
#X connect 3 0 13 0;
#X connect 5 0 15 0;
#X connect 6 0 17 0;
#X connect 6 1 16 0;
#X connect 12 0 18 0;
#X connect 13 0 10 0;
#X connect 14 0 6 0;
#X connect 14 1 6 0;
#X connect 14 2 6 0;
#X connect 14 3 6 0;
#X connect 14 4 6 0;
#X connect 14 5 6 0;
#X connect 14 6 6 0;
#X connect 14 7 6 0;
#X connect 15 0 4 0;
#X connect 16 0 5 0;
#X connect 17 0 5 0;
#X connect 18 0 13 0;
#X connect 21 0 13 0;
#X connect 22 0 13 0;
#X connect 23 0 13 0;
#X connect 24 0 27 0;
#X connect 25 0 24 0;
#X connect 26 0 24 0;
#X connect 27 0 2 0;
#X connect 27 0 21 0;
#X connect 27 0 22 0;
#X connect 27 0 3 0;
#X connect 27 0 23 0;
#X connect 28 0 29 0;
#X connect 29 0 25 0;
#X connect 29 1 26 0;
