#N canvas 265 108 1485 803 10;
#X obj 534 231 hsl 128 15 0 255 0 0 empty empty empty -2 -8 0 10 -262144
-1 -1 0 1;
#X msg 531 271 43 \$1;
#X obj 736 202 hsl 128 15 0 255 0 0 empty empty empty -2 -8 0 10 -262144
-1 -1 0 1;
#X msg 733 242 43 \$1;
#X msg 712 271 42 \$1;
#X msg 720 306 3 \$1;
#X msg 770 306 7 \$1;
#X msg 762 271 25 \$1;
#X msg 518 647 43 \$1;
#X obj 515 597 line;
#X obj 514 524 sel 127 0;
#X text 427 421 single light test;
#X text 462 300 sends envelopes from midi notes;
#X text 333 356 there are only 18 sensors - so clusters of 4 lights
need to be grouped together with one sound/note;
#X obj 722 578 outlet;
#X text 768 579 output to uDMX external;
#X obj 340 226 inlet;
#X obj 486 325 clone 127 note-in-clone;
#X obj 723 356 dmx_frame_driver;
#X obj 481 473 route 0 1 2 3 4 5 6 7 8 9;
#X obj 515 623 int;
#X msg 527 560 0 2500;
#X msg 457 559 225 200;
#X connect 0 0 1 0;
#X connect 1 0 18 0;
#X connect 2 0 3 0;
#X connect 2 0 4 0;
#X connect 2 0 7 0;
#X connect 2 0 5 0;
#X connect 2 0 6 0;
#X connect 3 0 18 0;
#X connect 4 0 18 0;
#X connect 5 0 18 0;
#X connect 6 0 18 0;
#X connect 7 0 18 0;
#X connect 8 0 18 0;
#X connect 9 0 20 0;
#X connect 10 0 22 0;
#X connect 10 1 21 0;
#X connect 16 0 19 0;
#X connect 17 0 18 0;
#X connect 18 0 14 0;
#X connect 19 0 10 0;
#X connect 19 1 10 0;
#X connect 19 2 10 0;
#X connect 19 3 10 0;
#X connect 19 4 10 0;
#X connect 19 5 10 0;
#X connect 19 6 10 0;
#X connect 19 7 10 0;
#X connect 20 0 8 0;
#X connect 21 0 9 0;
#X connect 22 0 9 0;
