#N canvas 623 218 803 615 10;
#X obj 313 298 snapshot~;
#X obj 313 275 metro 100;
#X obj 313 252 tgl 15 0 empty empty empty 17 7 0 10 -262144 -1 -1 1
1;
#X obj 313 323 > 0.99;
#X obj 313 347 change;
#X obj 178 211 *~ -1;
#X obj 176 158 *~ 0.5;
#X obj 178 233 +~ 0.5;
#X obj 176 186 *~ 1;
#X obj 176 137 osc~ 0.5;
#X obj 313 228 loadbang;
#X obj 142 57 inlet;
#X obj 213 83 sel 127;
#X msg 213 104 0;
#X text 240 105 resets lfo phase;
#X obj 92 429 outlet~;
#X obj 313 426 outlet;
#X text 356 425 trigs;
#X text 143 428 sig;
#X connect 0 0 3 0;
#X connect 1 0 0 0;
#X connect 2 0 1 0;
#X connect 3 0 4 0;
#X connect 4 0 16 0;
#X connect 5 0 7 0;
#X connect 6 0 8 0;
#X connect 7 0 0 0;
#X connect 7 0 15 0;
#X connect 8 0 5 0;
#X connect 9 0 6 0;
#X connect 10 0 2 0;
#X connect 11 0 12 0;
#X connect 12 0 13 0;
#X connect 13 0 9 1;
