#N canvas 977 315 450 300 10;
#X obj 168 64 inlet;
#X obj 170 129 s;
#X msg 195 95 symbol lfo-\$1;
#X obj 210 69 f \$1;
#X obj 210 46 loadbang;
#X connect 0 0 1 0;
#X connect 2 0 1 1;
#X connect 3 0 2 0;
#X connect 4 0 3 0;
