#N canvas 644 23 530 445 10;
#X obj 100 71 sel 127 0;
#X obj 100 47 inlet;
#X obj 122 320 outlet;
#X obj 43 167 line;
#X obj 122 251 int;
#X msg 116 141 0 1200;
#X msg 43 140 127 10;
#X obj 216 236 r lfo;
#X obj 171 293 *;
#X obj 255 290 print;
#X obj 216 259 jrange 0 1 0.7 1;
#X connect 0 0 6 0;
#X connect 0 1 5 0;
#X connect 1 0 0 0;
#X connect 3 0 4 0;
#X connect 3 0 8 1;
#X connect 4 0 2 0;
#X connect 5 0 3 0;
#X connect 6 0 3 0;
#X connect 7 0 10 0;
#X connect 8 0 4 0;
#X connect 10 0 9 0;
#X connect 10 0 8 0;
