#N canvas 776 110 665 523 10;
#X obj 95 44 sel 127 0;
#X obj 95 20 inlet;
#X obj 192 418 outlet;
#X obj 192 310 line;
#X obj 192 382 int;
#X msg 43 140 127 10;
#X obj 76 106 t b b;
#X obj 273 50 sel 127 0;
#X obj 107 129 delay 100;
#X msg 139 178 0 2000;
#X obj 445 232 sel 1;
#X msg 420 283 127 1000;
#X obj 485 279 delay 1000;
#X obj 445 254 delay 750;
#X obj 396 96 t b b;
#X obj 273 91 t b b;
#X obj 435 384 spigot;
#X obj 463 121 s \$0-lfo-on-off;
#X obj 468 359 r \$0-lfo-on-off;
#X obj 445 208 spigot;
#X obj 478 183 r \$0-lfo-on-off;
#X msg 423 118 0;
#X msg 300 125 1;
#X msg 107 151 0 1600;
#X msg 304 228 0 6000;
#X obj 273 2 inlet;
#X obj 552 35 inlet;
#X obj 192 347 cosine_midi_fade;
#X msg 487 307 40 1000;
#X msg 272 148 127 4000;
#X obj 273 70 delay 750;
#X connect 0 0 6 0;
#X connect 0 1 9 0;
#X connect 1 0 0 0;
#X connect 3 0 27 0;
#X connect 4 0 2 0;
#X connect 5 0 3 0;
#X connect 6 0 8 0;
#X connect 6 1 5 0;
#X connect 7 0 30 0;
#X connect 7 1 14 0;
#X connect 8 0 23 0;
#X connect 9 0 3 0;
#X connect 10 0 13 0;
#X connect 11 0 16 0;
#X connect 12 0 28 0;
#X connect 13 0 11 0;
#X connect 13 0 12 0;
#X connect 14 0 24 0;
#X connect 14 1 21 0;
#X connect 15 0 29 0;
#X connect 15 1 22 0;
#X connect 16 0 3 0;
#X connect 18 0 16 1;
#X connect 19 0 10 0;
#X connect 20 0 19 1;
#X connect 21 0 17 0;
#X connect 22 0 17 0;
#X connect 23 0 3 0;
#X connect 24 0 3 0;
#X connect 25 0 7 0;
#X connect 26 0 19 0;
#X connect 27 0 4 0;
#X connect 28 0 16 0;
#X connect 29 0 3 0;
#X connect 30 0 15 0;
