#N canvas 318 81 530 445 10;
#X obj 100 71 sel 127 0;
#X msg 43 140 225 10;
#X msg 116 141 0 1000;
#X obj 100 47 inlet;
#X obj 122 276 outlet;
#X obj 66 186 line;
#X obj 79 232 int;
#X msg 171 169 0;
#X obj 171 141 delay 1010;
#X obj 68 103 t b b;
#X connect 0 0 9 0;
#X connect 0 1 2 0;
#X connect 0 1 8 0;
#X connect 1 0 5 0;
#X connect 2 0 5 0;
#X connect 3 0 0 0;
#X connect 5 0 6 0;
#X connect 6 0 4 0;
#X connect 7 0 4 0;
#X connect 8 0 7 0;
#X connect 9 0 1 0;
