#N canvas 112 109 640 522 10;
#X obj 100 71 sel 127 0;
#X obj 100 47 inlet;
#X obj 86 336 outlet;
#X obj 86 303 line;
#X obj 116 101 delay 0;
#X obj 44 102 delay 100;
#X msg 21 170 127 1500;
#X msg 126 189 0 2000;
#X obj 272 17 inlet;
#X obj 273 50 sel 127 0;
#X msg 304 228 0 2000;
#X obj 445 232 sel 1;
#X obj 485 279 delay 1000;
#X obj 445 254 delay 750;
#X obj 396 96 t b b;
#X obj 273 78 t b b;
#X obj 435 384 spigot;
#X obj 463 121 s \$0-lfo-on-off;
#X obj 468 359 r \$0-lfo-on-off;
#X obj 445 208 spigot;
#X obj 478 183 r \$0-lfo-on-off;
#X msg 423 118 0;
#X msg 335 116 1;
#X msg 487 307 127 1000;
#X msg 420 283 20 1000;
#X msg 273 120 20 750;
#X obj 483 37 inlet;
#X text 523 36 lfo;
#X connect 0 0 5 0;
#X connect 0 1 4 0;
#X connect 1 0 0 0;
#X connect 3 0 2 0;
#X connect 4 0 7 0;
#X connect 5 0 6 0;
#X connect 6 0 3 0;
#X connect 7 0 3 0;
#X connect 8 0 9 0;
#X connect 9 0 15 0;
#X connect 9 1 14 0;
#X connect 10 0 3 0;
#X connect 11 0 13 0;
#X connect 12 0 23 0;
#X connect 13 0 24 0;
#X connect 13 0 12 0;
#X connect 14 0 10 0;
#X connect 14 1 21 0;
#X connect 15 0 25 0;
#X connect 15 1 22 0;
#X connect 16 0 3 0;
#X connect 18 0 16 1;
#X connect 19 0 11 0;
#X connect 20 0 19 1;
#X connect 21 0 17 0;
#X connect 22 0 17 0;
#X connect 23 0 16 0;
#X connect 24 0 16 0;
#X connect 25 0 3 0;
#X connect 26 0 19 0;
