#N canvas 611 169 450 300 10;
#X obj 100 71 sel 127 0;
#X msg 67 190 225 10;
#X msg 126 190 0 1000;
#X obj 100 47 inlet;
#X obj 107 237 outlet;
#X obj 100 133 t b b;
#X obj 43 102 delay 210;
#X obj 116 101 delay 210;
#X connect 0 0 6 0;
#X connect 0 1 7 0;
#X connect 1 0 4 0;
#X connect 2 0 4 0;
#X connect 3 0 0 0;
#X connect 5 1 2 0;
#X connect 6 0 1 0;
#X connect 7 0 5 0;
