#N canvas 1048 95 450 300 10;
#X obj 101 9 inlet;
#X text 182 6 channel \, 0 : 127;
#X obj 88 165 f;
#X obj 88 216 spigot;
#X msg 118 194 1;
#X msg 157 199 0;
#X obj 147 92 delay \$2;
#X text 90 249 only passes note-on if they stay open for at least \$2
ms;
#X obj 87 273 outlet;
#X obj 33 200 print;
#X obj 101 38 t f f;
#X obj 147 37 sel 127 0;
#X obj 219 104 t b b;
#X obj 147 63 t b b;
#X connect 0 0 10 0;
#X connect 2 0 3 0;
#X connect 3 0 8 0;
#X connect 4 0 3 1;
#X connect 5 0 3 1;
#X connect 6 0 2 0;
#X connect 10 0 11 0;
#X connect 10 1 2 1;
#X connect 11 0 13 0;
#X connect 11 1 12 0;
#X connect 12 0 5 0;
#X connect 12 1 2 0;
#X connect 13 0 6 0;
#X connect 13 1 4 0;
