#N canvas 133 79 1550 834 10;
#X obj 200 21 notein;
#X obj 199 55 pack f f;
#X obj 285 23 ctlin;
#X obj 284 54 pack f f;
#X obj 197 128 pluck;
#X msg 197 87 \$1 \$2;
#X msg 285 91 \$2 \$1;
#X msg 41 60 \; pd dsp 1;
#X obj 41 36 loadbang;
#X obj 491 585 dac~;
#X obj 544 156 mono-eq13;
#X obj 544 251 mono-lowpass;
#X obj 544 338 mono-pureverb;
#X obj 10 164 mono-eq13;
#X obj 10 257 mono-lowpass;
#X obj 10 346 mono-pureverb;
#X obj 495 548 *~ 2;
#X msg 1591 85 \$1 bang;
#X obj 1686 -37 tgl 15 0 empty empty empty 17 7 0 10 -262144 -1 -1
0 1;
#X obj 1591 137 mono-eq13;
#X obj 1621 235 mono-pureverb;
#X obj 1585 16 metro 100;
#X obj 1654 18 metro 57;
#X obj 1515 46 random 50;
#X obj 1725 49 random 50;
#X obj 1585 45 random 2;
#X obj 1654 47 random 2;
#X obj 1740 -9 metro 57;
#X obj 1811 22 random 50;
#X obj 1740 20 random 2;
#X obj 1811 45 + 200;
#X obj 1725 72 + 220;
#X obj 1518 73 + 125;
#X obj 1283 36 noise_waves~;
#X obj 1283 69 mono-eq13;
#X obj 1272 449 note-to-lights;
#X obj 1289 528 ctlout;
#X obj 1273 475 unpack f f;
#X obj 1302 408 pack f f;
#X obj 1302 381 notein;
#X obj 912 141 line;
#X obj 808 65 unpack f f;
#X obj 865 88 route 0 127;
#X msg 865 116 0 1000;
#X obj 862 40 clone 18 long_note_pass_filter 4000;
#X obj 1592 108 clone 2 glass_ping~ 1000;
#X obj 883 230 s sustain_fade;
#X obj 1283 13 r~ lfo;
#X msg 912 117 1 4000;
#X obj 1283 153 *~ 0.3;
#X obj 888 364 s lfo_on;
#X msg 902 306 1;
#X msg 931 306 0;
#X obj 931 281 delay 1000;
#X obj 544 119 steampipes;
#X obj 993 70 s long_notes;
#X obj 222 402 *~ 0.3;
#X obj 544 413 *~ 0.2;
#X obj 1892 512 snapshot~;
#X obj 1892 489 metro 100;
#X obj 1913 466 tgl 15 0 empty empty empty 17 7 0 10 -262144 -1 -1
1 1;
#X obj 1892 537 > 0.99;
#X obj 1892 561 change;
#X obj 1892 588 s lfo_trigs;
#X obj 915 588 hsl 128 15 0 1 0 0 empty empty empty -2 -8 0 10 -262144
-1 -1 0 1;
#X floatatom 712 611 5 0 0 0 - - -, f 5;
#X floatatom 717 655 5 0 0 0 - - -, f 5;
#X obj 712 632 log;
#X floatatom 712 711 5 0 0 0 - - -, f 5;
#X obj 718 674 jrange 0 4.844 0 127;
#X text 759 639 log curve fast to slow;
#X floatatom 909 608 5 0 0 0 - - -, f 5;
#X floatatom 916 648 5 0 0 0 - - -, f 5;
#X floatatom 970 739 5 0 0 0 - - -, f 5;
#X obj 932 523 hsl 128 15 0 127 0 0 empty empty empty -2 -8 0 10 -262144
-1 -1 0 1;
#X floatatom 929 552 5 0 0 0 - - -, f 5;
#X obj 926 569 / 127;
#X obj 708 585 hsl 128 15 0 127 0 0 empty empty empty -2 -8 0 10 -262144
-1 -1 0 1;
#X obj 911 625 cos;
#X obj 916 671 * -1;
#X floatatom 915 695 5 0 0 0 - - -, f 5;
#X obj 915 713 + 1;
#X floatatom 915 736 5 0 0 0 - - -, f 5;
#X obj 976 708 jrange 0 0.459 0 127;
#X text 958 632 log curve slow to fast;
#X obj 1780 591 snapshot~;
#X obj 1799 568 metro 100;
#X obj 1799 545 tgl 15 0 empty empty empty 17 7 0 10 -262144 -1 -1
0 1;
#X obj 1768 685 print;
#X obj 1757 425 *~ -1;
#X obj 1679 444 s~ lfo;
#X obj 1706 372 *~ 0.5;
#X obj 1757 447 +~ 0.5;
#X obj 1709 648 s lfo;
#X obj 1801 628 change;
#X obj 376 407 *~ 0.1;
#X obj 883 206 pack f f;
#X obj 912 165 t b f;
#X obj 435 159 r sustain_fade;
#X obj 888 342 pack f f;
#X obj 861 -30 notein;
#X obj 862 -6 pack f f;
#X msg 862 19 \$1 \$2;
#X obj 1005 220 s sustain_fade_out;
#X obj 288 155 r sustain_fade_out;
#X obj 1056 128 sel 127;
#X obj 999 98 unpack f f;
#X obj 1000 179 pack f f;
#X msg 1056 148 1;
#X obj 1755 400 *~ 1;
#X obj 1706 497 s~ lfo+;
#X obj 599 93 r sustain_fade;
#X obj 1706 337 osc~ 0.5;
#X obj 1361 413 r long_notes;
#X obj 1910 441 loadbang;
#X obj 1270 234 r long_notes;
#N canvas 0 22 820 584 lfos 0;
#X obj 56 180 lfo;
#X obj 56 210 s~ lfo-0;
#X obj 114 180 lfo;
#X obj 169 180 lfo;
#X obj 227 179 lfo;
#X obj 285 179 lfo;
#X obj 340 179 lfo;
#X obj 396 178 lfo;
#X obj 454 178 lfo;
#X obj 509 178 lfo;
#X obj 114 210 s~ lfo-1;
#X obj 169 210 s~ lfo-2;
#X obj 227 209 s~ lfo-3;
#X obj 285 209 s~ lfo-4;
#X obj 340 209 s~ lfo-5;
#X obj 396 208 s~ lfo-6;
#X obj 454 208 s~ lfo-7;
#X obj 509 208 s~ lfo-8;
#X obj 255 131 route 0 1 2 3 4 5 6 7 8;
#X obj 57 338 lfo;
#X obj 115 338 lfo;
#X obj 170 338 lfo;
#X obj 230 339 lfo;
#X obj 290 337 lfo;
#X obj 351 337 lfo;
#X obj 409 337 lfo;
#X obj 472 337 lfo;
#X obj 57 368 s~ lfo-9;
#X obj 115 368 s~ lfo-10;
#X obj 170 368 s~ lfo-11;
#X obj 230 369 s~ lfo-12;
#X obj 290 367 s~ lfo-13;
#X obj 351 367 s~ lfo-14;
#X obj 410 367 s~ lfo-15;
#X obj 472 366 s~ lfo-16;
#X obj 533 338 lfo;
#X obj 533 367 s~ lfo-17;
#X obj 256 289 route 9 10 11 12 13 14 15 16 17;
#X obj 294 72 inlet;
#X obj 74 231 s lfo-0;
#X obj 132 231 s lfo-1;
#X obj 188 231 s lfo-2;
#X obj 245 230 s lfo-3;
#X obj 303 230 s lfo-4;
#X obj 358 230 s lfo-5;
#X obj 414 229 s lfo-6;
#X obj 472 229 s lfo-7;
#X obj 527 229 s lfo-8;
#X obj 67 390 s lfo-9;
#X obj 125 390 s lfo-10;
#X obj 180 390 s lfo-11;
#X obj 239 391 s lfo-12;
#X obj 301 389 s lfo-13;
#X obj 361 389 s lfo-14;
#X obj 420 389 s lfo-15;
#X obj 482 388 s lfo-16;
#X obj 543 389 s lfo-17;
#X connect 0 0 1 0;
#X connect 0 1 39 0;
#X connect 2 0 10 0;
#X connect 2 1 40 0;
#X connect 3 0 11 0;
#X connect 3 1 41 0;
#X connect 4 0 12 0;
#X connect 4 1 42 0;
#X connect 5 0 13 0;
#X connect 5 1 43 0;
#X connect 6 0 14 0;
#X connect 6 1 44 0;
#X connect 7 0 15 0;
#X connect 7 1 45 0;
#X connect 8 0 16 0;
#X connect 8 1 46 0;
#X connect 9 0 17 0;
#X connect 9 1 47 0;
#X connect 18 0 0 0;
#X connect 18 1 2 0;
#X connect 18 2 3 0;
#X connect 18 3 4 0;
#X connect 18 4 5 0;
#X connect 18 5 6 0;
#X connect 18 6 7 0;
#X connect 18 7 8 0;
#X connect 18 8 9 0;
#X connect 19 0 27 0;
#X connect 19 1 48 0;
#X connect 20 0 28 0;
#X connect 20 1 49 0;
#X connect 21 0 29 0;
#X connect 21 1 50 0;
#X connect 22 0 30 0;
#X connect 22 1 51 0;
#X connect 23 0 31 0;
#X connect 23 1 52 0;
#X connect 24 0 32 0;
#X connect 24 1 53 0;
#X connect 25 0 33 0;
#X connect 25 1 54 0;
#X connect 26 0 34 0;
#X connect 26 1 55 0;
#X connect 35 0 36 0;
#X connect 35 1 56 0;
#X connect 37 0 19 0;
#X connect 37 1 20 0;
#X connect 37 2 21 0;
#X connect 37 3 22 0;
#X connect 37 4 23 0;
#X connect 37 5 24 0;
#X connect 37 6 25 0;
#X connect 37 7 26 0;
#X connect 37 8 35 0;
#X connect 38 0 18 0;
#X connect 38 0 37 0;
#X restore 1270 268 pd lfos;
#X obj 213 194 clone 18 tone;
#X obj 353 186 clone 18 tone2;
#X connect 0 0 1 0;
#X connect 0 1 1 1;
#X connect 1 0 5 0;
#X connect 1 0 54 0;
#X connect 1 0 117 0;
#X connect 1 0 118 0;
#X connect 2 0 3 0;
#X connect 2 1 3 1;
#X connect 3 0 6 0;
#X connect 4 0 13 0;
#X connect 5 0 4 0;
#X connect 6 0 4 1;
#X connect 8 0 7 0;
#X connect 10 0 11 0;
#X connect 11 0 12 0;
#X connect 12 0 57 0;
#X connect 13 0 14 0;
#X connect 14 0 15 0;
#X connect 15 0 16 0;
#X connect 16 0 9 0;
#X connect 17 0 45 0;
#X connect 18 0 21 0;
#X connect 18 0 22 0;
#X connect 18 0 27 0;
#X connect 19 0 20 0;
#X connect 21 0 23 0;
#X connect 21 0 25 0;
#X connect 22 0 24 0;
#X connect 22 0 26 0;
#X connect 23 0 32 0;
#X connect 24 0 31 0;
#X connect 25 0 17 0;
#X connect 26 0 17 0;
#X connect 27 0 28 0;
#X connect 27 0 29 0;
#X connect 28 0 30 0;
#X connect 29 0 17 0;
#X connect 30 0 27 1;
#X connect 31 0 22 1;
#X connect 32 0 21 1;
#X connect 33 0 34 0;
#X connect 34 0 49 0;
#X connect 35 0 37 0;
#X connect 37 0 36 0;
#X connect 37 1 36 1;
#X connect 38 0 35 0;
#X connect 39 0 38 0;
#X connect 39 1 38 1;
#X connect 40 0 97 0;
#X connect 41 0 96 0;
#X connect 41 0 99 0;
#X connect 41 1 42 0;
#X connect 42 0 43 0;
#X connect 42 0 53 0;
#X connect 42 1 48 0;
#X connect 42 1 51 0;
#X connect 43 0 40 0;
#X connect 44 0 41 0;
#X connect 44 0 55 0;
#X connect 44 0 106 0;
#X connect 45 0 19 0;
#X connect 47 0 33 0;
#X connect 48 0 40 0;
#X connect 51 0 99 1;
#X connect 52 0 99 1;
#X connect 53 0 52 0;
#X connect 54 0 10 0;
#X connect 56 0 16 0;
#X connect 57 0 16 0;
#X connect 58 0 61 0;
#X connect 59 0 58 0;
#X connect 60 0 59 0;
#X connect 61 0 62 0;
#X connect 62 0 63 0;
#X connect 64 0 71 0;
#X connect 65 0 67 0;
#X connect 66 0 69 0;
#X connect 67 0 66 0;
#X connect 69 0 68 0;
#X connect 71 0 78 0;
#X connect 72 0 79 0;
#X connect 74 0 75 0;
#X connect 75 0 76 0;
#X connect 76 0 64 0;
#X connect 77 0 65 0;
#X connect 78 0 72 0;
#X connect 79 0 80 0;
#X connect 80 0 81 0;
#X connect 81 0 82 0;
#X connect 82 0 83 0;
#X connect 83 0 73 0;
#X connect 85 0 93 0;
#X connect 85 0 94 0;
#X connect 85 0 88 0;
#X connect 86 0 85 0;
#X connect 87 0 86 0;
#X connect 89 0 92 0;
#X connect 91 0 109 0;
#X connect 92 0 58 0;
#X connect 92 0 85 0;
#X connect 92 0 110 0;
#X connect 95 0 16 0;
#X connect 96 0 46 0;
#X connect 97 0 96 0;
#X connect 97 1 96 1;
#X connect 98 0 118 1;
#X connect 99 0 50 0;
#X connect 100 0 101 0;
#X connect 100 1 101 1;
#X connect 101 0 102 0;
#X connect 102 0 44 0;
#X connect 104 0 117 1;
#X connect 105 0 108 0;
#X connect 106 0 107 0;
#X connect 106 1 105 0;
#X connect 107 0 103 0;
#X connect 108 0 107 1;
#X connect 109 0 89 0;
#X connect 109 0 90 0;
#X connect 111 0 54 1;
#X connect 113 0 35 1;
#X connect 114 0 60 0;
#X connect 115 0 116 0;
#X connect 117 0 56 0;
#X connect 118 0 95 0;
