#N canvas 69 111 821 360 10;
#X obj 232 52 notein;
#X obj 231 86 pack f f;
#X obj 317 54 ctlin;
#X obj 316 85 pack f f;
#X obj 239 314 pluck;
#X msg 229 118 \$1 \$2;
#X msg 317 122 \$2 \$1;
#X obj 652 179 midi-lights;
#X connect 0 0 1 0;
#X connect 0 1 1 1;
#X connect 1 0 5 0;
#X connect 2 0 3 0;
#X connect 2 1 3 1;
#X connect 3 0 6 0;
#X connect 5 0 4 0;
#X connect 6 0 4 1;
