#N canvas 1 411 1578 850 10;
#X obj 200 21 notein;
#X obj 199 55 pack f f;
#X obj 124 193 pluck;
#X msg 197 87 \$1 \$2;
#X msg 1591 85 \$1 bang;
#X obj 1686 -37 tgl 15 0 empty empty empty 17 7 0 10 -262144 -1 -1
0 1;
#X obj 1585 16 metro 100;
#X obj 1654 18 metro 57;
#X obj 1515 46 random 50;
#X obj 1725 49 random 50;
#X obj 1585 45 random 2;
#X obj 1654 47 random 2;
#X obj 1740 -9 metro 57;
#X obj 1811 22 random 50;
#X obj 1740 20 random 2;
#X obj 1811 45 + 200;
#X obj 1725 72 + 220;
#X obj 1518 73 + 125;
#X obj 1283 36 noise_waves~;
#X obj 989 159 line;
#X obj 885 83 unpack f f;
#X obj 942 106 route 0 127;
#X msg 942 134 0 1000;
#X obj 939 58 clone 18 long_note_pass_filter 4000;
#X obj 1592 108 clone 2 glass_ping~ 1000;
#X obj 960 248 s sustain_fade;
#X obj 1283 13 r~ lfo;
#X msg 989 135 1 4000;
#X obj 1283 61 *~ 0.3;
#X obj 965 382 s lfo_on;
#X msg 979 324 1;
#X msg 1008 324 0;
#X obj 1008 299 delay 1000;
#X obj 1070 88 s long_notes;
#X obj 1892 512 snapshot~;
#X obj 1892 489 metro 100;
#X obj 1913 466 tgl 15 0 empty empty empty 17 7 0 10 -262144 -1 -1
1 1;
#X obj 1892 537 > 0.99;
#X obj 1892 561 change;
#X obj 1892 588 s lfo_trigs;
#X obj 1780 591 snapshot~;
#X obj 1799 568 metro 100;
#X obj 1799 545 tgl 15 0 empty empty empty 17 7 0 10 -262144 -1 -1
0 1;
#X obj 1768 685 print;
#X obj 1757 425 *~ -1;
#X obj 1679 444 s~ lfo;
#X obj 1706 372 *~ 0.5;
#X obj 1757 447 +~ 0.5;
#X obj 1709 648 s lfo;
#X obj 1801 628 change;
#X obj 960 224 pack f f;
#X obj 989 183 t b f;
#X obj 434 177 r sustain_fade;
#X obj 965 360 pack f f;
#X obj 938 -12 notein;
#X obj 939 12 pack f f;
#X msg 939 37 \$1 \$2;
#X obj 1082 238 s sustain_fade_out;
#X obj 268 167 r sustain_fade_out;
#X obj 1133 146 sel 127;
#X obj 1076 116 unpack f f;
#X obj 1077 197 pack f f;
#X msg 1133 166 1;
#X obj 1755 400 *~ 1;
#X obj 1706 497 s~ lfo+;
#X obj 1706 337 osc~ 0.5;
#X obj 1910 441 loadbang;
#X obj 1258 182 r long_notes;
#N canvas 0 255 938 652 lfos 0;
#X obj 56 180 lfo;
#X obj 56 210 s~ lfo-0;
#X obj 114 180 lfo;
#X obj 169 180 lfo;
#X obj 227 179 lfo;
#X obj 285 179 lfo;
#X obj 340 179 lfo;
#X obj 396 178 lfo;
#X obj 454 178 lfo;
#X obj 509 178 lfo;
#X obj 114 210 s~ lfo-1;
#X obj 169 210 s~ lfo-2;
#X obj 227 209 s~ lfo-3;
#X obj 285 209 s~ lfo-4;
#X obj 340 209 s~ lfo-5;
#X obj 396 208 s~ lfo-6;
#X obj 454 208 s~ lfo-7;
#X obj 509 208 s~ lfo-8;
#X obj 255 131 route 0 1 2 3 4 5 6 7 8;
#X obj 57 363 lfo;
#X obj 115 363 lfo;
#X obj 170 363 lfo;
#X obj 230 364 lfo;
#X obj 290 362 lfo;
#X obj 351 362 lfo;
#X obj 409 362 lfo;
#X obj 472 362 lfo;
#X obj 57 393 s~ lfo-9;
#X obj 115 393 s~ lfo-10;
#X obj 170 393 s~ lfo-11;
#X obj 230 394 s~ lfo-12;
#X obj 290 392 s~ lfo-13;
#X obj 351 392 s~ lfo-14;
#X obj 410 392 s~ lfo-15;
#X obj 472 391 s~ lfo-16;
#X obj 533 363 lfo;
#X obj 533 392 s~ lfo-17;
#X obj 256 314 route 9 10 11 12 13 14 15 16 17;
#X obj 294 72 inlet;
#X obj 74 231 s lfo-0;
#X obj 132 231 s lfo-1;
#X obj 188 231 s lfo-2;
#X obj 245 230 s lfo-3;
#X obj 303 230 s lfo-4;
#X obj 358 230 s lfo-5;
#X obj 414 229 s lfo-6;
#X obj 472 229 s lfo-7;
#X obj 527 229 s lfo-8;
#X obj 67 415 s lfo-9;
#X obj 125 415 s lfo-10;
#X obj 180 415 s lfo-11;
#X obj 239 416 s lfo-12;
#X obj 301 414 s lfo-13;
#X obj 361 414 s lfo-14;
#X obj 420 414 s lfo-15;
#X obj 482 413 s lfo-16;
#X obj 543 414 s lfo-17;
#X obj 12 276 s \$0-lfos_out;
#X obj 228 517 r \$0-lfos_out;
#X obj 248 547 outlet;
#X obj 102 276 s \$0-lfos_out;
#X obj 195 276 s \$0-lfos_out;
#X obj 285 276 s \$0-lfos_out;
#X obj 374 275 s \$0-lfos_out;
#X obj 464 275 s \$0-lfos_out;
#X obj 557 275 s \$0-lfos_out;
#X obj 647 275 s \$0-lfos_out;
#X obj 736 274 s \$0-lfos_out;
#X obj 33 460 s \$0-lfos_out;
#X obj 123 460 s \$0-lfos_out;
#X obj 216 460 s \$0-lfos_out;
#X obj 306 460 s \$0-lfos_out;
#X obj 395 459 s \$0-lfos_out;
#X obj 485 459 s \$0-lfos_out;
#X obj 578 459 s \$0-lfos_out;
#X obj 668 459 s \$0-lfos_out;
#X obj 764 459 s \$0-lfos_out;
#X msg 12 254 0 \$1;
#X msg 102 254 1 \$1;
#X msg 195 254 2 \$1;
#X msg 285 254 3 \$1;
#X msg 374 253 4 \$1;
#X msg 464 253 5 \$1;
#X msg 557 253 6 \$1;
#X msg 647 253 7 \$1;
#X msg 736 252 8 \$1;
#X msg 33 438 9 \$1;
#X msg 123 438 10 \$1;
#X msg 216 438 11 \$1;
#X msg 306 438 12 \$1;
#X msg 395 437 13 \$1;
#X msg 485 436 14 \$1;
#X msg 578 437 15 \$1;
#X msg 668 437 16 \$1;
#X msg 764 437 17 \$1;
#X connect 0 0 1 0;
#X connect 0 1 39 0;
#X connect 0 1 77 0;
#X connect 2 0 10 0;
#X connect 2 1 40 0;
#X connect 2 1 78 0;
#X connect 3 0 11 0;
#X connect 3 1 41 0;
#X connect 3 1 79 0;
#X connect 4 0 12 0;
#X connect 4 1 42 0;
#X connect 4 1 80 0;
#X connect 5 0 13 0;
#X connect 5 1 43 0;
#X connect 5 1 81 0;
#X connect 6 0 14 0;
#X connect 6 1 44 0;
#X connect 6 1 82 0;
#X connect 7 0 15 0;
#X connect 7 1 45 0;
#X connect 7 1 83 0;
#X connect 8 0 16 0;
#X connect 8 1 46 0;
#X connect 8 1 84 0;
#X connect 9 0 17 0;
#X connect 9 1 47 0;
#X connect 9 1 85 0;
#X connect 18 0 0 0;
#X connect 18 1 2 0;
#X connect 18 2 3 0;
#X connect 18 3 4 0;
#X connect 18 4 5 0;
#X connect 18 5 6 0;
#X connect 18 6 7 0;
#X connect 18 7 8 0;
#X connect 18 8 9 0;
#X connect 19 0 27 0;
#X connect 19 1 48 0;
#X connect 19 1 86 0;
#X connect 20 0 28 0;
#X connect 20 1 49 0;
#X connect 20 1 87 0;
#X connect 21 0 29 0;
#X connect 21 1 50 0;
#X connect 21 1 88 0;
#X connect 22 0 30 0;
#X connect 22 1 51 0;
#X connect 22 1 89 0;
#X connect 23 0 31 0;
#X connect 23 1 52 0;
#X connect 23 1 90 0;
#X connect 24 0 32 0;
#X connect 24 1 53 0;
#X connect 24 1 91 0;
#X connect 25 0 33 0;
#X connect 25 1 54 0;
#X connect 25 1 92 0;
#X connect 26 0 34 0;
#X connect 26 1 55 0;
#X connect 26 1 93 0;
#X connect 35 0 36 0;
#X connect 35 1 56 0;
#X connect 35 1 94 0;
#X connect 37 0 19 0;
#X connect 37 1 20 0;
#X connect 37 2 21 0;
#X connect 37 3 22 0;
#X connect 37 4 23 0;
#X connect 37 5 24 0;
#X connect 37 6 25 0;
#X connect 37 7 26 0;
#X connect 37 8 35 0;
#X connect 38 0 18 0;
#X connect 38 0 37 0;
#X connect 58 0 59 0;
#X connect 77 0 57 0;
#X connect 78 0 60 0;
#X connect 79 0 61 0;
#X connect 80 0 62 0;
#X connect 81 0 63 0;
#X connect 82 0 64 0;
#X connect 83 0 65 0;
#X connect 84 0 66 0;
#X connect 85 0 67 0;
#X connect 86 0 68 0;
#X connect 87 0 69 0;
#X connect 88 0 70 0;
#X connect 89 0 71 0;
#X connect 90 0 72 0;
#X connect 91 0 73 0;
#X connect 92 0 74 0;
#X connect 93 0 75 0;
#X connect 94 0 76 0;
#X restore 1258 216 pd lfos;
#X msg 485 60 midi \$1 \$2;
#X obj 1258 244 s lfos;
#X obj 1479 147 cosine_midi_fade;
#X msg 119 505 \; pd dsp 1;
#X obj 122 477 loadbang;
#X obj 563 6 r sustain_fade;
#X msg 606 70 pd~ start steampipes.pd;
#X msg 655 91 pd~ stop;
#X msg 563 28 sustain \$1 \$2;
#X obj 664 5 r lfos;
#X msg 664 28 lfos \$1 \$2;
#X obj 764 27 loadbang;
#X obj 184 377 dac~ 1;
#X text 228 377 for testing all audio;
#X obj 353 198 clone 18 tone2;
#X obj 635 179 dac~ 1 2 3 4 5 6 7 8 9;
#X obj 620 113 pd~ -ninsig 2 -noutsig 9;
#X obj 780 179 throw~ allsteam;
#X obj 474 202 catch~ allsteam;
#X obj 188 340 *~ 0.8;
#X obj 194 191 clone 18 tone;
#X obj 1189 317 oscformat lfos;
#X obj 1205 440 netsend -u -b;
#X msg 1342 242 disconnect;
#X msg 1343 218 connect localhost 5000;
#X text 1437 242 don't send;
#X text 1530 217 send as UDP;
#X obj 1342 370 list prepend send;
#X obj 1342 395 list trim;
#X obj 1342 350 oscformat long_notes;
#X obj 1343 198 loadbang;
#X obj 1188 341 list prepend send;
#X obj 1188 366 list trim;
#X connect 0 0 1 0;
#X connect 0 1 1 1;
#X connect 1 0 3 0;
#X connect 1 0 69 0;
#X connect 1 0 83 0;
#X connect 1 0 89 0;
#X connect 2 0 88 0;
#X connect 3 0 2 0;
#X connect 4 0 24 0;
#X connect 5 0 6 0;
#X connect 5 0 7 0;
#X connect 5 0 12 0;
#X connect 6 0 8 0;
#X connect 6 0 10 0;
#X connect 7 0 9 0;
#X connect 7 0 11 0;
#X connect 8 0 17 0;
#X connect 9 0 16 0;
#X connect 10 0 4 0;
#X connect 11 0 4 0;
#X connect 12 0 13 0;
#X connect 12 0 14 0;
#X connect 13 0 15 0;
#X connect 14 0 4 0;
#X connect 15 0 12 1;
#X connect 16 0 7 1;
#X connect 17 0 6 1;
#X connect 18 0 28 0;
#X connect 19 0 51 0;
#X connect 20 0 50 0;
#X connect 20 0 53 0;
#X connect 20 1 21 0;
#X connect 21 0 22 0;
#X connect 21 0 32 0;
#X connect 21 1 27 0;
#X connect 21 1 30 0;
#X connect 22 0 19 0;
#X connect 23 0 20 0;
#X connect 23 0 33 0;
#X connect 23 0 60 0;
#X connect 26 0 18 0;
#X connect 27 0 19 0;
#X connect 30 0 53 1;
#X connect 31 0 53 1;
#X connect 32 0 31 0;
#X connect 34 0 37 0;
#X connect 35 0 34 0;
#X connect 36 0 35 0;
#X connect 37 0 38 0;
#X connect 38 0 39 0;
#X connect 40 0 48 0;
#X connect 40 0 49 0;
#X connect 40 0 43 0;
#X connect 41 0 40 0;
#X connect 42 0 41 0;
#X connect 44 0 47 0;
#X connect 46 0 63 0;
#X connect 47 0 34 0;
#X connect 47 0 40 0;
#X connect 47 0 64 0;
#X connect 50 0 25 0;
#X connect 51 0 50 0;
#X connect 51 1 50 1;
#X connect 52 0 83 1;
#X connect 53 0 29 0;
#X connect 54 0 55 0;
#X connect 54 1 55 1;
#X connect 55 0 56 0;
#X connect 56 0 23 0;
#X connect 58 0 89 1;
#X connect 59 0 62 0;
#X connect 60 0 61 0;
#X connect 60 1 59 0;
#X connect 61 0 57 0;
#X connect 62 0 61 1;
#X connect 63 0 44 0;
#X connect 63 0 45 0;
#X connect 66 0 36 0;
#X connect 67 0 68 0;
#X connect 67 0 98 0;
#X connect 68 0 70 0;
#X connect 68 0 90 0;
#X connect 69 0 85 0;
#X connect 73 0 72 0;
#X connect 74 0 77 0;
#X connect 75 0 85 0;
#X connect 76 0 85 0;
#X connect 77 0 85 0;
#X connect 78 0 79 0;
#X connect 79 0 85 0;
#X connect 80 0 75 0;
#X connect 83 0 88 0;
#X connect 85 1 84 0;
#X connect 85 1 86 0;
#X connect 85 2 84 1;
#X connect 85 2 86 0;
#X connect 85 3 84 2;
#X connect 85 3 86 0;
#X connect 85 4 84 3;
#X connect 85 4 86 0;
#X connect 85 5 84 4;
#X connect 85 5 86 0;
#X connect 85 6 84 5;
#X connect 85 6 86 0;
#X connect 85 7 84 6;
#X connect 85 7 86 0;
#X connect 85 8 84 7;
#X connect 85 8 86 0;
#X connect 85 9 84 8;
#X connect 85 9 86 0;
#X connect 87 0 88 0;
#X connect 88 0 81 0;
#X connect 89 0 88 0;
#X connect 90 0 100 0;
#X connect 92 0 91 0;
#X connect 93 0 91 0;
#X connect 96 0 97 0;
#X connect 97 0 91 0;
#X connect 98 0 96 0;
#X connect 99 0 93 0;
#X connect 100 0 101 0;
#X connect 101 0 91 0;
