#N canvas 126 503 1525 654 10;
#X obj 200 21 notein;
#X obj 199 55 pack f f;
#X obj 285 23 ctlin;
#X obj 284 54 pack f f;
#X obj 197 128 pluck;
#X msg 197 87 \$1 \$2;
#X msg 285 91 \$2 \$1;
#X obj 565 45 midi-lights;
#X msg 41 60 \; pd dsp 1;
#X obj 41 36 loadbang;
#X obj 491 585 dac~;
#X obj 562 155 mono-eq13;
#X obj 562 248 mono-lowpass;
#X obj 562 337 mono-pureverb;
#X obj 364 157 mono-eq13;
#X obj 364 250 mono-lowpass;
#X obj 364 339 mono-pureverb;
#X obj 63 177 mono-eq13;
#X obj 63 270 mono-lowpass;
#X obj 63 359 mono-pureverb;
#X obj 562 118 steampipes;
#X obj 544 413 *~ 0.7;
#X obj 717 54 clone 18 long_note_pass_filter 200;
#X obj 449 117 clone 18 tone;
#X obj 495 548 *~ 2;
#X msg 261 231 cutoff \$1;
#X obj 218 158 hsl 128 15 0 127 0 0 empty empty empty -2 -8 0 10 -262144
-1 -1 5100 1;
#X obj 380 428 *~ 0.1;
#X msg 899 183 \$1 bang;
#X obj 994 61 tgl 15 0 empty empty empty 17 7 0 10 -262144 -1 -1 1
1;
#X obj 899 235 mono-eq13;
#X obj 929 333 mono-pureverb;
#X obj 899 494 *~ 1;
#X obj 893 114 metro 100;
#X obj 962 116 metro 57;
#X obj 823 144 random 50;
#X obj 1033 147 random 50;
#X obj 893 143 random 2;
#X obj 962 145 random 2;
#X obj 1226 422 *~ 0.1;
#X obj 1048 89 metro 57;
#X obj 1119 120 random 50;
#X obj 1048 118 random 2;
#X obj 1119 143 + 200;
#X obj 1033 170 + 220;
#X obj 813 171 + 125;
#X obj 900 206 clone 2 glass_ping~ 1000;
#X obj 1264 143 noise_waves~;
#X obj 1264 176 mono-eq13;
#X connect 0 0 1 0;
#X connect 0 1 1 1;
#X connect 1 0 5 0;
#X connect 1 0 20 0;
#X connect 1 0 23 0;
#X connect 2 0 3 0;
#X connect 2 1 3 1;
#X connect 3 0 6 0;
#X connect 4 0 17 0;
#X connect 5 0 4 0;
#X connect 6 0 4 1;
#X connect 9 0 8 0;
#X connect 11 0 12 0;
#X connect 12 0 13 0;
#X connect 13 0 21 0;
#X connect 14 0 15 0;
#X connect 15 0 16 0;
#X connect 16 0 27 0;
#X connect 17 0 18 0;
#X connect 18 0 19 0;
#X connect 19 0 24 0;
#X connect 20 0 11 0;
#X connect 21 0 24 0;
#X connect 23 0 14 0;
#X connect 24 0 10 0;
#X connect 25 0 18 1;
#X connect 26 0 25 0;
#X connect 27 0 24 0;
#X connect 28 0 46 0;
#X connect 29 0 33 0;
#X connect 29 0 34 0;
#X connect 29 0 40 0;
#X connect 30 0 31 0;
#X connect 30 0 32 0;
#X connect 31 0 32 0;
#X connect 33 0 35 0;
#X connect 33 0 37 0;
#X connect 34 0 36 0;
#X connect 34 0 38 0;
#X connect 35 0 45 0;
#X connect 36 0 44 0;
#X connect 37 0 28 0;
#X connect 38 0 28 0;
#X connect 39 0 32 0;
#X connect 40 0 41 0;
#X connect 40 0 42 0;
#X connect 41 0 43 0;
#X connect 42 0 28 0;
#X connect 43 0 40 1;
#X connect 44 0 34 1;
#X connect 45 0 33 1;
#X connect 46 0 30 0;
#X connect 47 0 48 0;
