#N canvas 973 43 420 460 10;
#X msg 249 152 0;
#X obj 252 128 loadbang;
#X obj 178 93 led_control;
#X obj 178 60 pack f f;
#X obj 212 272 uDMX;
#X msg 23 212 close;
#X msg 16 237 open;
#X obj 178 121 t a b b;
#X obj 16 168 t b b;
#X obj 16 116 tgl 15 0 empty empty empty 17 7 0 10 -262144 -1 -1 1
1;
#X obj 16 142 metro 1000;
#X text -7 275 hacky fix for buggy uDMX stuff;
#X obj 12 87 loadbang;
#X obj 183 32 notein;
#X connect 0 0 4 1;
#X connect 1 0 0 0;
#X connect 2 0 7 0;
#X connect 3 0 2 0;
#X connect 5 0 4 0;
#X connect 6 0 4 0;
#X connect 7 0 4 0;
#X connect 8 0 6 0;
#X connect 8 1 5 0;
#X connect 9 0 10 0;
#X connect 10 0 8 0;
#X connect 12 0 9 0;
#X connect 13 0 3 0;
#X connect 13 1 3 1;
