#N canvas 10 161 1640 768 10;
#X obj 200 21 notein;
#X obj 199 55 pack f f;
#X obj 285 23 ctlin;
#X obj 284 54 pack f f;
#X obj 197 128 pluck;
#X msg 197 87 \$1 \$2;
#X msg 285 91 \$2 \$1;
#X msg 41 60 \; pd dsp 1;
#X obj 41 36 loadbang;
#X obj 491 585 dac~;
#X obj 562 155 mono-eq13;
#X obj 562 248 mono-lowpass;
#X obj 562 337 mono-pureverb;
#X obj 364 157 mono-eq13;
#X obj 364 250 mono-lowpass;
#X obj 364 339 mono-pureverb;
#X obj 63 177 mono-eq13;
#X obj 63 270 mono-lowpass;
#X obj 63 359 mono-pureverb;
#X obj 562 118 steampipes;
#X obj 449 117 clone 18 tone;
#X obj 495 548 *~ 2;
#X msg 261 231 cutoff \$1;
#X obj 218 158 hsl 128 15 0 127 0 0 empty empty empty -2 -8 0 10 -262144
-1 -1 8500 1;
#X obj 380 428 *~ 0.1;
#X msg 899 183 \$1 bang;
#X obj 994 61 tgl 15 0 empty empty empty 17 7 0 10 -262144 -1 -1 1
1;
#X obj 899 235 mono-eq13;
#X obj 929 333 mono-pureverb;
#X obj 899 494 *~ 1;
#X obj 893 114 metro 100;
#X obj 962 116 metro 57;
#X obj 823 144 random 50;
#X obj 1033 147 random 50;
#X obj 893 143 random 2;
#X obj 962 145 random 2;
#X obj 1048 89 metro 57;
#X obj 1119 120 random 50;
#X obj 1048 118 random 2;
#X obj 1119 143 + 200;
#X obj 1033 170 + 220;
#X obj 813 171 + 125;
#X obj 1264 143 noise_waves~;
#X obj 1264 176 mono-eq13;
#X obj 1280 476 note-to-lights;
#X obj 1352 695 ctlout;
#X obj 1284 543 unpack f f;
#X obj 1310 435 pack f f;
#X obj 1310 408 notein;
#X obj 544 413 *~ 0.8;
#X obj 731 124 line;
#X obj 689 31 unpack f f;
#X obj 692 58 route 0 127;
#X msg 660 93 0 1000;
#X obj 689 10 clone 18 long_note_pass_filter 4000;
#X obj 900 206 clone 2 glass_ping~ 1000;
#X obj 1372 293 phasor~ 1.2;
#X obj 717 148 s sustain_fade;
#X obj 924 457 r sustain_fade;
#X obj 1372 335 *~ 1;
#X obj 1393 314 r sustain_fade;
#X obj 1372 360 s~ lfo;
#X obj 1264 120 r~ lfo;
#X msg 714 92 1 4000;
#X obj 1227 422 *~ 0.3;
#X obj 711 216 s lfo_on;
#X msg 711 194 1;
#X msg 740 194 0;
#X obj 740 169 delay 1000;
#X obj 1489 314 r lfo_on;
#X connect 0 0 1 0;
#X connect 0 1 1 1;
#X connect 1 0 5 0;
#X connect 1 0 19 0;
#X connect 1 0 20 0;
#X connect 2 0 3 0;
#X connect 2 1 3 1;
#X connect 3 0 6 0;
#X connect 4 0 16 0;
#X connect 5 0 4 0;
#X connect 5 0 54 0;
#X connect 6 0 4 1;
#X connect 8 0 7 0;
#X connect 10 0 11 0;
#X connect 11 0 12 0;
#X connect 12 0 49 0;
#X connect 13 0 14 0;
#X connect 14 0 15 0;
#X connect 15 0 24 0;
#X connect 16 0 17 0;
#X connect 17 0 18 0;
#X connect 18 0 21 0;
#X connect 19 0 10 0;
#X connect 20 0 13 0;
#X connect 21 0 9 0;
#X connect 22 0 17 1;
#X connect 23 0 22 0;
#X connect 24 0 21 0;
#X connect 25 0 55 0;
#X connect 26 0 30 0;
#X connect 26 0 31 0;
#X connect 26 0 36 0;
#X connect 27 0 28 0;
#X connect 27 0 29 0;
#X connect 28 0 29 0;
#X connect 29 0 9 0;
#X connect 30 0 32 0;
#X connect 30 0 34 0;
#X connect 31 0 33 0;
#X connect 31 0 35 0;
#X connect 32 0 41 0;
#X connect 33 0 40 0;
#X connect 34 0 25 0;
#X connect 35 0 25 0;
#X connect 36 0 37 0;
#X connect 36 0 38 0;
#X connect 37 0 39 0;
#X connect 38 0 25 0;
#X connect 39 0 36 1;
#X connect 40 0 31 1;
#X connect 41 0 30 1;
#X connect 42 0 43 0;
#X connect 44 0 46 0;
#X connect 46 0 45 0;
#X connect 46 1 45 1;
#X connect 47 0 44 0;
#X connect 48 0 47 0;
#X connect 48 1 47 1;
#X connect 49 0 21 0;
#X connect 50 0 57 0;
#X connect 51 1 52 0;
#X connect 52 0 53 0;
#X connect 52 0 68 0;
#X connect 52 1 63 0;
#X connect 52 1 66 0;
#X connect 53 0 50 0;
#X connect 54 0 51 0;
#X connect 55 0 27 0;
#X connect 56 0 59 0;
#X connect 58 0 29 1;
#X connect 59 0 61 0;
#X connect 60 0 59 1;
#X connect 62 0 42 0;
#X connect 63 0 50 0;
#X connect 64 0 29 0;
#X connect 66 0 65 0;
#X connect 67 0 65 0;
#X connect 68 0 67 0;
