#N canvas 138 315 937 568 10;
#X obj 151 318 dac~;
#X msg 29 79 pd~ start pluck.pd;
#X obj 152 15 notein;
#X obj 151 49 pack f f;
#X obj 237 17 ctlin;
#X msg 149 81 notein \$1 \$2;
#X obj 236 48 pack f f;
#X msg 236 85 ctlin \$2 \$1;
#X msg 759 67 pd~ start led_control.pd;
#X obj 813 231 uDMX;
#X msg 850 206 0;
#X obj 853 182 loadbang;
#X msg 844 102 pd~ stop;
#X obj 638 42 notein;
#X obj 637 76 pack f f;
#X msg 54 108 pd~ stop;
#X msg 637 108 led-notein \$1 \$2;
#X obj 759 162 pd~ -fifo 200;
#X obj 35 226 pd~ -ninsig 2 -noutsig 2 -fifo 20;
#X connect 1 0 18 0;
#X connect 2 0 3 0;
#X connect 2 1 3 1;
#X connect 3 0 5 0;
#X connect 4 0 6 0;
#X connect 4 1 6 1;
#X connect 5 0 18 0;
#X connect 6 0 7 0;
#X connect 7 0 18 0;
#X connect 8 0 17 0;
#X connect 10 0 9 1;
#X connect 11 0 10 0;
#X connect 12 0 17 0;
#X connect 13 0 14 0;
#X connect 13 1 14 1;
#X connect 14 0 16 0;
#X connect 15 0 18 0;
#X connect 16 0 17 0;
#X connect 17 0 9 0;
#X connect 18 1 0 0;
#X connect 18 2 0 1;
