#N canvas 314 180 1191 598 10;
#X obj 200 21 notein;
#X obj 199 55 pack f f;
#X msg 518 69 midi \$1 \$2;
#X msg 119 505 \; pd dsp 1;
#X obj 122 477 loadbang;
#X obj 563 6 r sustain_fade;
#X msg 606 70 pd~ start steampipes.pd;
#X msg 655 91 pd~ stop;
#X msg 563 28 sustain \$1 \$2;
#X obj 664 5 r lfos;
#X msg 664 28 lfos \$1 \$2;
#X obj 764 27 loadbang;
#X text 390 463 for testing all audio;
#X obj 620 113 pd~ -ninsig 2 -noutsig 9;
#X obj 262 195 r sustain_fade;
#X obj 274 131 r sustain_fade_out;
#X obj 573 508 dac~ 1 2 3 4 5 6 7 8 9;
#X obj 126 92 pluck;
#X obj 638 228 9-ch-reverb~, f 21;
#X obj 250 491 channel_limiter~;
#X obj 355 491 channel_limiter~;
#X obj 638 267 9-ch-thrower~, f 21;
#X obj 573 456 9-ch-catcher~, f 22;
#X obj 573 482 9-ch-limiter~, f 22;
#X obj 250 520 throw~ main_ch_1;
#X obj 355 520 throw~ main_ch_2;
#X obj 317 447 *~ 0.3;
#X obj 633 190 9-ch-resonators~, f 23;
#X obj 181 225 clone 18 tone2;
#X obj 199 155 clone 18 tone;
#X text 571 431 output stage;
#N canvas 199 38 456 521 sustain_midi_filters 0;
#X obj 144 194 line;
#X obj 40 118 unpack f f;
#X obj 97 141 route 0 127;
#X msg 97 169 0 1000;
#X obj 94 93 clone 18 long_note_pass_filter 4000;
#X obj 115 283 s sustain_fade;
#X msg 144 170 1 4000;
#X obj 120 417 s lfo_on;
#X msg 134 359 1;
#X msg 163 359 0;
#X obj 163 334 delay 1000;
#X obj 225 123 s long_notes;
#X obj 115 259 pack f f;
#X obj 144 218 t b f;
#X obj 120 395 pack f f;
#X obj 93 23 notein;
#X obj 94 47 pack f f;
#X msg 94 72 \$1 \$2;
#X obj 237 273 s sustain_fade_out;
#X obj 288 181 sel 127;
#X obj 231 151 unpack f f;
#X obj 232 232 pack f f;
#X msg 288 201 1;
#X connect 0 0 13 0;
#X connect 1 0 12 0;
#X connect 1 0 14 0;
#X connect 1 1 2 0;
#X connect 2 0 3 0;
#X connect 2 0 10 0;
#X connect 2 1 6 0;
#X connect 2 1 8 0;
#X connect 3 0 0 0;
#X connect 4 0 1 0;
#X connect 4 0 11 0;
#X connect 4 0 20 0;
#X connect 6 0 0 0;
#X connect 8 0 14 1;
#X connect 9 0 14 1;
#X connect 10 0 9 0;
#X connect 12 0 5 0;
#X connect 13 0 12 0;
#X connect 13 1 12 1;
#X connect 14 0 7 0;
#X connect 15 0 16 0;
#X connect 15 1 16 1;
#X connect 16 0 17 0;
#X connect 17 0 4 0;
#X connect 19 0 22 0;
#X connect 20 0 21 0;
#X connect 20 1 19 0;
#X connect 21 0 18 0;
#X connect 22 0 21 1;
#X restore 1011 49 pd sustain_midi_filters;
#N canvas 152 320 503 423 OSC_output 0;
#X obj 199 96 inlet long_notes;
#X obj 45 99 inlet lfos;
#X obj 45 185 oscformat lfos;
#X obj 61 308 netsend -u -b;
#X msg 310 141 disconnect;
#X msg 311 117 connect localhost 5000;
#X obj 176 205 list prepend send;
#X obj 176 230 list trim;
#X obj 176 185 oscformat long_notes;
#X obj 311 97 loadbang;
#X obj 44 209 list prepend send;
#X obj 44 234 list trim;
#X connect 0 0 8 0;
#X connect 1 0 2 0;
#X connect 2 0 10 0;
#X connect 4 0 3 0;
#X connect 5 0 3 0;
#X connect 6 0 7 0;
#X connect 7 0 3 0;
#X connect 8 0 6 0;
#X connect 9 0 5 0;
#X connect 10 0 11 0;
#X connect 11 0 3 0;
#X restore 1014 136 pd OSC_output;
#N canvas 595 55 501 449 lfos 0;
#X obj 62 6 r long_notes;
#N canvas 216 197 938 652 lfos 0;
#X obj 56 210 s~ lfo-0;
#X obj 509 178 lfo;
#X obj 114 210 s~ lfo-1;
#X obj 169 210 s~ lfo-2;
#X obj 227 209 s~ lfo-3;
#X obj 285 209 s~ lfo-4;
#X obj 340 209 s~ lfo-5;
#X obj 396 208 s~ lfo-6;
#X obj 454 208 s~ lfo-7;
#X obj 509 208 s~ lfo-8;
#X obj 255 131 route 0 1 2 3 4 5 6 7 8;
#X obj 57 393 s~ lfo-9;
#X obj 115 393 s~ lfo-10;
#X obj 170 393 s~ lfo-11;
#X obj 230 394 s~ lfo-12;
#X obj 290 392 s~ lfo-13;
#X obj 351 392 s~ lfo-14;
#X obj 410 392 s~ lfo-15;
#X obj 472 391 s~ lfo-16;
#X obj 533 392 s~ lfo-17;
#X obj 256 314 route 9 10 11 12 13 14 15 16 17;
#X obj 294 72 inlet;
#X obj 74 231 s lfo-0;
#X obj 132 231 s lfo-1;
#X obj 188 231 s lfo-2;
#X obj 245 230 s lfo-3;
#X obj 303 230 s lfo-4;
#X obj 358 230 s lfo-5;
#X obj 414 229 s lfo-6;
#X obj 472 229 s lfo-7;
#X obj 527 229 s lfo-8;
#X obj 67 415 s lfo-9;
#X obj 125 415 s lfo-10;
#X obj 180 415 s lfo-11;
#X obj 239 416 s lfo-12;
#X obj 301 414 s lfo-13;
#X obj 361 414 s lfo-14;
#X obj 420 414 s lfo-15;
#X obj 482 413 s lfo-16;
#X obj 543 414 s lfo-17;
#X obj 12 276 s \$0-lfos_out;
#X obj 228 517 r \$0-lfos_out;
#X obj 248 547 outlet;
#X obj 102 276 s \$0-lfos_out;
#X obj 195 276 s \$0-lfos_out;
#X obj 285 276 s \$0-lfos_out;
#X obj 374 275 s \$0-lfos_out;
#X obj 464 275 s \$0-lfos_out;
#X obj 557 275 s \$0-lfos_out;
#X obj 647 275 s \$0-lfos_out;
#X obj 736 274 s \$0-lfos_out;
#X obj 33 460 s \$0-lfos_out;
#X obj 123 460 s \$0-lfos_out;
#X obj 216 460 s \$0-lfos_out;
#X obj 306 460 s \$0-lfos_out;
#X obj 395 459 s \$0-lfos_out;
#X obj 485 459 s \$0-lfos_out;
#X obj 578 459 s \$0-lfos_out;
#X obj 668 459 s \$0-lfos_out;
#X obj 764 459 s \$0-lfos_out;
#X msg 12 254 0 \$1;
#X msg 102 254 1 \$1;
#X msg 195 254 2 \$1;
#X msg 285 254 3 \$1;
#X msg 374 253 4 \$1;
#X msg 464 253 5 \$1;
#X msg 557 253 6 \$1;
#X msg 647 253 7 \$1;
#X msg 736 252 8 \$1;
#X msg 33 438 9 \$1;
#X msg 123 438 10 \$1;
#X msg 216 438 11 \$1;
#X msg 306 438 12 \$1;
#X msg 395 437 13 \$1;
#X msg 485 436 14 \$1;
#X msg 578 437 15 \$1;
#X msg 668 437 16 \$1;
#X msg 764 437 17 \$1;
#X obj 56 180 lfo;
#X obj 114 180 lfo;
#X obj 169 180 lfo;
#X obj 227 179 lfo;
#X obj 285 179 lfo;
#X obj 340 179 lfo;
#X obj 396 178 lfo;
#X obj 454 178 lfo;
#X obj 57 363 lfo;
#X obj 115 363 lfo;
#X obj 170 363 lfo;
#X obj 230 364 lfo;
#X obj 290 362 lfo;
#X obj 351 362 lfo;
#X obj 409 362 lfo;
#X obj 472 362 lfo;
#X obj 533 363 lfo;
#X connect 1 0 9 0;
#X connect 1 1 30 0;
#X connect 1 1 68 0;
#X connect 10 0 78 0;
#X connect 10 1 79 0;
#X connect 10 2 80 0;
#X connect 10 3 81 0;
#X connect 10 4 82 0;
#X connect 10 5 83 0;
#X connect 10 6 84 0;
#X connect 10 7 85 0;
#X connect 10 8 1 0;
#X connect 20 0 86 0;
#X connect 20 1 87 0;
#X connect 20 2 88 0;
#X connect 20 3 89 0;
#X connect 20 4 90 0;
#X connect 20 5 91 0;
#X connect 20 6 92 0;
#X connect 20 7 93 0;
#X connect 20 8 94 0;
#X connect 21 0 10 0;
#X connect 21 0 20 0;
#X connect 41 0 42 0;
#X connect 60 0 40 0;
#X connect 61 0 43 0;
#X connect 62 0 44 0;
#X connect 63 0 45 0;
#X connect 64 0 46 0;
#X connect 65 0 47 0;
#X connect 66 0 48 0;
#X connect 67 0 49 0;
#X connect 68 0 50 0;
#X connect 69 0 51 0;
#X connect 70 0 52 0;
#X connect 71 0 53 0;
#X connect 72 0 54 0;
#X connect 73 0 55 0;
#X connect 74 0 56 0;
#X connect 75 0 57 0;
#X connect 76 0 58 0;
#X connect 77 0 59 0;
#X connect 78 0 0 0;
#X connect 78 1 22 0;
#X connect 78 1 60 0;
#X connect 79 0 2 0;
#X connect 79 1 23 0;
#X connect 79 1 61 0;
#X connect 80 0 3 0;
#X connect 80 1 24 0;
#X connect 80 1 62 0;
#X connect 81 0 4 0;
#X connect 81 1 25 0;
#X connect 81 1 63 0;
#X connect 82 0 5 0;
#X connect 82 1 26 0;
#X connect 82 1 64 0;
#X connect 83 0 6 0;
#X connect 83 1 27 0;
#X connect 83 1 65 0;
#X connect 84 0 7 0;
#X connect 84 1 28 0;
#X connect 84 1 66 0;
#X connect 85 0 8 0;
#X connect 85 1 29 0;
#X connect 85 1 67 0;
#X connect 86 0 11 0;
#X connect 86 1 31 0;
#X connect 86 1 69 0;
#X connect 87 0 12 0;
#X connect 87 1 32 0;
#X connect 87 1 70 0;
#X connect 88 0 13 0;
#X connect 88 1 33 0;
#X connect 88 1 71 0;
#X connect 89 0 14 0;
#X connect 89 1 34 0;
#X connect 89 1 72 0;
#X connect 90 0 15 0;
#X connect 90 1 35 0;
#X connect 90 1 73 0;
#X connect 91 0 16 0;
#X connect 91 1 36 0;
#X connect 91 1 74 0;
#X connect 92 0 17 0;
#X connect 92 1 37 0;
#X connect 92 1 75 0;
#X connect 93 0 18 0;
#X connect 93 1 38 0;
#X connect 93 1 76 0;
#X connect 94 0 19 0;
#X connect 94 1 39 0;
#X connect 94 1 77 0;
#X restore 62 40 pd lfos;
#X obj 62 68 s lfos;
#X obj 23 118 outlet lfos;
#X connect 0 0 1 0;
#X connect 1 0 2 0;
#X connect 1 0 3 0;
#X restore 1014 94 pd lfos;
#X obj 1089 98 r long_notes;
#X connect 0 0 1 0;
#X connect 0 1 1 1;
#X connect 1 0 2 0;
#X connect 1 0 17 0;
#X connect 1 0 28 0;
#X connect 1 0 29 0;
#X connect 2 0 13 0;
#X connect 4 0 3 0;
#X connect 5 0 8 0;
#X connect 6 0 13 0;
#X connect 7 0 13 0;
#X connect 8 0 13 0;
#X connect 9 0 10 0;
#X connect 10 0 13 0;
#X connect 11 0 6 0;
#X connect 13 1 27 0;
#X connect 13 2 27 1;
#X connect 13 3 27 2;
#X connect 13 4 27 3;
#X connect 13 5 27 4;
#X connect 13 6 27 5;
#X connect 13 7 27 6;
#X connect 13 8 27 7;
#X connect 13 9 27 8;
#X connect 14 0 28 1;
#X connect 15 0 29 1;
#X connect 18 0 21 0;
#X connect 18 1 21 1;
#X connect 18 2 21 2;
#X connect 18 3 21 3;
#X connect 18 4 21 4;
#X connect 18 5 21 5;
#X connect 18 6 21 6;
#X connect 18 7 21 7;
#X connect 18 8 21 8;
#X connect 19 0 24 0;
#X connect 20 0 25 0;
#X connect 22 0 23 0;
#X connect 22 1 23 1;
#X connect 22 2 23 2;
#X connect 22 3 23 3;
#X connect 22 4 23 4;
#X connect 22 5 23 5;
#X connect 22 6 23 6;
#X connect 22 7 23 7;
#X connect 22 8 23 8;
#X connect 23 0 16 0;
#X connect 23 1 16 1;
#X connect 23 2 16 2;
#X connect 23 3 16 3;
#X connect 23 4 16 4;
#X connect 23 5 16 5;
#X connect 23 6 16 6;
#X connect 23 7 16 7;
#X connect 23 8 16 8;
#X connect 26 0 19 0;
#X connect 26 0 20 0;
#X connect 27 0 18 0;
#X connect 27 1 18 1;
#X connect 27 2 18 2;
#X connect 27 3 18 3;
#X connect 27 4 18 4;
#X connect 27 5 18 5;
#X connect 27 6 18 6;
#X connect 27 7 18 7;
#X connect 27 8 18 8;
#X connect 33 0 32 0;
#X connect 34 0 32 1;
