#N canvas 717 79 798 490 10;
#X obj 183 366 ctlout;
#X obj 167 313 unpack f f;
#X obj 196 246 pack f f;
#X obj 196 219 notein;
#X text 195 188 lights;
#X obj 166 287 note-to-lights;
#X obj 324 108 oscparse;
#X obj 324 86 netreceive -u -b;
#X msg 324 31 listen 5000;
#X msg 336 59 listen 0;
#X obj 324 129 list trim;
#X obj 324 152 route long_notes lfos;
#X obj 325 4 loadbang;
#X obj 384 182 clone 18 lfo_sender;
#X connect 1 0 0 0;
#X connect 1 1 0 1;
#X connect 2 0 5 0;
#X connect 3 0 2 0;
#X connect 3 1 2 1;
#X connect 5 0 1 0;
#X connect 6 0 10 0;
#X connect 7 0 6 0;
#X connect 8 0 7 0;
#X connect 9 0 7 0;
#X connect 10 0 11 0;
#X connect 11 0 5 1;
#X connect 11 1 13 0;
#X connect 12 0 8 0;
