#N canvas 1230 26 420 460 10;
#X msg 267 152 0;
#X obj 267 128 loadbang;
#X obj 178 123 led_control;
#X obj 178 90 pack f f;
#X obj 212 272 uDMX;
#X msg 23 212 close;
#X msg 16 237 open;
#X obj 16 168 t b b;
#X obj 16 116 tgl 15 0 empty empty empty 17 7 0 10 -262144 -1 -1 1
1;
#X text -7 275 hacky fix for buggy uDMX stuff;
#X obj 178 63 notein;
#X obj 14 141 metro 1000;
#X obj 65 21 ctlin;
#X floatatom 67 58 5 0 0 0 - - -, f 5;
#X floatatom 87 83 5 0 0 0 - - -, f 5;
#X obj 20 92 loadbang;
#X connect 0 0 4 1;
#X connect 1 0 0 0;
#X connect 2 0 4 0;
#X connect 3 0 2 0;
#X connect 5 0 4 0;
#X connect 6 0 4 0;
#X connect 7 0 6 0;
#X connect 7 1 5 0;
#X connect 8 0 11 0;
#X connect 10 0 3 0;
#X connect 10 1 3 1;
#X connect 11 0 7 0;
#X connect 12 0 13 0;
#X connect 12 1 14 0;
#X connect 15 0 8 0;
