#N canvas 269 129 1372 883 10;
#X obj 534 231 hsl 128 15 0 127 0 0 empty empty empty -2 -8 0 10 -262144
-1 -1 0 1;
#X obj 736 202 hsl 128 15 0 255 0 0 empty empty empty -2 -8 0 10 -262144
-1 -1 0 1;
#X msg 733 242 43 \$1;
#X msg 712 271 42 \$1;
#X msg 720 306 3 \$1;
#X msg 770 306 7 \$1;
#X msg 762 271 25 \$1;
#X msg 518 647 43 \$1;
#X obj 515 597 line;
#X obj 514 524 sel 127 0;
#X msg 476 562 225 10;
#X msg 527 560 0 1000;
#X text 427 421 single light test;
#X text 462 300 sends envelopes from midi notes;
#X text 333 356 there are only 18 sensors - so clusters of 4 lights
need to be grouped together with one sound/note;
#X obj 486 325 clone 127 note-in-clone;
#X obj 481 473 route 0 1 2 3 4 5 6 7 8 9;
#X obj 515 623 int;
#X floatatom 577 267 5 0 0 0 - - -, f 5;
#X msg 531 271 43 \$1;
#X obj 747 419 ctlout;
#X obj 744 386 unpack \$2 \$1;
#X obj 340 226 notein;
#X obj 354 261 pack f f;
#X connect 0 0 19 0;
#X connect 0 0 18 0;
#X connect 1 0 2 0;
#X connect 1 0 3 0;
#X connect 1 0 6 0;
#X connect 1 0 4 0;
#X connect 1 0 5 0;
#X connect 7 0 21 0;
#X connect 8 0 17 0;
#X connect 9 0 10 0;
#X connect 9 1 11 0;
#X connect 10 0 8 0;
#X connect 11 0 8 0;
#X connect 16 0 9 0;
#X connect 16 1 9 0;
#X connect 16 2 9 0;
#X connect 16 3 9 0;
#X connect 16 4 9 0;
#X connect 16 5 9 0;
#X connect 16 6 9 0;
#X connect 16 7 9 0;
#X connect 17 0 7 0;
#X connect 19 0 21 0;
#X connect 21 0 20 1;
#X connect 21 1 20 0;
#X connect 23 0 16 0;
