#N canvas 54 437 1086 465 10;
#X obj 376 336 ctlout;
#X obj 376 136 vsl 15 128 0 127 0 0 empty empty empty 0 -9 0 10 -262144
-1 -1 0 1;
#X obj 376 282 pack f f;
#X floatatom 421 251 5 0 0 0 - - -, f 5;
#X msg 376 306 \$1 \$2;
#X text 344 107 intensity 0-127;
#X text 419 231 cc# / dmx channel;
#X obj 381 55 unpack f f;
#X obj 381 22 inlet;
#N canvas 0 22 792 605 turn_on_all_lights 0;
#X obj 246 211 f;
#X obj 289 211 + 1;
#X floatatom 246 348 5 0 0 0 - - -, f 5;
#X obj 214 150 tgl 15 0 empty empty empty 17 7 0 10 -262144 -1 -1 0
1;
#X obj 240 88 bng 15 250 50 0 empty empty empty 17 7 0 10 -262144 -1
-1;
#X obj 240 108 t b b;
#X msg 304 163 1;
#X obj 268 242 sel 512;
#X msg 269 268 0;
#X msg 240 131 1;
#X obj 240 172 metro 10;
#X obj 247 321 mod 513;
#X obj 247 407 outlet;
#X obj 229 40 inlet;
#X text 360 68 gets a bang and sends out ctrl 0 messages through all
512 channels;
#X text 359 16 sets all dmx channels to 0;
#X text 358 114 properly formated for ctlout;
#X msg 247 368 127 \$1;
#X connect 0 0 1 0;
#X connect 0 0 11 0;
#X connect 1 0 0 1;
#X connect 2 0 17 0;
#X connect 3 0 10 0;
#X connect 4 0 5 0;
#X connect 5 0 9 0;
#X connect 5 1 6 0;
#X connect 6 0 1 1;
#X connect 7 0 8 0;
#X connect 8 0 3 0;
#X connect 9 0 3 0;
#X connect 10 0 0 0;
#X connect 11 0 2 0;
#X connect 11 0 7 0;
#X connect 13 0 4 0;
#X connect 17 0 12 0;
#X restore 604 104 pd turn_on_all_lights;
#N canvas 0 22 792 605 turn_off_all_lights 0;
#X obj 246 211 f;
#X obj 289 211 + 1;
#X floatatom 246 348 5 0 0 0 - - -, f 5;
#X obj 214 150 tgl 15 0 empty empty empty 17 7 0 10 -262144 -1 -1 0
1;
#X obj 240 88 bng 15 250 50 0 empty empty empty 17 7 0 10 -262144 -1
-1;
#X obj 240 108 t b b;
#X msg 304 163 1;
#X obj 268 242 sel 512;
#X msg 269 268 0;
#X msg 240 131 1;
#X obj 240 172 metro 10;
#X obj 247 321 mod 513;
#X msg 247 368 0 \$1;
#X obj 247 407 outlet;
#X obj 229 40 inlet;
#X text 360 68 gets a bang and sends out ctrl 0 messages through all
512 channels;
#X text 359 16 sets all dmx channels to 0;
#X text 358 114 properly formated for ctlout;
#X connect 0 0 1 0;
#X connect 0 0 11 0;
#X connect 1 0 0 1;
#X connect 2 0 12 0;
#X connect 3 0 10 0;
#X connect 4 0 5 0;
#X connect 5 0 9 0;
#X connect 5 1 6 0;
#X connect 6 0 1 1;
#X connect 7 0 8 0;
#X connect 8 0 3 0;
#X connect 9 0 3 0;
#X connect 10 0 0 0;
#X connect 11 0 2 0;
#X connect 11 0 7 0;
#X connect 12 0 13 0;
#X connect 14 0 4 0;
#X restore 602 188 pd turn_off_all_lights;
#X obj 602 164 bng 15 250 50 0 empty empty empty 17 7 0 10 -262144
-1 -1;
#X obj 606 75 bng 15 250 50 0 empty empty empty 17 7 0 10 -262144 -1
-1;
#X obj 23 141 udmx-8;
#X connect 1 0 2 0;
#X connect 2 0 4 0;
#X connect 3 0 2 1;
#X connect 4 0 0 0;
#X connect 7 0 1 0;
#X connect 7 1 3 0;
#X connect 8 0 7 0;
#X connect 9 0 0 0;
#X connect 10 0 0 0;
#X connect 11 0 10 0;
#X connect 12 0 9 0;
