#N canvas 926 205 482 675 10;
#X obj 33 328 noise~;
#X obj 44 380 vcf~ 1;
#X obj 44 437 outlet~;
#X obj 44 404 *~ 0.5;
#X obj 97 357 *~ 3;
#X obj 118 264 inlet~;
#X text 168 260 lfo;
#X connect 0 0 1 0;
#X connect 1 0 3 0;
#X connect 3 0 2 0;
#X connect 4 0 1 1;
#X connect 5 0 4 0;
