#N canvas 116 23 1344 960 10;
#X text 564 335 controller mappings;
#X text 73 423 note 1 : 5 \, 6 \, 7 \, 8;
#X text 73 405 note 0 : 1 \, 2 \, 3 \, 4;
#X text 429 511 3 boxes/notes/sensors per controller;
#X text 464 533 18 boxes/notes/sensors total;
#X obj 534 8 inlet;
#X obj 453 305 outlet;
#X text 73 442 note 2 : 9 \, 10 \, 11 \, 12;
#X text 457 406 note 3 : 13 \, 14 \, 15 \, 16;
#X text 458 424 note 4 : 17 \, 18 \, 19 \, 20;
#X obj 76 212 s \$0-control;
#X obj 490 213 s \$0-control;
#X obj 453 282 r \$0-control;
#X obj 829 203 s \$0-control;
#X text 459 441 note 5 : 21 \, 22 \, 23 \, 24;
#X text 439 390 bits 1 3 and 4 on the controller;
#X text 85 386 bit 1 on the controller;
#X obj 529 29 s \$0-input;
#X text 849 389 note 6 : 25 \, 26 \, 27 \, 28;
#X text 852 409 note 7 : 29 \, 30 \, 31 \, 32;
#X text 852 429 note 8 : 33 \, 34 \, 35 \, 36;
#X obj 47 783 s \$0-control;
#X obj 493 784 s \$0-control;
#X obj 821 774 s \$0-control;
#X text 814 374 bits 4 \, 5 and 1 on the controller;
#X obj 154 47 r \$0-input;
#X obj 557 52 r \$0-input;
#X obj 891 34 r \$0-input;
#X obj 229 46 r \$0-long_notes;
#X obj 629 51 r \$0-long_notes;
#X obj 1000 60 r \$0-long_notes;
#X obj 771 13 inlet;
#X obj 771 36 s \$0-long_notes;
#X obj 34 131 4-light-controller 1 2 3 4;
#X obj 202 131 4-light-controller 5 6 7 8;
#X obj 385 131 4-light-controller 13 14 15 16;
#X obj 97 164 4-light-controller 9 10 11 12;
#X obj 577 131 4-light-controller 17 18 19 20;
#X obj 486 168 4-light-controller 21 22 23 24;
#X obj 781 131 4-light-controller 25 26 27 28;
#X obj 973 131 4-light-controller 29 30 31 32;
#X obj 844 164 4-light-controller 33 34 35 36;
#X obj 5 702 4-light-controller 37 38 39 40;
#X obj 193 702 4-light-controller 41 42 43 44;
#X obj 68 735 4-light-controller 45 46 47 48;
#X obj 388 702 4-light-controller 49 50 51 52;
#X obj 580 702 4-light-controller 53 54 55 56;
#X obj 489 739 4-light-controller 57 58 59 60;
#X obj 773 702 4-light-controller 61 62 63 64;
#X obj 965 702 4-light-controller 65 66 67 68;
#X obj 836 735 4-light-controller 69 70 71 72;
#X obj 93 585 r \$0-input;
#X obj 184 587 r \$0-long_notes;
#X obj 545 587 r \$0-input;
#X obj 649 597 r \$0-long_notes;
#X obj 910 625 r \$0-input;
#X obj 1028 622 r \$0-long_notes;
#X text 63 369 controller A (starts at 1);
#X text 450 375 controller B (starts at 13);
#X text 833 362 controller C (starts at 25);
#X text 52 845 controller D (starts at 37);
#X text 442 832 controller E (starts at 49);
#X text 822 838 controller F (starts at 61);
#X text 431 847 bits 5 6 and 1 on the controller;
#X text 61 866 bit 5 6 1 on the controller;
#X obj 154 75 route 17 0 1;
#X obj 232 76 route 17 0 1;
#X obj 548 76 route 2 3 4;
#X obj 624 75 route 2 3 4;
#X obj 917 86 route 5 6 7;
#X obj 995 84 route 5 6 7;
#X obj 93 637 route 8 9 10;
#X obj 184 636 route 8 9 10;
#X obj 551 647 route 11 12 13;
#X obj 649 646 route 11 12 13;
#X obj 909 657 route 14 15 16;
#X obj 1028 657 route 14 15 16;
#X obj 187 103 r lfo-17;
#X obj 350 103 r lfo-0;
#X obj 282 152 r lfo-1;
#X obj 561 103 r lfo-2;
#X obj 724 102 r lfo-3;
#X obj 679 157 r lfo-4;
#X obj 956 106 r lfo-5;
#X obj 1119 105 r lfo-6;
#X obj 1033 150 r lfo-7;
#X obj 175 665 r lfo-8;
#X obj 362 669 r lfo-9;
#X obj 259 725 r lfo-10;
#X obj 565 671 r lfo-11;
#X obj 748 665 r lfo-12;
#X obj 694 728 r lfo-13;
#X obj 946 678 r lfo-14;
#X obj 1139 676 r lfo-15;
#X obj 1032 722 r lfo-16;
#X text 801 857 1 \, 4 \, 8 \, 16 \, 32 - 1 \, 3 \, 4 \, 5 \, 6 on
the controller;
#X connect 5 0 17 0;
#X connect 12 0 6 0;
#X connect 25 0 65 0;
#X connect 26 0 67 0;
#X connect 27 0 69 0;
#X connect 28 0 66 0;
#X connect 29 0 68 0;
#X connect 30 0 70 0;
#X connect 31 0 32 0;
#X connect 33 0 10 0;
#X connect 34 0 10 0;
#X connect 35 0 11 0;
#X connect 36 0 10 0;
#X connect 37 0 11 0;
#X connect 38 0 11 0;
#X connect 39 0 13 0;
#X connect 40 0 13 0;
#X connect 41 0 13 0;
#X connect 42 0 21 0;
#X connect 43 0 21 0;
#X connect 44 0 21 0;
#X connect 45 0 22 0;
#X connect 46 0 22 0;
#X connect 47 0 22 0;
#X connect 48 0 23 0;
#X connect 49 0 23 0;
#X connect 50 0 23 0;
#X connect 51 0 71 0;
#X connect 52 0 72 0;
#X connect 53 0 73 0;
#X connect 54 0 74 0;
#X connect 55 0 75 0;
#X connect 56 0 76 0;
#X connect 65 0 33 0;
#X connect 65 1 34 0;
#X connect 65 2 36 0;
#X connect 66 0 33 1;
#X connect 66 1 34 1;
#X connect 66 2 36 1;
#X connect 67 0 35 0;
#X connect 67 1 37 0;
#X connect 67 2 38 0;
#X connect 68 0 35 1;
#X connect 68 1 37 1;
#X connect 68 2 38 1;
#X connect 69 0 39 0;
#X connect 69 1 40 0;
#X connect 69 2 41 0;
#X connect 70 0 39 1;
#X connect 70 1 40 1;
#X connect 70 2 41 1;
#X connect 71 0 42 0;
#X connect 71 1 43 0;
#X connect 71 2 44 0;
#X connect 72 0 42 1;
#X connect 72 1 43 1;
#X connect 72 2 44 1;
#X connect 73 0 45 0;
#X connect 73 1 46 0;
#X connect 73 2 47 0;
#X connect 74 0 45 1;
#X connect 74 1 46 1;
#X connect 74 2 47 1;
#X connect 75 0 48 0;
#X connect 75 1 49 0;
#X connect 75 2 50 0;
#X connect 76 0 48 1;
#X connect 76 1 49 1;
#X connect 76 2 50 1;
#X connect 77 0 33 2;
#X connect 78 0 34 2;
#X connect 79 0 36 2;
#X connect 80 0 35 2;
#X connect 81 0 37 2;
#X connect 82 0 38 2;
#X connect 83 0 39 2;
#X connect 84 0 40 2;
#X connect 85 0 41 2;
#X connect 86 0 42 2;
#X connect 87 0 43 2;
#X connect 88 0 44 2;
#X connect 89 0 45 2;
#X connect 90 0 46 2;
#X connect 91 0 47 2;
#X connect 92 0 48 2;
#X connect 93 0 49 2;
#X connect 94 0 50 2;
