#N canvas 1028 572 450 300 10;
#X obj 192 132 sel 127 0;
#X obj 191 199 line;
#X msg 152 164 225 10;
#X msg 203 164 0 1000;
#X obj 193 259 outlet;
#X obj 191 53 inlet;
#X text 56 16 for clone - takes a packed notein and triggers a simple
ad env;
#X connect 0 0 2 0;
#X connect 0 1 3 0;
#X connect 1 0 4 0;
#X connect 2 0 1 0;
#X connect 3 0 1 0;
#X connect 5 0 0 0;
