#N canvas 842 248 450 300 10;
#X obj 191 53 notein;
#X obj 192 132 sel 127 0;
#X obj 191 199 line;
#X msg 152 164 225 10;
#X msg 203 164 0 1000;
#X obj 192 103 route \$1;
#X obj 192 79 pack f f;
#X text 55 16 for clone - takes a notein and triggers a simple ad env
;
#X obj 193 259 outlet;
#X connect 0 0 6 0;
#X connect 0 1 6 1;
#X connect 1 0 3 0;
#X connect 1 1 4 0;
#X connect 2 0 8 0;
#X connect 3 0 2 0;
#X connect 4 0 2 0;
#X connect 5 0 1 0;
#X connect 6 0 5 0;
