#N canvas 174 32 814 680 10;
#X text 186 342 controller mappings;
#X text 72 410 note 1 : 5 \, 6 \, 7 \, 8;
#X text 72 392 note 0 : 1 \, 2 \, 3 \, 4;
#X text 57 466 3 boxes/notes/sensors per controller;
#X text 92 488 18 boxes/notes/sensors total;
#X obj 330 8 inlet;
#X obj 330 75 route 0 1 2 3 4 5 6 7 8 9 10 11 12 13 14 15 16 17;
#X obj 26 259 outlet;
#X text 72 429 note 2 : 9 \, 10 \, 11 \, 12;
#X text 256 409 note 4 : 5 \, 6 \, 7 \, 8;
#X text 256 428 note 5 : 9 \, 10 \, 11 \, 12;
#X text 63 369 controller 1 (starts at 1);
#X text 248 370 controller 2 (starts at 13);
#X text 255 391 note 3 : 13 \, 14 \, 15 \, 16;
#X obj 34 131 4-light-controller 1 2 3 4;
#X obj 202 131 4-light-controller 5 6 7 8;
#X obj 97 164 4-light-controller 9 10 11 12;
#X obj 291 263 print;
#X connect 5 0 6 0;
#X connect 6 0 14 0;
#X connect 6 1 15 0;
#X connect 6 2 16 0;
#X connect 14 0 7 0;
#X connect 14 0 17 0;
#X connect 15 0 7 0;
#X connect 16 0 7 0;
