#N canvas 0 22 552 335 10;
#X obj 149 47 inlet;
#X text 146 22 Control signal in e.g Fader;
#X text 208 134 Output;
#X obj 148 91 line;
#X obj 147 130 outlet;
#X msg 148 71 \$1 200;
#X connect 0 0 5 0;
#X connect 3 0 4 0;
#X connect 5 0 3 0;
