#N canvas 652 31 1236 859 10;
#N canvas 715 226 450 300 body 0;
#X obj 150 39 inlet~;
#X obj 162 212 outlet~;
#X obj 73 141 bp~ 60 10;
#X obj 165 115 bp~ 100 10;
#X obj 270 125 bp~ 160 10;
#X obj 244 34 inlet;
#X obj 282 34 inlet;
#X obj 320 34 inlet;
#X connect 0 0 2 0;
#X connect 0 0 3 0;
#X connect 0 0 4 0;
#X connect 2 0 1 0;
#X connect 3 0 1 0;
#X connect 4 0 1 0;
#X connect 5 0 2 1;
#X connect 6 0 3 1;
#X connect 7 0 4 1;
#X restore 252 580 pd body filter;
#X obj 277 378 vsl 15 128 0 127 0 0 empty empty empty 0 -9 0 10 -262144
-1 -1 10000 1;
#X obj 311 379 vsl 15 128 0 127 0 0 empty empty empty 0 -9 0 10 -262144
-1 -1 8000 1;
#X obj 345 379 vsl 15 128 0 127 0 0 empty empty empty 0 -9 0 10 -262144
-1 -1 6000 1;
#X obj 277 519 mtof;
#X obj 311 519 mtof;
#X obj 344 519 mtof;
#X obj 342 549 nozip-ctrl;
#X obj 272 550 nozip-ctrl;
#X obj 411 550 nozip-ctrl;
#X obj 1349 -17 r ctlin;
#X obj 281 301 r ctlin;
#X obj 280 322 route 6;
#X obj 338 300 r ctlin;
#X obj 337 321 route 7;
#X obj 394 298 r ctlin;
#X obj 393 319 route 8;
#X obj 18 -7 inlet;
#X obj 11 28 s notein;
#X obj 181 -15 inlet;
#X obj 174 20 s ctlin;
#X obj 325 190 loadbang;
#X msg 318 231 100;
#X msg 385 228 60;
#X msg 353 230 80;
#X obj 249 705 outlet~;
#X obj 457 163 outlet;
#X obj 206 131 clone 18 karplus_strong_clone;
#X obj 250 610 *~ 0.5;
#X connect 0 0 28 0;
#X connect 1 0 4 0;
#X connect 2 0 5 0;
#X connect 3 0 6 0;
#X connect 4 0 8 0;
#X connect 5 0 7 0;
#X connect 6 0 9 0;
#X connect 7 0 0 2;
#X connect 8 0 0 1;
#X connect 9 0 0 3;
#X connect 11 0 12 0;
#X connect 12 0 1 0;
#X connect 13 0 14 0;
#X connect 14 0 2 0;
#X connect 15 0 16 0;
#X connect 16 0 3 0;
#X connect 17 0 18 0;
#X connect 19 0 20 0;
#X connect 21 0 22 0;
#X connect 21 0 24 0;
#X connect 21 0 23 0;
#X connect 22 0 1 0;
#X connect 23 0 3 0;
#X connect 24 0 2 0;
#X connect 27 0 0 0;
#X connect 27 1 26 0;
#X connect 28 0 25 0;
