#N canvas 0 22 644 327 10;
#X obj 294 57 inlet~;
#X obj 477 128 *~ 0.2;
#X obj 285 189 outlet~;
#X obj 161 128 bp~ 125 1;
#X obj 224 128 bp~ 250 1;
#X obj 287 128 bp~ 395 1;
#X obj 351 128 bp~ 560 1;
#X obj 414 128 bp~ 790 1;
#X obj 80 128 bp~ 62.5 0.4;
#X connect 0 0 1 0;
#X connect 0 0 3 0;
#X connect 0 0 4 0;
#X connect 0 0 5 0;
#X connect 0 0 6 0;
#X connect 0 0 7 0;
#X connect 0 0 8 0;
#X connect 1 0 2 0;
#X connect 3 0 2 0;
#X connect 4 0 2 0;
#X connect 5 0 2 0;
#X connect 6 0 2 0;
#X connect 7 0 2 0;
#X connect 8 0 2 0;
