#N canvas 166 119 1548 811 10;
#N canvas 715 226 450 300 body 0;
#X obj 150 39 inlet~;
#X obj 162 212 outlet~;
#X obj 73 141 bp~ 60 10;
#X obj 165 115 bp~ 100 10;
#X obj 270 125 bp~ 160 10;
#X obj 244 34 inlet;
#X obj 282 34 inlet;
#X obj 320 34 inlet;
#X connect 0 0 2 0;
#X connect 0 0 3 0;
#X connect 0 0 4 0;
#X connect 2 0 1 0;
#X connect 3 0 1 0;
#X connect 4 0 1 0;
#X connect 5 0 2 1;
#X connect 6 0 3 1;
#X connect 7 0 4 1;
#X restore 252 580 pd body filter;
#X obj 249 705 dac~;
#X obj 277 378 vsl 15 128 0 127 0 0 empty empty empty 0 -9 0 10 -262144
-1 -1 0 1;
#X obj 311 379 vsl 15 128 0 127 0 0 empty empty empty 0 -9 0 10 -262144
-1 -1 9800 1;
#X obj 345 379 vsl 15 128 0 127 0 0 empty empty empty 0 -9 0 10 -262144
-1 -1 9400 1;
#X obj 277 519 mtof;
#X obj 311 519 mtof;
#X obj 344 519 mtof;
#X obj 342 549 nozip-ctrl;
#X obj 272 550 nozip-ctrl;
#X obj 411 550 nozip-ctrl;
#X obj 80 69 vsl 15 128 0 10 0 0 empty empty empty 0 -9 0 10 -262144
-1 -1 0 1;
#X text 105 100 string excitation;
#X obj 238 71 vsl 15 128 0 10 0 0 empty empty empty 0 -9 0 10 -262144
-1 -1 0 1;
#X obj 238 45 jrange 0 126 0 10;
#X text 263 102 string excitation;
#X obj 401 77 vsl 15 128 0 10 0 0 empty empty empty 0 -9 0 10 -262144
-1 -1 0 1;
#X obj 401 51 jrange 0 126 0 10;
#X text 426 108 string excitation;
#X obj 563 77 vsl 15 128 0 10 0 0 empty empty empty 0 -9 0 10 -262144
-1 -1 0 1;
#X obj 563 51 jrange 0 126 0 10;
#X text 588 108 string excitation;
#X obj 19 147 route 56;
#X obj 19 125 pack f f;
#X obj 18 102 notein;
#X obj 276 347 ctlin 6;
#X obj 332 347 ctlin 7;
#X obj 389 347 ctlin 8;
#X obj 80 18 ctlin 9;
#X obj 238 20 ctlin 9;
#X obj 401 26 ctlin 9;
#X obj 563 26 ctlin 9;
#X obj 180 144 pack f f;
#X obj 179 121 notein;
#X obj 180 188 tgl 15 0 empty empty empty 17 7 0 10 -262144 -1 -1 0
1;
#X obj 343 153 pack f f;
#X obj 342 130 notein;
#X obj 343 197 tgl 15 0 empty empty empty 17 7 0 10 -262144 -1 -1 0
1;
#X obj 507 154 pack f f;
#X obj 506 131 notein;
#X obj 507 198 tgl 15 0 empty empty empty 17 7 0 10 -262144 -1 -1 0
1;
#X obj 180 166 route 57;
#X obj 343 175 route 58;
#X obj 507 176 route 59;
#X obj 19 183 tgl 15 0 empty empty empty 17 7 0 10 -262144 -1 -1 0
1;
#X obj 22 210 karplus_strong~ 60;
#X obj 180 212 karplus_strong~ 63;
#X obj 343 218 karplus_strong~ 65;
#X obj 505 218 karplus_strong~ 67;
#X obj 764 71 vsl 15 128 0 10 0 0 empty empty empty 0 -9 0 10 -262144
-1 -1 0 1;
#X obj 764 45 jrange 0 126 0 10;
#X text 789 102 string excitation;
#X obj 764 20 ctlin 9;
#X obj 958 69 vsl 15 128 0 10 0 0 empty empty empty 0 -9 0 10 -262144
-1 -1 0 1;
#X obj 958 43 jrange 0 126 0 10;
#X text 983 100 string excitation;
#X obj 958 18 ctlin 9;
#X obj 1156 58 vsl 15 128 0 10 0 0 empty empty empty 0 -9 0 10 -262144
-1 -1 0 1;
#X obj 1156 32 jrange 0 126 0 10;
#X text 1181 89 string excitation;
#X obj 1156 7 ctlin 9;
#X obj 1098 199 karplus_strong~ 67;
#X obj 705 147 pack f f;
#X obj 704 124 notein;
#X obj 705 191 tgl 15 0 empty empty empty 17 7 0 10 -262144 -1 -1 0
1;
#X obj 900 143 pack f f;
#X obj 899 120 notein;
#X obj 900 187 tgl 15 0 empty empty empty 17 7 0 10 -262144 -1 -1 0
1;
#X obj 1098 134 pack f f;
#X obj 1097 111 notein;
#X obj 1098 178 tgl 15 0 empty empty empty 17 7 0 10 -262144 -1 -1
0 1;
#X obj 705 169 route 60;
#X obj 900 165 route 61;
#X obj 1098 156 route 62;
#X obj 706 212 karplus_strong~ 70;
#X obj 900 210 karplus_strong~ 72;
#X obj 1348 56 vsl 15 128 0 10 0 0 empty empty empty 0 -9 0 10 -262144
-1 -1 0 1;
#X obj 1348 30 jrange 0 126 0 10;
#X text 1373 87 string excitation;
#X obj 1348 5 ctlin 9;
#X obj 1290 132 pack f f;
#X obj 1289 109 notein;
#X obj 1290 176 tgl 15 0 empty empty empty 17 7 0 10 -262144 -1 -1
0 1;
#X obj 1290 154 route 63;
#X obj 1290 197 karplus_strong~ 65;
#X obj 576 710 dac~, f 6;
#N canvas 80 47 1620 1005 steam-pipe 0;
#X msg 78 163 /Flute/Basic-Parameters/gate \$1;
#X obj 39 118 tgl 15 0 empty empty empty 17 7 0 10 -262144 -1 -1 0
1;
#X obj 73 74 route 56;
#X obj 73 52 pack f f;
#X obj 72 29 notein;
#X msg 164 133 Flute/Basic-Parameters/freq \$1;
#X obj 164 54 loadbang;
#X obj 164 99 mtof;
#X msg 164 76 53;
#X obj 936 217 Flute;
#X msg 936 190 /Flute/Basic-Parameters/gate \$1;
#X obj 897 145 tgl 15 0 empty empty empty 17 7 0 10 -262144 -1 -1 0
1;
#X obj 931 79 pack f f;
#X obj 930 56 notein;
#X msg 1022 160 Flute/Basic-Parameters/freq \$1;
#X obj 1022 81 loadbang;
#X obj 1022 126 mtof;
#X obj 931 101 route 57;
#X obj 442 758 outlet~;
#X obj 582 754 outlet~;
#X obj 411 661 throw~ \$0-left;
#X obj 747 666 throw~ \$0-right;
#X obj 429 716 catch~ \$0-left;
#X obj 569 712 catch~ \$0-right;
#X obj 1121 703 throw~ \$0-left;
#X obj 1371 715 throw~ \$0-right;
#X obj 78 190 Flute;
#X msg 1022 103 48;
#X obj 957 926 Flute;
#X msg 957 899 /Flute/Basic-Parameters/gate \$1;
#X obj 960 873 tgl 15 0 empty empty empty 17 7 0 10 -262144 -1 -1 0
1;
#X obj 960 819 pack f f;
#X obj 959 796 notein;
#X msg 1043 869 Flute/Basic-Parameters/freq \$1;
#X obj 1043 790 loadbang;
#X obj 1043 835 mtof;
#X obj 1142 1412 throw~ \$0-left;
#X obj 1392 1424 throw~ \$0-right;
#X obj 164 909 Flute;
#X msg 164 882 /Flute/Basic-Parameters/gate \$1;
#X obj 167 856 tgl 15 0 empty empty empty 17 7 0 10 -262144 -1 -1 0
1;
#X obj 167 802 pack f f;
#X obj 166 779 notein;
#X msg 250 852 Flute/Basic-Parameters/freq \$1;
#X obj 250 773 loadbang;
#X obj 250 818 mtof;
#X obj 349 1395 throw~ \$0-left;
#X obj 599 1407 throw~ \$0-right;
#X obj 167 824 route 58;
#X msg 250 795 46;
#X obj 960 841 route 59;
#X msg 1043 812 53;
#X msg 1730 195 /Flute/Basic-Parameters/gate \$1;
#X obj 1691 150 tgl 15 0 empty empty empty 17 7 0 10 -262144 -1 -1
0 1;
#X obj 1725 84 pack f f;
#X obj 1724 61 notein;
#X msg 1816 165 Flute/Basic-Parameters/freq \$1;
#X obj 1816 86 loadbang;
#X obj 1816 131 mtof;
#X obj 2588 249 Flute;
#X msg 2588 222 /Flute/Basic-Parameters/gate \$1;
#X obj 2549 177 tgl 15 0 empty empty empty 17 7 0 10 -262144 -1 -1
0 1;
#X obj 2583 111 pack f f;
#X obj 2582 88 notein;
#X msg 2674 192 Flute/Basic-Parameters/freq \$1;
#X obj 2674 113 loadbang;
#X obj 2674 158 mtof;
#X obj 2063 693 throw~ \$0-left;
#X obj 2399 698 throw~ \$0-right;
#X obj 2773 735 throw~ \$0-left;
#X obj 3023 747 throw~ \$0-right;
#X obj 1730 222 Flute;
#X obj 2609 958 Flute;
#X msg 2609 931 /Flute/Basic-Parameters/gate \$1;
#X obj 2612 905 tgl 15 0 empty empty empty 17 7 0 10 -262144 -1 -1
0 1;
#X obj 2612 851 pack f f;
#X obj 2611 828 notein;
#X msg 2695 901 Flute/Basic-Parameters/freq \$1;
#X obj 2695 822 loadbang;
#X obj 2695 867 mtof;
#X obj 2794 1444 throw~ \$0-left;
#X obj 3044 1456 throw~ \$0-right;
#X obj 1816 941 Flute;
#X msg 1816 914 /Flute/Basic-Parameters/gate \$1;
#X obj 1819 888 tgl 15 0 empty empty empty 17 7 0 10 -262144 -1 -1
0 1;
#X obj 1819 834 pack f f;
#X obj 1818 811 notein;
#X msg 1902 884 Flute/Basic-Parameters/freq \$1;
#X obj 1902 805 loadbang;
#X obj 1902 850 mtof;
#X obj 2001 1427 throw~ \$0-left;
#X obj 2251 1439 throw~ \$0-right;
#X obj 1725 106 route 60;
#X obj 2583 133 route 61;
#X obj 1819 856 route 62;
#X obj 2612 873 route 63;
#X msg 2673 137 60;
#X msg 1816 108 58;
#X msg 1902 828 53;
#X msg 2695 844 46;
#X connect 0 0 26 0;
#X connect 1 0 0 0;
#X connect 2 0 1 0;
#X connect 3 0 2 0;
#X connect 4 0 3 0;
#X connect 4 1 3 1;
#X connect 5 0 26 0;
#X connect 6 0 8 0;
#X connect 7 0 5 0;
#X connect 8 0 7 0;
#X connect 9 1 24 0;
#X connect 9 2 25 0;
#X connect 10 0 9 0;
#X connect 11 0 10 0;
#X connect 12 0 17 0;
#X connect 13 0 12 0;
#X connect 13 1 12 1;
#X connect 14 0 9 0;
#X connect 15 0 27 0;
#X connect 16 0 14 0;
#X connect 17 0 11 0;
#X connect 22 0 18 0;
#X connect 23 0 19 0;
#X connect 26 1 20 0;
#X connect 26 2 21 0;
#X connect 27 0 16 0;
#X connect 28 1 36 0;
#X connect 28 2 37 0;
#X connect 29 0 28 0;
#X connect 30 0 29 0;
#X connect 31 0 50 0;
#X connect 32 0 31 0;
#X connect 32 1 31 1;
#X connect 33 0 28 0;
#X connect 34 0 51 0;
#X connect 35 0 33 0;
#X connect 38 1 46 0;
#X connect 38 2 47 0;
#X connect 39 0 38 0;
#X connect 40 0 39 0;
#X connect 41 0 48 0;
#X connect 42 0 41 0;
#X connect 42 1 41 1;
#X connect 43 0 38 0;
#X connect 44 0 49 0;
#X connect 45 0 43 0;
#X connect 48 0 40 0;
#X connect 49 0 45 0;
#X connect 50 0 30 0;
#X connect 51 0 35 0;
#X connect 52 0 71 0;
#X connect 53 0 52 0;
#X connect 54 0 92 0;
#X connect 55 0 54 0;
#X connect 55 1 54 1;
#X connect 56 0 71 0;
#X connect 57 0 97 0;
#X connect 58 0 56 0;
#X connect 59 1 69 0;
#X connect 59 2 70 0;
#X connect 60 0 59 0;
#X connect 61 0 60 0;
#X connect 62 0 93 0;
#X connect 63 0 62 0;
#X connect 63 1 62 1;
#X connect 64 0 59 0;
#X connect 65 0 96 0;
#X connect 66 0 64 0;
#X connect 71 1 67 0;
#X connect 71 2 68 0;
#X connect 72 1 80 0;
#X connect 72 2 81 0;
#X connect 73 0 72 0;
#X connect 74 0 73 0;
#X connect 75 0 95 0;
#X connect 76 0 75 0;
#X connect 76 1 75 1;
#X connect 77 0 72 0;
#X connect 78 0 99 0;
#X connect 79 0 77 0;
#X connect 82 1 90 0;
#X connect 82 2 91 0;
#X connect 83 0 82 0;
#X connect 84 0 83 0;
#X connect 85 0 94 0;
#X connect 86 0 85 0;
#X connect 86 1 85 1;
#X connect 87 0 82 0;
#X connect 88 0 98 0;
#X connect 89 0 87 0;
#X connect 92 0 53 0;
#X connect 93 0 61 0;
#X connect 94 0 84 0;
#X connect 95 0 74 0;
#X connect 96 0 66 0;
#X connect 97 0 58 0;
#X connect 98 0 89 0;
#X connect 99 0 79 0;
#X restore 582 522 pd steam-pipe;
#N canvas 715 226 450 300 body 0;
#X obj 150 39 inlet~;
#X obj 162 212 outlet~;
#X obj 73 141 bp~ 60 10;
#X obj 165 115 bp~ 100 10;
#X obj 270 125 bp~ 160 10;
#X obj 244 34 inlet;
#X obj 282 34 inlet;
#X obj 320 34 inlet;
#X connect 0 0 2 0;
#X connect 0 0 3 0;
#X connect 0 0 4 0;
#X connect 2 0 1 0;
#X connect 3 0 1 0;
#X connect 4 0 1 0;
#X connect 5 0 2 1;
#X connect 6 0 3 1;
#X connect 7 0 4 1;
#X restore 588 604 pd body filter2;
#X obj 685 388 vsl 15 128 0 127 0 0 empty empty empty 0 -9 0 10 -262144
-1 -1 0 1;
#X obj 719 389 vsl 15 128 0 127 0 0 empty empty empty 0 -9 0 10 -262144
-1 -1 0 1;
#X obj 753 389 vsl 15 128 0 127 0 0 empty empty empty 0 -9 0 10 -262144
-1 -1 0 1;
#X obj 685 529 mtof;
#X obj 719 529 mtof;
#X obj 752 529 mtof;
#X obj 750 559 nozip-ctrl;
#X obj 680 560 nozip-ctrl;
#X obj 819 560 nozip-ctrl;
#N canvas 15 98 622 480 presets 0;
#X obj 40 26 inlet;
#X msg 43 122 \; param1 0 \; param2 22050 \; param3 22050 \; param4
0.5 \; param5 0.75 \; param6 0.625 \; param7 0.7 \; param8 0.5 \; param9
0.53761 \;;
#X msg 116 307 \; param1 0 \; param2 10000 \; param3 4637 \; param4
0.98 \; param5 0.685 \; param6 0.779 \; param7 0.74 \; param8 0.68
\; param9 0.53761 \;;
#X msg 199 123 \; param1 0 \; param2 10000 \; param3 4637 \; param4
0.98 \; param5 0.685 \; param6 0.779 \; param7 0.74 \; param8 0.68
\; param9 0 \;;
#X msg 278 304 \; param1 10 \; param2 10000 \; param3 4637 \; param4
0.99 \; param5 0.685 \; param6 0.779 \; param7 0.889 \; param8 0.84
\; param9 0.53761 \;;
#X msg 359 131 \; param1 10 \; param2 10000 \; param3 4637 \; param4
0.99 \; param5 0.685 \; param6 0.779 \; param7 0.889 \; param8 0.84
\; param9 0 \;;
#X msg 443 303 \; param1 216.535 \; param2 22050 \; param3 22050 \;
param4 0.677165 \; param5 0.850394 \; param6 0.92126 \; param7 0.80315
\; param8 0.818898 \; param9 0.11811 \;;
#X obj 39 70 route default large large_noexcursion huge huge_noexcursion
tadada;
#X connect 0 0 7 0;
#X connect 7 0 1 0;
#X connect 7 1 2 0;
#X connect 7 2 3 0;
#X connect 7 3 4 0;
#X connect 7 4 5 0;
#X connect 7 5 6 0;
#X restore 98 699 pd presets;
#X msg 98 557 default;
#X msg 98 626 huge;
#X msg 98 649 huge_noexcursion;
#X msg 98 580 large;
#X msg 98 603 large_noexcursion;
#X msg 98 672 tadada;
#X obj 80 43 jrange 0 126 0 20;
#X obj 684 357 ctlin 1;
#X obj 740 357 ctlin 2;
#X obj 797 357 ctlin 3;
#X obj 627 654 hsl 128 15 0 1 0 0 empty empty empty -2 -8 0 10 -262144
-1 -1 0 1;
#N canvas 670 63 280 336 edit_params 0;
#X obj 25 92 hsl 128 15 220.5 22050 1 0 param3 param3 damping -2 -8
0 10 -262144 -1 -1 8400 0;
#X floatatom 157 91 10 0 0 0 - param3 damping, f 10;
#X obj 25 123 hsl 128 15 0 1 0 0 param4 param4 decay -2 -8 0 10 -262144
-1 -1 12573 0;
#X floatatom 157 122 10 0 0 0 - param4 decay, f 10;
#X obj 25 28 hsl 128 15 0 250 0 0 param1 param1 predelay -2 -8 0 10
-262144 -1 -1 508 0;
#X floatatom 157 27 10 0 0 0 - param1 predelay, f 10;
#X obj 25 60 hsl 128 15 220.5 22050 1 0 param2 param2 bandwidth -2
-8 0 10 -262144 -1 -1 10519 0;
#X floatatom 157 59 10 0 0 0 - param2 bandwidth, f 10;
#X obj 24 191 hsl 128 15 0 1 0 0 param6 param6 input_diffusion_2 -2
-8 0 10 -262144 -1 -1 9893 0;
#X floatatom 156 190 10 0 0 0 - param6 input_diffusion2, f 10;
#X obj 25 156 hsl 128 15 0 1 0 0 param5 param5 input_diffusion_1 -2
-8 0 10 -262144 -1 -1 8700 0;
#X floatatom 157 155 10 0 0 0 - param5 input_diffusion1, f 10;
#X obj 23 255 hsl 128 15 0 1 0 0 param8 param8 decay_diffusion_2 -2
-8 0 10 -262144 -1 -1 10668 0;
#X floatatom 155 254 10 0 0 0 - param8 decay_diffusion2, f 10;
#X obj 24 222 hsl 128 15 0 1 0 0 param7 param7 decay_diffusion_1 -2
-8 0 10 -262144 -1 -1 11290 0;
#X floatatom 156 221 10 0 0 0 - param7 decay_diffusion1, f 10;
#X obj 23 287 hsl 128 15 0 5 0 0 param9 param9 excursion -2 -8 0 10
-262144 -1 -1 1366 0;
#X floatatom 155 286 10 0 0 0 - param9 excursion, f 10;
#X restore 61 526 pd edit_params;
#X obj 397 659 hsl 128 15 0 1 0 0 empty empty empty -2 -8 0 10 -262144
-1 -1 0 1;
#X obj 35 583 loadbang;
#X floatatom 640 682 5 0 0 0 - - -, f 5;
#X obj 579 679 *~ 0.8;
#X floatatom 455 705 5 0 0 0 - - -, f 5;
#X obj 392 699 *~ 0.1;
#X obj 250 610 *~ 1;
#X obj 1082 347 hsl 128 15 0 255 0 0 empty empty empty -2 -8 0 10 -262144
-1 -1 0 1;
#X msg 1079 387 43 \$1;
#X obj 1230 504 DMX_frames 144;
#X obj 1284 318 hsl 128 15 0 255 0 0 empty empty empty -2 -8 0 10 -262144
-1 -1 0 1;
#X msg 1281 358 43 \$1;
#X msg 1260 387 42 \$1;
#X msg 1268 422 3 \$1;
#X msg 1318 422 7 \$1;
#X msg 1310 387 25 \$1;
#X obj 1029 589 route 56 57 58 59 60 61 62 63;
#X obj 1099 517 notein;
#X obj 1099 543 pack f f;
#X msg 1063 737 43 \$1;
#X obj 1063 713 line;
#X obj 1062 640 sel 127 0;
#X msg 1024 678 225 10;
#X msg 1075 676 0 1000;
#X text 975 537 single light test;
#X obj 1034 441 clone 127 note-in-clone;
#X text 1010 416 sends envelopes from midi notes;
#X text 881 472 there are only 18 sensors - so clusters of 4 lights
need to be grouped together with one sound/note;
#X connect 0 0 115 0;
#X connect 0 0 116 0;
#X connect 2 0 5 0;
#X connect 3 0 6 0;
#X connect 4 0 7 0;
#X connect 5 0 9 0;
#X connect 6 0 8 0;
#X connect 7 0 10 0;
#X connect 8 0 0 2;
#X connect 9 0 0 1;
#X connect 10 0 0 3;
#X connect 11 0 45 2;
#X connect 13 0 46 2;
#X connect 14 0 13 0;
#X connect 16 0 47 2;
#X connect 17 0 16 0;
#X connect 19 0 48 2;
#X connect 20 0 19 0;
#X connect 22 0 44 0;
#X connect 23 0 22 0;
#X connect 24 0 23 0;
#X connect 24 1 23 1;
#X connect 25 0 2 0;
#X connect 26 0 3 0;
#X connect 27 0 4 0;
#X connect 28 0 104 0;
#X connect 29 0 14 0;
#X connect 30 0 17 0;
#X connect 31 0 20 0;
#X connect 32 0 41 0;
#X connect 33 0 32 0;
#X connect 33 1 32 1;
#X connect 34 0 46 0;
#X connect 35 0 42 0;
#X connect 36 0 35 0;
#X connect 36 1 35 1;
#X connect 37 0 47 0;
#X connect 38 0 43 0;
#X connect 39 0 38 0;
#X connect 39 1 38 1;
#X connect 40 0 48 0;
#X connect 41 0 34 0;
#X connect 42 0 37 0;
#X connect 43 0 40 0;
#X connect 44 0 45 0;
#X connect 45 0 0 0;
#X connect 46 0 0 0;
#X connect 47 0 0 0;
#X connect 48 0 0 0;
#X connect 49 0 74 2;
#X connect 50 0 49 0;
#X connect 52 0 50 0;
#X connect 53 0 75 2;
#X connect 54 0 53 0;
#X connect 56 0 54 0;
#X connect 57 0 61 2;
#X connect 58 0 57 0;
#X connect 60 0 58 0;
#X connect 61 0 0 0;
#X connect 62 0 71 0;
#X connect 63 0 62 0;
#X connect 63 1 62 1;
#X connect 64 0 74 0;
#X connect 65 0 72 0;
#X connect 66 0 65 0;
#X connect 66 1 65 1;
#X connect 67 0 75 0;
#X connect 68 0 73 0;
#X connect 69 0 68 0;
#X connect 69 1 68 1;
#X connect 70 0 61 0;
#X connect 71 0 64 0;
#X connect 72 0 67 0;
#X connect 73 0 70 0;
#X connect 74 0 0 0;
#X connect 75 0 0 0;
#X connect 76 0 84 2;
#X connect 77 0 76 0;
#X connect 79 0 77 0;
#X connect 80 0 83 0;
#X connect 81 0 80 0;
#X connect 81 1 80 1;
#X connect 82 0 84 0;
#X connect 83 0 82 0;
#X connect 84 0 0 0;
#X connect 86 0 87 0;
#X connect 86 1 87 0;
#X connect 87 0 113 0;
#X connect 88 0 91 0;
#X connect 89 0 92 0;
#X connect 90 0 93 0;
#X connect 91 0 95 0;
#X connect 92 0 94 0;
#X connect 93 0 96 0;
#X connect 94 0 87 2;
#X connect 95 0 87 1;
#X connect 96 0 87 3;
#X connect 98 0 97 0;
#X connect 99 0 97 0;
#X connect 100 0 97 0;
#X connect 101 0 97 0;
#X connect 102 0 97 0;
#X connect 103 0 97 0;
#X connect 104 0 11 0;
#X connect 105 0 88 0;
#X connect 106 0 89 0;
#X connect 107 0 90 0;
#X connect 108 0 112 0;
#X connect 108 0 113 1;
#X connect 110 0 114 0;
#X connect 110 0 115 1;
#X connect 111 0 99 0;
#X connect 113 0 85 0;
#X connect 113 0 85 1;
#X connect 113 0 115 0;
#X connect 116 0 1 0;
#X connect 116 0 1 1;
#X connect 117 0 118 0;
#X connect 118 0 119 0;
#X connect 120 0 121 0;
#X connect 120 0 122 0;
#X connect 120 0 125 0;
#X connect 120 0 123 0;
#X connect 120 0 124 0;
#X connect 121 0 119 0;
#X connect 122 0 119 0;
#X connect 123 0 119 0;
#X connect 124 0 119 0;
#X connect 125 0 119 0;
#X connect 126 0 131 0;
#X connect 126 1 131 0;
#X connect 126 2 131 0;
#X connect 126 3 131 0;
#X connect 126 4 131 0;
#X connect 126 5 131 0;
#X connect 126 6 131 0;
#X connect 126 7 131 0;
#X connect 127 0 128 0;
#X connect 127 1 128 1;
#X connect 128 0 126 0;
#X connect 130 0 129 0;
#X connect 131 0 132 0;
#X connect 131 1 133 0;
#X connect 132 0 130 0;
#X connect 133 0 130 0;
#X connect 135 0 119 0;
