#N canvas 748 252 1236 859 10;
#X obj 1349 -17 r ctlin;
#X obj 18 -7 inlet;
#X obj 11 28 s notein;
#X obj 181 -15 inlet;
#X obj 174 20 s ctlin;
#X obj 132 346 outlet~;
#X obj 385 193 outlet;
#X obj 134 255 lop~ 50;
#X obj 63 231 lop~ 50;
#X obj 130 209 pluck_resonators~;
#X obj 137 160 clone 18 karplus_strong_clone;
#X obj 143 297 *~ 1;
#X obj 86 271 *~ 0.3;
#X connect 1 0 2 0;
#X connect 3 0 4 0;
#X connect 7 0 11 0;
#X connect 8 0 12 0;
#X connect 9 0 7 0;
#X connect 10 0 8 0;
#X connect 10 0 9 0;
#X connect 10 1 6 0;
#X connect 11 0 5 0;
#X connect 12 0 5 0;
