#N canvas 51 174 1548 811 10;
#N canvas 715 226 450 300 body 0;
#X obj 150 39 inlet~;
#X obj 162 212 outlet~;
#X obj 73 141 bp~ 60 10;
#X obj 165 115 bp~ 100 10;
#X obj 270 125 bp~ 160 10;
#X obj 244 34 inlet;
#X obj 282 34 inlet;
#X obj 320 34 inlet;
#X connect 0 0 2 0;
#X connect 0 0 3 0;
#X connect 0 0 4 0;
#X connect 2 0 1 0;
#X connect 3 0 1 0;
#X connect 4 0 1 0;
#X connect 5 0 2 1;
#X connect 6 0 3 1;
#X connect 7 0 4 1;
#X restore 252 580 pd body filter;
#X obj 249 705 dac~;
#X obj 277 378 vsl 15 128 0 127 0 0 empty empty empty 0 -9 0 10 -262144
-1 -1 9800 1;
#X obj 311 379 vsl 15 128 0 127 0 0 empty empty empty 0 -9 0 10 -262144
-1 -1 6900 1;
#X obj 345 379 vsl 15 128 0 127 0 0 empty empty empty 0 -9 0 10 -262144
-1 -1 11100 1;
#X obj 277 519 mtof;
#X obj 311 519 mtof;
#X obj 344 519 mtof;
#X obj 342 549 nozip-ctrl;
#X obj 272 550 nozip-ctrl;
#X obj 411 550 nozip-ctrl;
#X obj 576 710 dac~, f 6;
#N canvas 715 226 450 300 body 0;
#X obj 150 39 inlet~;
#X obj 162 212 outlet~;
#X obj 73 141 bp~ 60 10;
#X obj 165 115 bp~ 100 10;
#X obj 270 125 bp~ 160 10;
#X obj 244 34 inlet;
#X obj 282 34 inlet;
#X obj 320 34 inlet;
#X connect 0 0 2 0;
#X connect 0 0 3 0;
#X connect 0 0 4 0;
#X connect 2 0 1 0;
#X connect 3 0 1 0;
#X connect 4 0 1 0;
#X connect 5 0 2 1;
#X connect 6 0 3 1;
#X connect 7 0 4 1;
#X restore 588 604 pd body filter2;
#X obj 685 388 vsl 15 128 0 127 0 0 empty empty empty 0 -9 0 10 -262144
-1 -1 9200 1;
#X obj 719 389 vsl 15 128 0 127 0 0 empty empty empty 0 -9 0 10 -262144
-1 -1 12400 1;
#X obj 753 389 vsl 15 128 0 127 0 0 empty empty empty 0 -9 0 10 -262144
-1 -1 11400 1;
#X obj 685 529 mtof;
#X obj 719 529 mtof;
#X obj 752 529 mtof;
#X obj 750 559 nozip-ctrl;
#X obj 680 560 nozip-ctrl;
#X obj 819 560 nozip-ctrl;
#X obj 627 654 hsl 128 15 0 1 0 0 empty empty empty -2 -8 0 10 -262144
-1 -1 0 1;
#X floatatom 640 682 5 0 0 0 - - -, f 5;
#X obj 579 679 *~ 0.8;
#X obj 250 610 *~ 1;
#X msg 1024 467 \; pd dsp 1;
#X obj 1024 443 loadbang;
#X obj 1154 -12 r ctlin;
#X obj 1349 -17 r ctlin;
#X obj 281 301 r ctlin;
#X obj 280 322 route 6;
#X obj 338 300 r ctlin;
#X obj 337 321 route 7;
#X obj 394 298 r ctlin;
#X obj 393 319 route 8;
#X obj 689 298 r ctlin;
#X obj 746 297 r ctlin;
#X obj 802 295 r ctlin;
#X obj 688 319 route 1;
#X obj 745 318 route 2;
#X obj 801 316 route 3;
#X obj 18 -7 inlet;
#X obj 11 28 s notein;
#X obj 181 -15 inlet;
#X obj 174 20 s ctlin;
#X obj 206 131 clone 127 karplus_strong_clone;
#X obj 528 467 steampipe;
#X connect 0 0 25 0;
#X connect 2 0 5 0;
#X connect 3 0 6 0;
#X connect 4 0 7 0;
#X connect 5 0 9 0;
#X connect 6 0 8 0;
#X connect 7 0 10 0;
#X connect 8 0 0 2;
#X connect 9 0 0 1;
#X connect 10 0 0 3;
#X connect 12 0 24 0;
#X connect 13 0 16 0;
#X connect 14 0 17 0;
#X connect 15 0 18 0;
#X connect 16 0 20 0;
#X connect 17 0 19 0;
#X connect 18 0 21 0;
#X connect 19 0 12 2;
#X connect 20 0 12 1;
#X connect 21 0 12 3;
#X connect 22 0 23 0;
#X connect 22 0 24 1;
#X connect 24 0 11 0;
#X connect 24 0 11 1;
#X connect 25 0 1 0;
#X connect 25 0 1 1;
#X connect 27 0 26 0;
#X connect 30 0 31 0;
#X connect 31 0 2 0;
#X connect 32 0 33 0;
#X connect 33 0 3 0;
#X connect 34 0 35 0;
#X connect 35 0 4 0;
#X connect 36 0 39 0;
#X connect 37 0 40 0;
#X connect 38 0 41 0;
#X connect 39 0 13 0;
#X connect 40 0 14 0;
#X connect 41 0 15 0;
#X connect 42 0 43 0;
#X connect 44 0 45 0;
#X connect 46 0 0 0;
