#N canvas 646 88 1236 859 10;
#X obj 1349 -17 r ctlin;
#X obj 18 -7 inlet;
#X obj 11 28 s notein;
#X obj 181 -15 inlet;
#X obj 174 20 s ctlin;
#X obj 132 346 outlet~;
#X obj 385 193 outlet;
#X obj 143 297 *~ 3;
#X obj 80 285 *~ 0.5;
#X obj 148 252 lop~ 50;
#X obj 68 259 lop~ 50;
#X obj 152 209 body_filter~ 80 70 45;
#X obj 137 160 clone 18 karplus_strong_clone;
#X connect 1 0 2 0;
#X connect 3 0 4 0;
#X connect 7 0 5 0;
#X connect 8 0 7 0;
#X connect 9 0 7 0;
#X connect 10 0 8 0;
#X connect 11 0 9 0;
#X connect 11 0 10 0;
#X connect 12 0 11 0;
#X connect 12 1 6 0;
