#N canvas 338 169 1522 953 10;
#X msg 76 -192 /Flute/Basic-Parameters/gate \$1;
#X obj 37 -237 tgl 15 0 empty empty empty 17 7 0 10 -262144 -1 -1 0
1;
#X msg 162 -222 Flute/Basic-Parameters/freq \$1;
#X obj 162 -295 mtof;
#X obj 294 -172 Flute;
#X obj 444 521 s \$0-note;
#X obj 162 -324 r \$0-note;
#X obj 167 -255 * 2;
#X obj 630 278 *~;
#X obj 75 -54 line;
#X obj 55 -130 sel 0 127;
#X msg 31 -96 0 4000;
#X obj 71 -313 inlet;
#X msg 109 -98 1 3000;
#X obj 1088 -232 hsl 128 15 0 1 0 0 empty empty empty -2 -8 0 10 -262144
-1 -1 0 1;
#X msg 1068 -196 Flute/Physical-and-Nonlinearity/Physical-Parameters/Noise-Gain
\$1;
#X obj 444 474 tuning_table \$1;
#X obj 888 -291 inlet;
#X text 931 -289 lfo on-off;
#X obj 888 -264 s \$0-sustain_fade;
#X obj 1019 -280 inlet;
#X text 1057 -276 lfos;
#X obj 1038 -30 sel 1;
#X obj 1078 17 delay 1000;
#X obj 1038 -8 delay 750;
#X obj 1134 88 r \$0-sustain_fade;
#X obj 1028 162 *;
#X obj 571 374 *~ 1;
#X obj 1028 83 line 1;
#X obj 608 373 *~ 1;
#X obj 679 359 r \$0-sustain_fade;
#X obj 723 397 * -1;
#X floatatom 679 420 5 0 0 0 - - -, f 5;
#X floatatom 720 445 5 0 0 0 - - -, f 5;
#X obj 723 419 + 1;
#X obj 572 410 *~ 1;
#X obj 606 410 *~ 0;
#X msg 1079 45 0.1 1000;
#X obj 834 495 f \$1;
#X obj 834 471 loadbang;
#X obj 675 524 pd~_instance_audio_switcher;
#X obj 566 665 outlet~;
#X obj 615 665 outlet~;
#X obj 665 665 outlet~;
#X obj 715 665 outlet~;
#X obj 765 665 outlet~;
#X obj 815 665 outlet~;
#X obj 867 665 outlet~;
#X obj 917 665 outlet~;
#X obj 966 665 outlet~;
#X obj 1165 -129 hsl 128 15 0 1 0 0 empty empty empty -2 -8 0 10 -262144
-1 -1 8598 1;
#X msg 1160 -103 Flute/Physical-and-Nonlinearity/Physical-Parameters/Pressure
\$1;
#X obj 1184 -306 f \$1;
#X obj 1151 -277 == 4;
#X msg 1162 -152 0.677;
#X obj 1180 -328 loadbang;
#X obj 631 302 *~ 0.7;
#X msg 1013 21 3 1000;
#X connect 0 0 4 0;
#X connect 1 0 0 0;
#X connect 2 0 4 0;
#X connect 3 0 7 0;
#X connect 4 1 8 0;
#X connect 6 0 3 0;
#X connect 7 0 2 0;
#X connect 8 0 56 0;
#X connect 9 0 8 1;
#X connect 10 0 11 0;
#X connect 10 1 13 0;
#X connect 11 0 9 0;
#X connect 12 0 10 0;
#X connect 12 0 1 0;
#X connect 13 0 9 0;
#X connect 14 0 15 0;
#X connect 15 0 4 0;
#X connect 16 0 5 0;
#X connect 17 0 19 0;
#X connect 20 0 22 0;
#X connect 22 0 24 0;
#X connect 23 0 37 0;
#X connect 24 0 57 0;
#X connect 24 0 23 0;
#X connect 25 0 26 1;
#X connect 26 0 29 1;
#X connect 27 0 35 0;
#X connect 28 0 26 0;
#X connect 29 0 36 0;
#X connect 30 0 31 0;
#X connect 30 0 32 0;
#X connect 31 0 34 0;
#X connect 32 0 36 1;
#X connect 33 0 35 1;
#X connect 34 0 33 0;
#X connect 35 0 40 0;
#X connect 36 0 40 0;
#X connect 37 0 28 0;
#X connect 38 0 40 1;
#X connect 39 0 38 0;
#X connect 40 0 41 0;
#X connect 40 1 42 0;
#X connect 40 2 43 0;
#X connect 40 3 44 0;
#X connect 40 4 45 0;
#X connect 40 5 46 0;
#X connect 40 6 47 0;
#X connect 40 7 48 0;
#X connect 40 8 49 0;
#X connect 50 0 51 0;
#X connect 51 0 4 0;
#X connect 52 0 53 0;
#X connect 53 0 54 0;
#X connect 54 0 50 0;
#X connect 55 0 52 0;
#X connect 56 0 29 0;
#X connect 56 0 27 0;
#X connect 57 0 28 0;
