#N canvas 921 38 557 602 10;
#N canvas 715 226 450 300 body 0;
#X obj 150 39 inlet~;
#X obj 162 212 outlet~;
#X obj 73 141 bp~ 60 10;
#X obj 165 115 bp~ 100 10;
#X obj 270 125 bp~ 160 10;
#X obj 244 34 inlet;
#X obj 282 34 inlet;
#X obj 320 34 inlet;
#X connect 0 0 2 0;
#X connect 0 0 3 0;
#X connect 0 0 4 0;
#X connect 2 0 1 0;
#X connect 3 0 1 0;
#X connect 4 0 1 0;
#X connect 5 0 2 1;
#X connect 6 0 3 1;
#X connect 7 0 4 1;
#X restore 200 352 pd body filter;
#X obj 225 150 vsl 15 128 0 127 0 0 empty empty empty 0 -9 0 10 -262144
-1 -1 10000 1;
#X obj 259 151 vsl 15 128 0 127 0 0 empty empty empty 0 -9 0 10 -262144
-1 -1 5700 1;
#X obj 293 151 vsl 15 128 0 127 0 0 empty empty empty 0 -9 0 10 -262144
-1 -1 4500 1;
#X obj 225 291 mtof;
#X obj 259 291 mtof;
#X obj 292 291 mtof;
#X obj 290 321 nozip-ctrl;
#X obj 220 322 nozip-ctrl;
#X obj 359 322 nozip-ctrl;
#X obj 229 73 r ctlin;
#X obj 228 94 route 6;
#X obj 286 72 r ctlin;
#X obj 285 93 route 7;
#X obj 342 70 r ctlin;
#X obj 341 91 route 8;
#X obj 273 -38 loadbang;
#X msg 266 3 100;
#X obj 203 401 outlet~;
#X obj 80 57 inlet;
#X floatatom 358 283 5 0 0 0 - - -, f 5;
#X floatatom 183 284 5 0 0 0 - - -, f 5;
#X floatatom 124 285 5 0 0 0 - - -, f 5;
#X msg 301 2 57;
#X msg 333 0 45;
#X obj 80 100 clone 18 steampipe;
#X connect 0 0 18 0;
#X connect 1 0 4 0;
#X connect 1 0 22 0;
#X connect 2 0 5 0;
#X connect 2 0 21 0;
#X connect 3 0 6 0;
#X connect 3 0 20 0;
#X connect 4 0 8 0;
#X connect 5 0 7 0;
#X connect 6 0 9 0;
#X connect 7 0 0 2;
#X connect 8 0 0 1;
#X connect 9 0 0 3;
#X connect 10 0 11 0;
#X connect 11 0 1 0;
#X connect 12 0 13 0;
#X connect 13 0 2 0;
#X connect 14 0 15 0;
#X connect 15 0 3 0;
#X connect 16 0 17 0;
#X connect 16 0 23 0;
#X connect 16 0 24 0;
#X connect 17 0 1 0;
#X connect 19 0 25 0;
#X connect 23 0 2 0;
#X connect 24 0 3 0;
#X connect 25 0 0 0;
