#N canvas 303 208 1066 774 10;
#X msg 76 -192 /Flute/Basic-Parameters/gate \$1;
#X obj 37 -237 tgl 15 0 empty empty empty 17 7 0 10 -262144 -1 -1 0
1;
#X msg 162 -222 Flute/Basic-Parameters/freq \$1;
#X obj 162 -295 mtof;
#X obj 571 400 outlet~;
#X obj 898 317 outlet~;
#X obj 294 -172 Flute;
#X obj 444 521 s \$0-note;
#X obj 162 -324 r \$0-note;
#X obj 167 -255 * 2;
#X obj 630 278 *~;
#X obj 896 293 *~;
#X obj 75 -54 line;
#X obj 55 -130 sel 0 127;
#X msg 31 -96 0 4000;
#X obj 71 -313 inlet;
#X msg 109 -98 1 3000;
#X obj 549 -257 hsl 128 15 0 1 0 0 empty empty empty -2 -8 0 10 -262144
-1 -1 0 1;
#X msg 529 -221 Flute/Physical-and-Nonlinearity/Physical-Parameters/Noise-Gain
\$1;
#X obj 444 474 tuning_table \$1;
#X obj 571 374 *~;
#X obj 791 585 snapshot~;
#X obj 809 558 metro 100;
#X obj 809 537 tgl 15 0 empty empty empty 17 7 0 10 -262144 -1 -1 0
1;
#X obj 754 447 lop~ 1;
#X obj 888 -291 inlet;
#X text 931 -289 lfo on-off;
#X obj 888 -264 s \$0-sustain_fade;
#X obj 785 467 r \$0-sustain_fade;
#X obj 754 490 *~;
#X obj 754 518 +~ 1;
#X obj 779 350 f \$1;
#X msg 779 403 lfo-0;
#X obj 753 404 r~;
#X msg 779 376 set lfo-\$1;
#X obj 779 322 loadbang;
#X connect 0 0 6 0;
#X connect 1 0 0 0;
#X connect 2 0 6 0;
#X connect 3 0 9 0;
#X connect 6 1 10 0;
#X connect 6 2 11 0;
#X connect 8 0 3 0;
#X connect 9 0 2 0;
#X connect 10 0 20 0;
#X connect 11 0 5 0;
#X connect 12 0 10 1;
#X connect 12 0 11 1;
#X connect 13 0 14 0;
#X connect 13 1 16 0;
#X connect 14 0 12 0;
#X connect 15 0 13 0;
#X connect 15 0 1 0;
#X connect 16 0 12 0;
#X connect 17 0 18 0;
#X connect 19 0 7 0;
#X connect 20 0 4 0;
#X connect 22 0 21 0;
#X connect 23 0 22 0;
#X connect 24 0 29 0;
#X connect 25 0 27 0;
#X connect 28 0 29 1;
#X connect 29 0 30 0;
#X connect 30 0 20 1;
#X connect 30 0 21 0;
#X connect 31 0 34 0;
#X connect 33 0 24 0;
#X connect 34 0 32 0;
#X connect 34 0 33 0;
#X connect 35 0 31 0;
