#N canvas 603 38 843 723 10;
#X obj 42 23 r midi;
#X obj 98 23 r sustain;
#X msg 18 237 \; pd dsp 1;
#X obj 18 206 loadbang;
#X obj 168 20 r lfos;
#X obj 255 165 dac~ 1 2 3 4 5 6 7 8 9;
#X obj 271 65 clone 18 steampipe;
#X connect 0 0 6 0;
#X connect 1 0 6 1;
#X connect 3 0 2 0;
#X connect 4 0 6 2;
#X connect 6 0 5 0;
#X connect 6 1 5 1;
#X connect 6 2 5 2;
#X connect 6 3 5 3;
#X connect 6 4 5 4;
#X connect 6 5 5 5;
#X connect 6 6 5 6;
#X connect 6 7 5 7;
#X connect 6 8 5 8;
