#N canvas 1020 462 568 542 10;
#X text 114 31 table reader for 512 positions;
#X obj 78 70 inlet;
#X obj 78 97 bang;
#X obj 78 120 t b b;
#X obj 81 227 f;
#X obj 124 227 + 1;
#X floatatom 81 364 5 0 0 0 - - -, f 5;
#X obj 49 166 tgl 15 0 empty empty empty 17 7 0 10 -262144 -1 -1 0
1;
#X msg 139 179 1;
#X obj 103 258 sel 512;
#X msg 104 284 0;
#X msg 75 147 1;
#X obj 82 337 mod 513;
#X obj 82 423 outlet;
#X obj 75 188 metro 2;
#X text 213 63 on bang spits out 0-512;
#X connect 1 0 2 0;
#X connect 2 0 3 0;
#X connect 3 0 11 0;
#X connect 3 1 8 0;
#X connect 4 0 5 0;
#X connect 4 0 12 0;
#X connect 5 0 4 1;
#X connect 6 0 13 0;
#X connect 7 0 14 0;
#X connect 8 0 5 1;
#X connect 9 0 10 0;
#X connect 10 0 7 0;
#X connect 11 0 7 0;
#X connect 12 0 6 0;
#X connect 12 0 9 0;
#X connect 14 0 4 0;
