#N canvas 0 22 450 300 10;
#N canvas 336 156 450 300 fire 0;
#N canvas 8 22 450 300 hissing 0;
#X obj 71 34 noise~;
#X obj 200 96 lop~ 1;
#X obj 155 234 *~;
#X obj 155 272 outlet~;
#X obj 200 179 *~;
#X obj 289 133 noise~;
#X obj 289 157 lop~ 1;
#X obj 290 185 *~;
#X obj 71 58 hip~ 1000;
#X obj 200 120 *~ 10;
#X obj 200 147 *~;
#X obj 200 205 *~ 600;
#X obj 290 208 *~ 10;
#X obj 398 25 inlet;
#X obj 248 255 lop~ 3520;
#X connect 0 0 8 0;
#X connect 0 0 1 0;
#X connect 1 0 9 0;
#X connect 2 0 14 0;
#X connect 4 0 11 0;
#X connect 5 0 6 0;
#X connect 6 0 7 1;
#X connect 7 0 12 0;
#X connect 8 0 7 0;
#X connect 8 0 2 0;
#X connect 9 0 10 0;
#X connect 9 0 10 1;
#X connect 10 0 4 1;
#X connect 10 0 4 0;
#X connect 11 0 2 1;
#X connect 12 0 14 0;
#X connect 13 0 14 1;
#X connect 14 0 3 0;
#X restore 191 -111 pd hissing;
#N canvas 0 22 450 300 flames 0;
#X obj 157 72 noise~;
#X obj 157 103 bp~ 30 5;
#X obj 157 126 *~ 100;
#X obj 157 148 hip~ 25;
#X obj 157 171 clip~ -0.9 0.9;
#X obj 157 194 hip~ 25;
#X obj 157 243 outlet~;
#X obj 157 218 *~ 0.6;
#X connect 0 0 1 0;
#X connect 1 0 2 0;
#X connect 2 0 3 0;
#X connect 3 0 4 0;
#X connect 4 0 5 0;
#X connect 5 0 7 0;
#X connect 7 0 6 0;
#X restore 116 -112 pd flames;
#X obj 115 -71 outlet~;
#X obj 191 -140 inlet;
#X text 232 -143 freq inlet for svf~;
#X connect 0 0 2 0;
#X connect 1 0 2 0;
#X connect 3 0 0 0;
#X restore 164 66 pd fire;
#X obj 165 105 door_resonators~;
#X obj 168 162 outlet~;
#X connect 0 0 1 0;
#X connect 1 0 2 0;
