#N canvas 0 361 918 677 10;
#X obj 114 81 phasor~ 440;
#X obj 197 81 osc~ 440;
#X obj 160 158 *~ 0.01;
#X obj 114 112 lop~ 500;
#X obj 153 383 outlet~;
#X obj 23 295 s \$0-note;
#X obj 165 2 r \$0-note;
#X obj 159 196 *~;
#X obj 63 190 line;
#X obj 20 122 sel 0 127;
#X obj 25 74 inlet;
#X msg 21 154 0 2000;
#X msg 76 153 1 3000;
#X obj 22 253 tuning_table \$1;
#X obj 245 177 lop~ 1;
#X obj 166 48 * 2;
#X obj 165 23 mtof;
#X obj 160 231 *~;
#X obj 154 293 *~;
#X obj 421 12 inlet;
#X obj 216 207 *~;
#X obj 154 265 lop~ 500;
#X obj 274 97 f \$1;
#X msg 274 151 lfo-0;
#X obj 248 151 r~;
#X msg 274 123 set lfo-\$1;
#X obj 274 69 loadbang;
#X obj 154 322 *~ 1;
#X obj 295 251 snapshot~;
#X obj 295 275 print lfo+;
#X obj 295 227 metro 100;
#X obj 316 204 tgl 15 0 empty empty empty 17 7 0 10 -262144 -1 -1 0
1;
#X obj 230 363 instance_audio_switcher;
#X obj 365 339 f \$1;
#X obj 365 316 loadbang;
#X connect 0 0 3 0;
#X connect 1 0 2 0;
#X connect 2 0 7 0;
#X connect 3 0 2 0;
#X connect 6 0 16 0;
#X connect 7 0 17 0;
#X connect 8 0 7 1;
#X connect 9 0 11 0;
#X connect 9 1 12 0;
#X connect 10 0 9 0;
#X connect 11 0 8 0;
#X connect 12 0 8 0;
#X connect 13 0 5 0;
#X connect 14 0 20 0;
#X connect 15 0 0 0;
#X connect 15 0 1 0;
#X connect 16 0 15 0;
#X connect 17 0 21 0;
#X connect 18 0 27 0;
#X connect 19 0 18 1;
#X connect 19 0 20 1;
#X connect 20 0 17 1;
#X connect 21 0 18 0;
#X connect 22 0 25 0;
#X connect 24 0 14 0;
#X connect 25 0 23 0;
#X connect 25 0 24 0;
#X connect 26 0 22 0;
#X connect 27 0 4 0;
#X connect 27 0 32 0;
#X connect 28 0 29 0;
#X connect 30 0 28 0;
#X connect 31 0 30 0;
#X connect 33 0 32 1;
#X connect 34 0 33 0;
