#N canvas 881 23 763 559 10;
#X obj 165 33 mtof;
#X obj 114 81 phasor~ 440;
#X obj 197 81 osc~ 440;
#X obj 160 158 *~ 0.01;
#X obj 114 112 lop~ 500;
#X obj 159 278 outlet~;
#X obj 24 369 == 0;
#X obj 24 343 f \$1;
#X obj 67 343 f \$1;
#X obj 107 343 f \$1;
#X obj 150 343 f \$1;
#X obj 190 343 f \$1;
#X obj 233 343 f \$1;
#X obj 273 343 f \$1;
#X obj 316 343 f \$1;
#X obj 357 344 f \$1;
#X obj 400 344 f \$1;
#X obj 440 344 f \$1;
#X obj 483 344 f \$1;
#X obj 523 344 f \$1;
#X obj 566 344 f \$1;
#X obj 606 344 f \$1;
#X obj 649 345 f \$1;
#X obj 688 345 f \$1;
#X obj 67 369 == 1;
#X obj 107 369 == 2;
#X obj 150 369 == 3;
#X obj 190 369 == 4;
#X obj 233 369 == 5;
#X obj 273 369 == 6;
#X obj 316 369 == 7;
#X obj 357 370 == 8;
#X obj 400 370 == 9;
#X obj 440 370 == 10;
#X obj 483 370 == 11;
#X obj 523 370 == 12;
#X obj 566 370 == 13;
#X obj 606 370 == 14;
#X obj 649 371 == 15;
#X obj 688 371 == 16;
#X obj 727 345 f \$1;
#X obj 727 371 == 17;
#X obj 75 260 loadbang;
#X msg 75 284 bang;
#X obj 24 393 sel 1;
#X obj 67 393 sel 1;
#X obj 107 393 sel 1;
#X obj 150 393 sel 1;
#X obj 190 392 sel 1;
#X obj 233 392 sel 1;
#X obj 273 392 sel 1;
#X obj 316 392 sel 1;
#X obj 358 392 sel 1;
#X obj 401 392 sel 1;
#X obj 441 392 sel 1;
#X obj 484 392 sel 1;
#X obj 524 392 sel 1;
#X obj 567 392 sel 1;
#X obj 607 392 sel 1;
#X obj 650 392 sel 1;
#X obj 688 392 sel 1;
#X obj 728 392 sel 1;
#X obj 370 512 s \$0-note;
#X msg 24 415 24;
#X msg 273 414 41;
#X msg 524 414 43;
#X text 519 520 c3(24):1 f3(41):7 g3(43):13;
#X msg 150 416 45;
#X text 555 503 notes (indexed from 1);
#X text 459 540 a3(45):4 c4(48):10 e4(52):16 f4(53):2 G4(55):5 a4(57):8
\, b4(59):11 c5(60):14 d5(62):17 \, e5(64):3 f5(65):6 g5(67):9 a5(69):12
b5(71):15 c6(72):18;
#X msg 67 416 53;
#X msg 107 415 64;
#X msg 190 414 55;
#X msg 233 415 65;
#X msg 316 415 57;
#X msg 358 414 67;
#X msg 401 415 48;
#X msg 441 414 59;
#X msg 484 415 69;
#X msg 567 415 60;
#X msg 607 414 71;
#X msg 650 415 52;
#X msg 688 413 62;
#X msg 729 412 72;
#X obj 213 12 r \$0-note;
#X obj 159 196 *~;
#X obj 63 190 line;
#X obj 20 122 sel 0 127;
#X obj 160 231 *~ 1;
#X obj 392 71 osc~ 1;
#X obj 392 107 snapshot~;
#X obj 484 107 metro 50;
#X obj 484 86 tgl 15 0 empty empty empty 17 7 0 10 -262144 -1 -1 1
1;
#X obj 393 129 / 2;
#X obj 484 54 loadbang;
#X obj 393 158 + 0.5;
#X obj 393 207 line;
#X msg 393 181 \$1 100;
#X obj 295 209 line, f 6;
#X obj 273 156 t b b;
#X obj 316 239 * 1;
#X msg 271 181 1 2000;
#X obj 278 127 delay 2000;
#X obj 319 147 loadbang;
#X obj 279 99 t b b;
#X msg 191 207 1;
#X msg 316 181 0 4000;
#X obj 25 74 inlet;
#X msg 21 154 0 2000;
#X msg 76 153 1 3000;
#X connect 0 0 1 0;
#X connect 0 0 2 0;
#X connect 1 0 4 0;
#X connect 2 0 3 0;
#X connect 3 0 85 0;
#X connect 4 0 3 0;
#X connect 6 0 44 0;
#X connect 7 0 6 0;
#X connect 8 0 24 0;
#X connect 9 0 25 0;
#X connect 10 0 26 0;
#X connect 11 0 27 0;
#X connect 12 0 28 0;
#X connect 13 0 29 0;
#X connect 14 0 30 0;
#X connect 15 0 31 0;
#X connect 16 0 32 0;
#X connect 17 0 33 0;
#X connect 18 0 34 0;
#X connect 19 0 35 0;
#X connect 20 0 36 0;
#X connect 21 0 37 0;
#X connect 22 0 38 0;
#X connect 23 0 39 0;
#X connect 24 0 45 0;
#X connect 25 0 46 0;
#X connect 26 0 47 0;
#X connect 27 0 48 0;
#X connect 28 0 49 0;
#X connect 29 0 50 0;
#X connect 30 0 51 0;
#X connect 31 0 52 0;
#X connect 32 0 53 0;
#X connect 33 0 54 0;
#X connect 34 0 55 0;
#X connect 35 0 56 0;
#X connect 36 0 57 0;
#X connect 37 0 58 0;
#X connect 38 0 59 0;
#X connect 39 0 60 0;
#X connect 40 0 41 0;
#X connect 41 0 61 0;
#X connect 42 0 43 0;
#X connect 43 0 7 0;
#X connect 43 0 8 0;
#X connect 43 0 9 0;
#X connect 43 0 10 0;
#X connect 43 0 11 0;
#X connect 43 0 12 0;
#X connect 43 0 13 0;
#X connect 43 0 14 0;
#X connect 43 0 15 0;
#X connect 43 0 16 0;
#X connect 43 0 17 0;
#X connect 43 0 18 0;
#X connect 43 0 19 0;
#X connect 43 0 20 0;
#X connect 43 0 21 0;
#X connect 43 0 22 0;
#X connect 43 0 23 0;
#X connect 43 0 40 0;
#X connect 44 0 63 0;
#X connect 45 0 70 0;
#X connect 46 0 71 0;
#X connect 47 0 67 0;
#X connect 48 0 72 0;
#X connect 49 0 73 0;
#X connect 50 0 64 0;
#X connect 51 0 74 0;
#X connect 52 0 75 0;
#X connect 53 0 76 0;
#X connect 54 0 77 0;
#X connect 55 0 78 0;
#X connect 56 0 65 0;
#X connect 57 0 79 0;
#X connect 58 0 80 0;
#X connect 59 0 81 0;
#X connect 60 0 82 0;
#X connect 61 0 83 0;
#X connect 63 0 62 0;
#X connect 64 0 62 0;
#X connect 65 0 62 0;
#X connect 67 0 62 0;
#X connect 70 0 62 0;
#X connect 71 0 62 0;
#X connect 72 0 62 0;
#X connect 73 0 62 0;
#X connect 74 0 62 0;
#X connect 75 0 62 0;
#X connect 76 0 62 0;
#X connect 77 0 62 0;
#X connect 78 0 62 0;
#X connect 79 0 62 0;
#X connect 80 0 62 0;
#X connect 81 0 62 0;
#X connect 82 0 62 0;
#X connect 83 0 62 0;
#X connect 84 0 0 0;
#X connect 85 0 88 0;
#X connect 86 0 85 1;
#X connect 87 0 108 0;
#X connect 87 1 109 0;
#X connect 88 0 5 0;
#X connect 89 0 90 0;
#X connect 90 0 93 0;
#X connect 91 0 90 0;
#X connect 92 0 91 0;
#X connect 93 0 95 0;
#X connect 94 0 92 0;
#X connect 95 0 97 0;
#X connect 96 0 100 0;
#X connect 97 0 96 0;
#X connect 98 0 100 1;
#X connect 99 0 101 0;
#X connect 99 1 106 0;
#X connect 101 0 98 0;
#X connect 102 0 99 0;
#X connect 103 0 106 0;
#X connect 104 0 102 0;
#X connect 104 1 105 0;
#X connect 106 0 98 0;
#X connect 107 0 87 0;
#X connect 108 0 86 0;
#X connect 108 0 106 0;
#X connect 109 0 86 0;
#X connect 109 0 104 0;
