#N canvas 840 195 635 668 10;
#X obj 114 81 phasor~ 440;
#X obj 197 81 osc~ 440;
#X obj 114 112 lop~ 500;
#X obj 355 552 s \$0-note;
#X obj 165 2 r \$0-note;
#X obj 159 196 *~;
#X obj 63 190 line;
#X obj 20 122 sel 0 127;
#X obj 25 74 inlet;
#X msg 21 154 0 2000;
#X obj 354 510 tuning_table \$1;
#X obj 160 231 *~ 1;
#X obj 176 34 mtof;
#X obj 471 79 inlet;
#X obj 471 105 sel 1;
#X msg 462 131 0.2 2000;
#X obj 202 439 instance_audio_switcher;
#X obj 337 415 f \$1;
#X obj 337 392 loadbang;
#X obj 160 158 *~ 0.05;
#X msg 76 153 1 1000;
#X obj 199 306 bp~ 200 10;
#X obj 167 401 *~ 0.6;
#X obj 155 459 outlet~;
#X connect 0 0 2 0;
#X connect 1 0 19 0;
#X connect 2 0 19 0;
#X connect 4 0 12 0;
#X connect 5 0 11 0;
#X connect 6 0 5 1;
#X connect 7 0 9 0;
#X connect 7 1 20 0;
#X connect 8 0 7 0;
#X connect 9 0 6 0;
#X connect 10 0 3 0;
#X connect 11 0 21 0;
#X connect 12 0 0 0;
#X connect 12 0 1 0;
#X connect 13 0 14 0;
#X connect 14 0 15 0;
#X connect 15 0 6 0;
#X connect 17 0 16 1;
#X connect 18 0 17 0;
#X connect 19 0 5 0;
#X connect 20 0 6 0;
#X connect 21 0 22 0;
#X connect 22 0 16 0;
#X connect 22 0 23 0;
