#N canvas 300 340 918 677 10;
#X obj 114 81 phasor~ 440;
#X obj 197 81 osc~ 440;
#X obj 114 112 lop~ 500;
#X obj 153 383 outlet~;
#X obj 23 295 s \$0-note;
#X obj 165 2 r \$0-note;
#X obj 63 190 line;
#X obj 20 122 sel 0 127;
#X obj 25 74 inlet;
#X msg 21 154 0 2000;
#X obj 22 253 tuning_table \$1;
#X obj 245 150 lop~ 1;
#X obj 166 48 * 2;
#X obj 165 23 mtof;
#X obj 274 70 f \$1;
#X msg 274 124 lfo-0;
#X obj 248 124 r~;
#X msg 274 96 set lfo-\$1;
#X obj 274 42 loadbang;
#X obj 395 131 snapshot~;
#X obj 395 155 print lfo+;
#X obj 395 107 metro 100;
#X obj 416 84 tgl 15 0 empty empty empty 17 7 0 10 -262144 -1 -1 0
1;
#X obj 230 363 instance_audio_switcher;
#X obj 365 339 f \$1;
#X obj 365 316 loadbang;
#X obj 160 238 *~ 1;
#X obj 317 233 * -1;
#X obj 316 255 + 1;
#X obj 196 243 *~ 0;
#X obj 196 219 *~;
#X obj 245 179 *~;
#X obj 160 188 *~ 1;
#X obj 160 158 *~ 0.01;
#X msg 76 153 1 1000;
#X obj 153 322 *~ 0;
#X obj 398 50 line;
#X obj 398 6 inlet;
#X msg 398 28 \$1 100;
#X obj 154 297 *~ 3;
#X obj 159 269 bp~ 500 10;
#X connect 0 0 2 0;
#X connect 1 0 33 0;
#X connect 2 0 33 0;
#X connect 5 0 13 0;
#X connect 6 0 32 1;
#X connect 7 0 9 0;
#X connect 7 1 34 0;
#X connect 8 0 7 0;
#X connect 9 0 6 0;
#X connect 10 0 4 0;
#X connect 11 0 31 0;
#X connect 12 0 0 0;
#X connect 12 0 1 0;
#X connect 13 0 12 0;
#X connect 14 0 17 0;
#X connect 16 0 11 0;
#X connect 17 0 15 0;
#X connect 17 0 16 0;
#X connect 18 0 14 0;
#X connect 19 0 20 0;
#X connect 21 0 19 0;
#X connect 22 0 21 0;
#X connect 24 0 23 1;
#X connect 25 0 24 0;
#X connect 26 0 40 0;
#X connect 27 0 28 0;
#X connect 28 0 26 1;
#X connect 29 0 40 0;
#X connect 30 0 29 0;
#X connect 31 0 30 1;
#X connect 32 0 26 0;
#X connect 32 0 30 0;
#X connect 33 0 32 0;
#X connect 34 0 6 0;
#X connect 35 0 3 0;
#X connect 35 0 23 0;
#X connect 36 0 27 0;
#X connect 36 0 31 1;
#X connect 36 0 29 1;
#X connect 36 0 35 1;
#X connect 37 0 38 0;
#X connect 38 0 36 0;
#X connect 39 0 35 0;
#X connect 40 0 39 0;
