#N canvas 255 35 983 793 10;
#X obj 25 467 == 0;
#X obj 25 441 f \$1;
#X obj 68 441 f \$1;
#X obj 108 441 f \$1;
#X obj 151 441 f \$1;
#X obj 191 441 f \$1;
#X obj 234 441 f \$1;
#X obj 274 441 f \$1;
#X obj 317 441 f \$1;
#X obj 358 442 f \$1;
#X obj 401 442 f \$1;
#X obj 441 442 f \$1;
#X obj 484 442 f \$1;
#X obj 524 442 f \$1;
#X obj 567 442 f \$1;
#X obj 607 442 f \$1;
#X obj 650 443 f \$1;
#X obj 689 443 f \$1;
#X obj 68 467 == 1;
#X obj 108 467 == 2;
#X obj 151 467 == 3;
#X obj 191 467 == 4;
#X obj 234 467 == 5;
#X obj 274 467 == 6;
#X obj 317 467 == 7;
#X obj 358 468 == 8;
#X obj 401 468 == 9;
#X obj 441 468 == 10;
#X obj 484 468 == 11;
#X obj 524 468 == 12;
#X obj 567 468 == 13;
#X obj 607 468 == 14;
#X obj 650 469 == 15;
#X obj 689 469 == 16;
#X obj 728 443 f \$1;
#X obj 728 469 == 17;
#X obj 259 347 loadbang;
#X msg 259 371 bang;
#X obj 25 491 sel 1;
#X obj 68 491 sel 1;
#X obj 108 491 sel 1;
#X obj 151 491 sel 1;
#X obj 191 490 sel 1;
#X obj 234 490 sel 1;
#X obj 274 490 sel 1;
#X obj 317 490 sel 1;
#X obj 359 490 sel 1;
#X obj 402 490 sel 1;
#X obj 442 490 sel 1;
#X obj 485 490 sel 1;
#X obj 525 490 sel 1;
#X obj 568 490 sel 1;
#X obj 608 490 sel 1;
#X obj 651 490 sel 1;
#X obj 689 490 sel 1;
#X obj 729 490 sel 1;
#X msg 25 514 24;
#X msg 151 514 45;
#X msg 108 515 64;
#X msg 690 511 62;
#X obj 371 610 outlet;
#X msg 68 514 69;
#X msg 191 512 53;
#X msg 234 513 48;
#X msg 274 512 43;
#X msg 317 513 60;
#X msg 359 512 52;
#X msg 402 513 59;
#X msg 442 512 55;
#X msg 485 513 72;
#X msg 525 512 41;
#X msg 568 513 57;
#X msg 608 512 65;
#X msg 651 513 71;
#X msg 730 510 67;
#X connect 0 0 38 0;
#X connect 1 0 0 0;
#X connect 2 0 18 0;
#X connect 3 0 19 0;
#X connect 4 0 20 0;
#X connect 5 0 21 0;
#X connect 6 0 22 0;
#X connect 7 0 23 0;
#X connect 8 0 24 0;
#X connect 9 0 25 0;
#X connect 10 0 26 0;
#X connect 11 0 27 0;
#X connect 12 0 28 0;
#X connect 13 0 29 0;
#X connect 14 0 30 0;
#X connect 15 0 31 0;
#X connect 16 0 32 0;
#X connect 17 0 33 0;
#X connect 18 0 39 0;
#X connect 19 0 40 0;
#X connect 20 0 41 0;
#X connect 21 0 42 0;
#X connect 22 0 43 0;
#X connect 23 0 44 0;
#X connect 24 0 45 0;
#X connect 25 0 46 0;
#X connect 26 0 47 0;
#X connect 27 0 48 0;
#X connect 28 0 49 0;
#X connect 29 0 50 0;
#X connect 30 0 51 0;
#X connect 31 0 52 0;
#X connect 32 0 53 0;
#X connect 33 0 54 0;
#X connect 34 0 35 0;
#X connect 35 0 55 0;
#X connect 36 0 37 0;
#X connect 37 0 1 0;
#X connect 37 0 2 0;
#X connect 37 0 3 0;
#X connect 37 0 4 0;
#X connect 37 0 5 0;
#X connect 37 0 6 0;
#X connect 37 0 7 0;
#X connect 37 0 8 0;
#X connect 37 0 9 0;
#X connect 37 0 10 0;
#X connect 37 0 11 0;
#X connect 37 0 12 0;
#X connect 37 0 13 0;
#X connect 37 0 14 0;
#X connect 37 0 15 0;
#X connect 37 0 16 0;
#X connect 37 0 17 0;
#X connect 37 0 34 0;
#X connect 38 0 56 0;
#X connect 39 0 61 0;
#X connect 40 0 58 0;
#X connect 41 0 57 0;
#X connect 42 0 62 0;
#X connect 43 0 63 0;
#X connect 44 0 64 0;
#X connect 45 0 65 0;
#X connect 46 0 66 0;
#X connect 47 0 67 0;
#X connect 48 0 68 0;
#X connect 49 0 69 0;
#X connect 50 0 70 0;
#X connect 51 0 71 0;
#X connect 52 0 72 0;
#X connect 53 0 73 0;
#X connect 54 0 59 0;
#X connect 55 0 74 0;
#X connect 56 0 60 0;
#X connect 57 0 60 0;
#X connect 58 0 60 0;
#X connect 59 0 60 0;
#X connect 61 0 60 0;
#X connect 62 0 60 0;
#X connect 63 0 60 0;
#X connect 64 0 60 0;
#X connect 65 0 60 0;
#X connect 66 0 60 0;
#X connect 67 0 60 0;
#X connect 68 0 60 0;
#X connect 69 0 60 0;
#X connect 70 0 60 0;
#X connect 71 0 60 0;
#X connect 72 0 60 0;
#X connect 73 0 60 0;
#X connect 74 0 60 0;
