#N canvas 399 155 881 752 10;
#X obj 321 355 uDMX;
#X msg 72 284 open;
#X msg 73 306 close;
#X obj 203 29 nbx 5 14 -1e+37 1e+37 0 0 empty empty empty 0 -8 0 10
-262144 -1 -1 140.551 256;
#X obj 203 52 nbx 5 14 -1e+37 1e+37 0 0 empty empty empty 0 -8 0 10
-262144 -1 -1 0 256;
#X obj 204 74 nbx 5 14 -1e+37 1e+37 0 0 empty empty empty 0 -8 0 10
-262144 -1 -1 70.2756 256;
#X obj 205 96 nbx 5 14 -1e+37 1e+37 0 0 empty empty empty 0 -8 0 10
-262144 -1 -1 26.1024 256;
#X obj 205 117 nbx 5 14 -1e+37 1e+37 0 0 empty empty empty 0 -8 0 10
-262144 -1 -1 0 256;
#X obj 205 138 nbx 5 14 -1e+37 1e+37 0 0 empty empty empty 0 -8 0 10
-262144 -1 -1 0 256;
#X obj 205 159 nbx 5 14 -1e+37 1e+37 0 0 empty empty empty 0 -8 0 10
-262144 -1 -1 72.2835 256;
#X obj 205 181 nbx 5 14 -1e+37 1e+37 0 0 empty empty empty 0 -8 0 10
-262144 -1 -1 124.488 256;
#X obj 122 -113 vsl 15 128 0 255 0 0 empty empty 1 0 -9 0 10 -260097
-1 -1 7000 1;
#X obj 142 -113 vsl 15 128 0 255 0 0 empty empty 2 0 -9 0 10 -260097
-1 -1 0 1;
#X obj 162 -113 vsl 15 128 0 255 0 0 empty empty 3 0 -9 0 10 -260097
-1 -1 3500 1;
#X obj 183 -113 vsl 15 128 0 255 0 0 empty empty 4 0 -9 0 10 -260097
-1 -1 1300 1;
#X obj 203 -113 vsl 15 128 0 255 0 0 empty empty 5 0 -9 0 10 -260097
-1 -1 0 0;
#X obj 223 -113 vsl 15 128 0 255 0 0 empty empty 6 0 -9 0 10 -260097
-1 -1 0 1;
#X obj 244 -113 vsl 15 128 0 255 0 0 empty empty 7 0 -9 0 10 -260097
-1 -1 3600 1;
#X obj 265 -113 vsl 15 128 0 255 0 0 empty empty 8 0 -9 0 10 -260097
-1 -1 6200 1;
#X obj 47 66 t b f;
#X obj 63 88 t b f;
#X obj 81 110 t b f;
#X obj 98 131 t b f;
#X obj 115 152 t b f;
#X obj 132 173 t b f;
#X obj 149 195 t b f;
#X obj 32 43 t b f;
#X text 15 -319 8-ch uDMX continuous slider output;
#X obj 32 214 b;
#X obj 19 -297 inlet;
#X obj 28 -280 inlet;
#X obj 38 -263 inlet;
#X obj 48 -246 inlet;
#X obj 59 -229 inlet;
#X obj 70 -212 inlet;
#X obj 78 -195 inlet;
#X obj 86 -178 inlet;
#X obj 51 -89 tgl 15 0 empty empty empty 17 7 0 10 -262144 -1 -1 0
1;
#X obj 51 -67 select 0;
#X obj 503 -304 inlet;
#X text 51 -90 rebootz;
#X obj 59 257 pack f f f f f f f f f;
#X obj 321 69 vsl 15 128 0 255 0 0 empty empty empty 0 -9 0 10 -262144
-1 -1 2800 1;
#X floatatom 350 251 5 0 0 0 - - -, f 5;
#X obj 42 363 uDMX;
#X obj 321 205 t f b;
#X floatatom 285 240 5 0 0 0 - - -, f 5;
#X msg 301 294 \$1 \$2;
#X obj 292 271 pack f f;
#X obj 279 335 print;
#X text 382 250 channel #;
#X text 348 148 intensity;
#X connect 3 0 26 0;
#X connect 4 0 19 0;
#X connect 5 0 20 0;
#X connect 6 0 21 0;
#X connect 7 0 22 0;
#X connect 8 0 23 0;
#X connect 9 0 24 0;
#X connect 10 0 25 0;
#X connect 11 0 3 0;
#X connect 12 0 4 0;
#X connect 13 0 5 0;
#X connect 14 0 6 0;
#X connect 15 0 7 0;
#X connect 16 0 8 0;
#X connect 17 0 9 0;
#X connect 18 0 10 0;
#X connect 19 0 28 0;
#X connect 19 1 41 1;
#X connect 20 0 28 0;
#X connect 20 1 41 2;
#X connect 21 0 28 0;
#X connect 21 1 41 3;
#X connect 22 0 28 0;
#X connect 22 1 41 4;
#X connect 23 0 28 0;
#X connect 23 1 41 5;
#X connect 24 0 28 0;
#X connect 24 1 41 6;
#X connect 25 0 28 0;
#X connect 25 1 41 7;
#X connect 26 0 28 0;
#X connect 26 1 41 0;
#X connect 28 0 41 0;
#X connect 29 0 11 0;
#X connect 30 0 12 0;
#X connect 31 0 13 0;
#X connect 32 0 14 0;
#X connect 33 0 15 0;
#X connect 34 0 16 0;
#X connect 35 0 17 0;
#X connect 36 0 18 0;
#X connect 37 0 38 0;
#X connect 38 0 1 0;
#X connect 38 1 2 0;
#X connect 39 0 37 0;
#X connect 41 0 44 0;
#X connect 42 0 45 0;
#X connect 43 0 0 1;
#X connect 43 0 48 1;
#X connect 45 0 46 0;
#X connect 45 0 48 0;
#X connect 45 1 43 0;
#X connect 47 0 0 0;
#X connect 47 0 49 0;
#X connect 48 0 47 0;
#X coords 0 -1 1 1 300 150 1 110 -130;
