#N canvas 286 73 1505 864 10;
#N canvas 0 22 792 605 turn_on_all_lights 0;
#X obj 246 211 f;
#X obj 289 211 + 1;
#X floatatom 246 348 5 0 0 0 - - -, f 5;
#X obj 214 150 tgl 15 0 empty empty empty 17 7 0 10 -262144 -1 -1 0
1;
#X obj 240 88 bng 15 250 50 0 empty empty empty 17 7 0 10 -262144 -1
-1;
#X obj 240 108 t b b;
#X msg 304 163 1;
#X obj 268 242 sel 512;
#X msg 269 268 0;
#X msg 240 131 1;
#X obj 240 172 metro 10;
#X obj 247 321 mod 513;
#X obj 247 407 outlet;
#X obj 229 40 inlet;
#X text 360 68 gets a bang and sends out ctrl 0 messages through all
512 channels;
#X text 359 16 sets all dmx channels to 0;
#X text 358 114 properly formated for ctlout;
#X msg 247 368 127 \$1;
#X connect 0 0 1 0;
#X connect 0 0 11 0;
#X connect 1 0 0 1;
#X connect 2 0 17 0;
#X connect 3 0 10 0;
#X connect 4 0 5 0;
#X connect 5 0 9 0;
#X connect 5 1 6 0;
#X connect 6 0 1 1;
#X connect 7 0 8 0;
#X connect 8 0 3 0;
#X connect 9 0 3 0;
#X connect 10 0 0 0;
#X connect 11 0 2 0;
#X connect 11 0 7 0;
#X connect 13 0 4 0;
#X connect 17 0 12 0;
#X restore 406 -213 pd turn_on_all_lights;
#X obj 406 -242 bng 15 250 50 0 empty empty empty 17 7 0 10 -262144
-1 -1;
#N canvas 0 22 792 605 turn_off_all_lights 0;
#X obj 246 211 f;
#X obj 289 211 + 1;
#X floatatom 246 348 5 0 0 0 - - -, f 5;
#X obj 214 150 tgl 15 0 empty empty empty 17 7 0 10 -262144 -1 -1 0
1;
#X obj 240 88 bng 15 250 50 0 empty empty empty 17 7 0 10 -262144 -1
-1;
#X obj 240 108 t b b;
#X msg 304 163 1;
#X obj 268 242 sel 512;
#X msg 269 268 0;
#X msg 240 131 1;
#X obj 240 172 metro 10;
#X obj 247 321 mod 513;
#X msg 247 368 0 \$1;
#X obj 247 407 outlet;
#X obj 229 40 inlet;
#X text 360 68 gets a bang and sends out ctrl 0 messages through all
512 channels;
#X text 359 16 sets all dmx channels to 0;
#X text 358 114 properly formated for ctlout;
#X connect 0 0 1 0;
#X connect 0 0 11 0;
#X connect 1 0 0 1;
#X connect 2 0 12 0;
#X connect 3 0 10 0;
#X connect 4 0 5 0;
#X connect 5 0 9 0;
#X connect 5 1 6 0;
#X connect 6 0 1 1;
#X connect 7 0 8 0;
#X connect 8 0 3 0;
#X connect 9 0 3 0;
#X connect 10 0 0 0;
#X connect 11 0 2 0;
#X connect 11 0 7 0;
#X connect 12 0 13 0;
#X connect 14 0 4 0;
#X restore 413 -151 pd turn_off_all_lights;
#X obj 413 -175 bng 15 250 50 0 empty empty empty 17 7 0 10 -262144
-1 -1;
#X obj 928 -121 hsl 128 15 0 255 0 0 empty empty empty -2 -8 0 10 -262144
-1 -1 0 1;
#X obj 944 -178 line;
#X msg 934 -218 0 2000;
#X msg 946 -248 255 2000;
#X obj 654 575 uDMX 0;
#X obj 777 497 loadbang;
#X obj 610 607 print;
#X obj 610 536 list trim;
#X obj 902 603 list-abs;
#X text 102 704 dependancies: uDMX \, list-abs;
#X obj 512 442 list;
#X obj 550 374 t b l;
#X text 458 286 controller 1;
#X obj 448 334 uDMX-15;
#X obj 455 133 unpack f f;
#X obj 551 306 pack f f;
#X obj 444 236 spigot;
#X obj 428 66 r control;
#X obj 564 -21 s control;
#X obj 428 105 t a a;
#X obj 540 237 spigot;
#X obj 597 184 > 15;
#X obj 570 159 t f f;
#X obj 582 210 &;
#X obj 562 183 < 31;
#X obj 540 263 unpack f f;
#X obj 512 160 < 16;
#X obj 596 284 - 16;
#X obj 649 -259 vsl 15 128 0 255 0 0 empty empty empty 0 -9 0 10 -262144
-1 -1 6200 1;
#X obj 550 335 uDMX-15;
#X msg 648 -118 \$1 3;
#X obj 733 -259 vsl 15 128 0 255 0 0 empty empty empty 0 -9 0 10 -262144
-1 -1 6800 1;
#X msg 706 -59 \$1 3;
#X msg 754 -54 \$1 5;
#X msg 716 -28 \$1 8;
#X msg 756 -28 \$1 25;
#X obj 733 -118 t f f f f;
#X msg 777 521 38;
#X connect 0 0 22 0;
#X connect 1 0 0 0;
#X connect 2 0 22 0;
#X connect 3 0 2 0;
#X connect 5 0 4 0;
#X connect 6 0 5 0;
#X connect 7 0 5 0;
#X connect 9 0 41 0;
#X connect 11 0 10 0;
#X connect 11 0 8 0;
#X connect 14 0 11 0;
#X connect 15 0 17 1;
#X connect 15 1 14 1;
#X connect 17 0 14 0;
#X connect 18 1 26 0;
#X connect 18 1 30 0;
#X connect 19 0 33 0;
#X connect 20 0 17 0;
#X connect 21 0 23 0;
#X connect 23 0 20 0;
#X connect 23 0 24 0;
#X connect 23 1 18 0;
#X connect 24 0 29 0;
#X connect 25 0 27 1;
#X connect 26 0 28 0;
#X connect 26 1 25 0;
#X connect 27 0 24 1;
#X connect 28 0 27 0;
#X connect 29 0 19 0;
#X connect 29 1 31 0;
#X connect 30 0 20 1;
#X connect 31 0 19 1;
#X connect 32 0 34 0;
#X connect 33 0 15 0;
#X connect 34 0 22 0;
#X connect 35 0 40 0;
#X connect 36 0 22 0;
#X connect 37 0 22 0;
#X connect 38 0 22 0;
#X connect 39 0 22 0;
#X connect 40 0 36 0;
#X connect 40 1 38 0;
#X connect 40 2 37 0;
#X connect 40 3 39 0;
#X connect 41 0 8 1;
#X coords 0 -1 1 1 300 150 1 110 -130;
