#N canvas 187 329 1254 663 10;
#X obj 219 226 vsl 15 128 0 255 0 0 empty empty empty 0 -9 0 10 -262144
-1 -1 0 1;
#X obj 278 226 vsl 15 128 0 255 0 0 empty empty empty 0 -9 0 10 -262144
-1 -1 0 1;
#X obj 278 366 t b f;
#X obj 346 226 vsl 15 128 0 255 0 0 empty empty empty 0 -9 0 10 -262144
-1 -1 0 1;
#X obj 346 366 t b f;
#X obj 413 226 vsl 15 128 0 255 0 0 empty empty empty 0 -9 0 10 -262144
-1 -1 0 1;
#X obj 413 366 t b f;
#X obj 481 226 vsl 15 128 0 255 0 0 empty empty empty 0 -9 0 10 -262144
-1 -1 0 1;
#X obj 481 366 t b f;
#X obj 548 226 vsl 15 128 0 255 0 0 empty empty empty 0 -9 0 10 -262144
-1 -1 0 1;
#X obj 548 366 t b f;
#X obj 615 226 vsl 15 128 0 255 0 0 empty empty empty 0 -9 0 10 -262144
-1 -1 0 1;
#X obj 615 366 t b f;
#X obj 682 226 vsl 15 128 0 255 0 0 empty empty empty 0 -9 0 10 -262144
-1 -1 0 1;
#X obj 682 366 t b f;
#X obj 749 226 vsl 15 128 0 255 0 0 empty empty empty 0 -9 0 10 -262144
-1 -1 0 1;
#X obj 749 366 t b f;
#X obj 1002 525 outlet;
#X obj 293 541 outlet;
#X obj 750 41 inlet;
#X obj 219 197 bang;
#X obj 1081 458 r \$0-b1-10;
#X obj 278 394 s \$0-b1-10;
#X obj 346 394 s \$0-b1-10;
#X obj 413 394 s \$0-b1-10;
#X obj 481 394 s \$0-b1-10;
#X obj 548 394 s \$0-b1-10;
#X obj 615 394 s \$0-b1-10;
#X obj 682 394 s \$0-b1-10;
#X obj 749 394 s \$0-b1-10;
#X obj 500 20 inlet;
#X text 540 19 1-0 and value;
#X text 794 39 bang to output list;
#X obj 293 497 pack f f f f f f f f f f f f f f f, f 72;
#X obj 816 226 vsl 15 128 0 255 0 0 empty empty empty 0 -9 0 10 -262144
-1 -1 0 1;
#X obj 816 366 t b f;
#X obj 883 226 vsl 15 128 0 255 0 0 empty empty empty 0 -9 0 10 -262144
-1 -1 0 1;
#X obj 883 366 t b f;
#X obj 950 226 vsl 15 128 0 255 0 0 empty empty empty 0 -9 0 10 -262144
-1 -1 0 1;
#X obj 950 366 t b f;
#X obj 1017 226 vsl 15 128 0 255 0 0 empty empty empty 0 -9 0 10 -262144
-1 -1 0 1;
#X obj 1017 366 t b f;
#X obj 1084 226 vsl 15 128 0 255 0 0 empty empty empty 0 -9 0 10 -262144
-1 -1 0 1;
#X obj 1084 366 t b f;
#X obj 816 394 s \$0-b1-10;
#X obj 883 394 s \$0-b1-10;
#X obj 950 394 s \$0-b1-10;
#X obj 1017 394 s \$0-b1-10;
#X obj 1084 394 s \$0-b1-10;
#X obj 1152 226 vsl 15 128 0 255 0 0 empty empty empty 0 -9 0 10 -262144
-1 -1 0 1;
#X obj 1152 366 t b f;
#X obj 1152 394 s \$0-b1-10;
#X obj 618 126 route 1 2 3 4 5 6 7 8 9 10 11 12 13 14 15;
#X obj 500 45 unpack f f;
#X obj 522 92 pack f f;
#X connect 0 0 33 0;
#X connect 1 0 2 0;
#X connect 2 0 22 0;
#X connect 2 1 33 1;
#X connect 3 0 4 0;
#X connect 4 0 23 0;
#X connect 4 1 33 2;
#X connect 5 0 6 0;
#X connect 6 0 24 0;
#X connect 6 1 33 3;
#X connect 7 0 8 0;
#X connect 8 0 25 0;
#X connect 8 1 33 4;
#X connect 9 0 10 0;
#X connect 10 0 26 0;
#X connect 10 1 33 5;
#X connect 11 0 12 0;
#X connect 12 0 27 0;
#X connect 12 1 33 6;
#X connect 13 0 14 0;
#X connect 14 0 28 0;
#X connect 14 1 33 7;
#X connect 15 0 16 0;
#X connect 16 0 29 0;
#X connect 16 1 33 8;
#X connect 19 0 20 0;
#X connect 20 0 33 0;
#X connect 21 0 17 0;
#X connect 21 0 33 0;
#X connect 30 0 53 0;
#X connect 33 0 18 0;
#X connect 34 0 35 0;
#X connect 35 0 44 0;
#X connect 35 1 33 9;
#X connect 36 0 37 0;
#X connect 37 0 45 0;
#X connect 37 1 33 10;
#X connect 38 0 39 0;
#X connect 39 0 46 0;
#X connect 39 1 33 11;
#X connect 40 0 41 0;
#X connect 41 0 47 0;
#X connect 41 1 33 12;
#X connect 42 0 43 0;
#X connect 43 0 48 0;
#X connect 43 1 33 13;
#X connect 49 0 50 0;
#X connect 50 0 51 0;
#X connect 50 1 33 14;
#X connect 52 0 0 0;
#X connect 52 1 1 0;
#X connect 52 2 3 0;
#X connect 52 3 5 0;
#X connect 52 4 7 0;
#X connect 52 5 9 0;
#X connect 52 6 11 0;
#X connect 52 7 13 0;
#X connect 52 8 15 0;
#X connect 52 9 34 0;
#X connect 52 10 36 0;
#X connect 52 11 38 0;
#X connect 52 12 40 0;
#X connect 52 13 42 0;
#X connect 52 14 49 0;
#X connect 53 0 54 1;
#X connect 53 1 54 0;
#X connect 54 0 52 0;
