#N canvas 0 22 916 638 10;
#X msg 1591 85 \$1 bang;
#X obj 1686 -37 tgl 15 0 empty empty empty 17 7 0 10 -262144 -1 -1
0 1;
#X obj 1585 16 metro 100;
#X obj 1654 18 metro 57;
#X obj 1515 46 random 50;
#X obj 1725 49 random 50;
#X obj 1585 45 random 2;
#X obj 1654 47 random 2;
#X obj 1740 -9 metro 57;
#X obj 1811 22 random 50;
#X obj 1740 20 random 2;
#X obj 1811 45 + 200;
#X obj 1725 72 + 220;
#X obj 1518 73 + 125;
#X obj 1592 108 clone 2 glass_ping~ 1000;
#X connect 0 0 14 0;
#X connect 1 0 2 0;
#X connect 1 0 3 0;
#X connect 1 0 8 0;
#X connect 2 0 4 0;
#X connect 2 0 6 0;
#X connect 3 0 5 0;
#X connect 3 0 7 0;
#X connect 4 0 13 0;
#X connect 5 0 12 0;
#X connect 6 0 0 0;
#X connect 7 0 0 0;
#X connect 8 0 9 0;
#X connect 8 0 10 0;
#X connect 9 0 11 0;
#X connect 10 0 0 0;
#X connect 11 0 8 1;
#X connect 12 0 3 1;
#X connect 13 0 2 1;
